FontWithASyntaxHighlighter-BlackWide.ufo
<glyph name="percent" format="2">
  <advance width="1555"/>
  <unicode hex="0025"/>
  <outline>
    <contour>
      <point x="403" y="936" type="curve" smooth="yes"/>
      <point x="563" y="936"/>
      <point x="666" y="1048"/>
      <point x="666" y="1210" type="curve" smooth="yes"/>
      <point x="666" y="1372"/>
      <point x="563" y="1484"/>
      <point x="403" y="1484" type="curve" smooth="yes"/>
      <point x="243" y="1484"/>
      <point x="140" y="1372"/>
      <point x="140" y="1210" type="curve" smooth="yes"/>
      <point x="140" y="1048"/>
      <point x="243" y="936"/>
    </contour>
    <contour>
      <point x="403" y="1073" type="curve" smooth="yes"/>
      <point x="341" y="1073"/>
      <point x="302" y="1122"/>
      <point x="302" y="1210" type="curve" smooth="yes"/>
      <point x="302" y="1298"/>
      <point x="341" y="1347"/>
      <point x="403" y="1347" type="curve" smooth="yes"/>
      <point x="465" y="1347"/>
      <point x="504" y="1298"/>
      <point x="504" y="1210" type="curve" smooth="yes"/>
      <point x="504" y="1122"/>
      <point x="465" y="1073"/>
    </contour>
    <contour>
      <point x="1152" y="-24" type="curve" smooth="yes"/>
      <point x="1312" y="-24"/>
      <point x="1415" y="88"/>
      <point x="1415" y="250" type="curve" smooth="yes"/>
      <point x="1415" y="412"/>
      <point x="1312" y="524"/>
      <point x="1152" y="524" type="curve" smooth="yes"/>
      <point x="992" y="524"/>
      <point x="889" y="412"/>
      <point x="889" y="250" type="curve" smooth="yes"/>
      <point x="889" y="88"/>
      <point x="992" y="-24"/>
    </contour>
    <contour>
      <point x="1152" y="113" type="curve" smooth="yes"/>
      <point x="1090" y="113"/>
      <point x="1051" y="162"/>
      <point x="1051" y="250" type="curve" smooth="yes"/>
      <point x="1051" y="338"/>
      <point x="1090" y="387"/>
      <point x="1152" y="387" type="curve" smooth="yes"/>
      <point x="1214" y="387"/>
      <point x="1253" y="338"/>
      <point x="1253" y="250" type="curve" smooth="yes"/>
      <point x="1253" y="162"/>
      <point x="1214" y="113"/>
    </contour>
    <contour>
      <point x="425" y="0" type="line"/>
      <point x="1325" y="1460" type="line"/>
      <point x="1130" y="1460" type="line"/>
      <point x="230" y="0" type="line"/>
    </contour>
  </outline>
</glyph>
<glyph name="quotesingle" format="2">
  <advance width="1555"/>
  <unicode hex="0027"/>
  <outline>
    <contour>
      <point x="912" y="744" type="line"/>
      <point x="939" y="1460" type="line"/>
      <point x="616" y="1460" type="line"/>
      <point x="643" y="744" type="line"/>
    </contour>
  </outline>
</glyph>
<glyph name="plus" format="2">
  <advance width="1555"/>
  <unicode hex="002B"/>
  <outline>
    <contour>
      <point x="220" y="537" type="line"/>
      <point x="1335" y="537" type="line"/>
      <point x="1335" y="808" type="line"/>
      <point x="220" y="808" type="line"/>
    </contour>
    <contour>
      <point x="632" y="1218" type="line"/>
      <point x="632" y="127" type="line"/>
      <point x="923" y="127" type="line"/>
      <point x="923" y="1218" type="line"/>
    </contour>
  </outline>
</glyph>
<glyph name="hyphen" format="2">
  <advance width="1555"/>
  <unicode hex="002D"/>
  <outline>
    <contour>
      <point x="220" y="537" type="line"/>
      <point x="1335" y="537" type="line"/>
      <point x="1335" y="808" type="line"/>
      <point x="220" y="808" type="line"/>
    </contour>
  </outline>
</glyph>
<glyph name="slash" format="2">
  <advance width="1555"/>
  <unicode hex="002F"/>
  <outline>
    <contour>
      <point x="509" y="-200" type="line"/>
      <point x="1315" y="1460" type="line"/>
      <point x="946" y="1460" type="line"/>
      <point x="140" y="-200" type="line"/>
    </contour>
  </outline>
</glyph>
<glyph name="two" format="2">
  <advance width="1555"/>
  <unicode hex="0032"/>
  <outline>
    <contour>
      <point x="205" y="0" type="line"/>
      <point x="1424" y="0" type="line"/>
      <point x="1424" y="271" type="line"/>
      <point x="385" y="271" type="line"/>
      <point x="385" y="123" type="line"/>
      <point x="1358" y="788" type="line"/>
      <point x="1358" y="1262" type="line"/>
      <point x="1013" y="1460" type="line"/>
      <point x="213" y="1460" type="line"/>
      <point x="173" y="1159" type="line"/>
      <point x="893" y="1159" type="line"/>
      <point x="1033" y="1088" type="line"/>
      <point x="1033" y="912" type="line"/>
      <point x="145" y="301" type="line"/>
    </contour>
  </outline>
</glyph>
<glyph name="less" format="2">
  <advance width="1555"/>
  <unicode hex="003C"/>
  <outline>
    <contour>
      <point x="1228" y="1347" type="line"/>
      <point x="190" y="796" type="line"/>
      <point x="190" y="561" type="line"/>
      <point x="1228" y="10" type="line"/>
      <point x="1355" y="250" type="line"/>
      <point x="557" y="673" type="line"/>
      <point x="557" y="684" type="line"/>
      <point x="1355" y="1107" type="line"/>
    </contour>
  </outline>
</glyph>
<glyph name="equal" format="2">
  <advance width="1555"/>
  <unicode hex="003D"/>
  <outline>
    <contour>
      <point x="220" y="831" type="line"/>
      <point x="1335" y="831" type="line"/>
      <point x="1335" y="1102" type="line"/>
      <point x="220" y="1102" type="line"/>
    </contour>
    <contour>
      <point x="220" y="244" type="line"/>
      <point x="1335" y="244" type="line"/>
      <point x="1335" y="515" type="line"/>
      <point x="220" y="515" type="line"/>
    </contour>
  </outline>
</glyph>
<glyph name="greater" format="2">
  <advance width="1555"/>
  <unicode hex="003E"/>
  <outline>
    <contour>
      <point x="327" y="10" type="line"/>
      <point x="1365" y="561" type="line"/>
      <point x="1365" y="796" type="line"/>
      <point x="327" y="1347" type="line"/>
      <point x="200" y="1107" type="line"/>
      <point x="998" y="684" type="line"/>
      <point x="998" y="673" type="line"/>
      <point x="200" y="250" type="line"/>
    </contour>
  </outline>
</glyph>
<glyph name="A" format="2">
  <advance width="1555"/>
  <unicode hex="0041"/>
  <outline>
    <contour>
      <point x="158" y="0" type="line"/>
      <point x="485" y="0" type="line"/>
      <point x="485" y="811" type="line"/>
      <point x="818" y="1261" type="line"/>
      <point x="736" y="1261" type="line"/>
      <point x="1069" y="811" type="line"/>
      <point x="1069" y="0" type="line"/>
      <point x="1396" y="0" type="line"/>
      <point x="1396" y="933" type="line"/>
      <point x="980" y="1460" type="line"/>
      <point x="574" y="1460" type="line"/>
      <point x="158" y="933" type="line"/>
    </contour>
    <contour>
      <point x="365" y="303" type="line"/>
      <point x="1218" y="303" type="line"/>
      <point x="1218" y="537" type="line"/>
      <point x="365" y="537" type="line"/>
    </contour>
  </outline>
</glyph>
<glyph name="C" format="2">
  <advance width="1555"/>
  <unicode hex="0043"/>
  <outline>
    <contour>
      <point x="568" y="0" type="line"/>
      <point x="1318" y="0" type="line"/>
      <point x="1358" y="301" type="line"/>
      <point x="733" y="301" type="line"/>
      <point x="446" y="645" type="line"/>
      <point x="446" y="815" type="line"/>
      <point x="733" y="1159" type="line"/>
      <point x="1358" y="1159" type="line"/>
      <point x="1318" y="1460" type="line"/>
      <point x="568" y="1460" type="line"/>
      <point x="121" y="932" type="line"/>
      <point x="121" y="528" type="line"/>
    </contour>
  </outline>
</glyph>
<glyph name="F" format="2">
  <advance width="1555"/>
  <unicode hex="0046"/>
  <outline>
    <contour>
      <point x="198" y="0" type="line"/>
      <point x="527" y="0" type="line"/>
      <point x="527" y="1460" type="line"/>
      <point x="198" y="1460" type="line"/>
    </contour>
    <contour>
      <point x="379" y="539" type="line"/>
      <point x="1130" y="539" type="line"/>
      <point x="1130" y="796" type="line"/>
      <point x="379" y="796" type="line"/>
    </contour>
    <contour>
      <point x="349" y="1189" type="line"/>
      <point x="1349" y="1189" type="line"/>
      <point x="1319" y="1460" type="line"/>
      <point x="349" y="1460" type="line"/>
    </contour>
  </outline>
</glyph>
<glyph name="H" format="2">
  <advance width="1555"/>
  <unicode hex="0048"/>
  <outline>
    <contour>
      <point x="1059" y="0" type="line"/>
      <point x="1396" y="0" type="line"/>
      <point x="1396" y="1460" type="line"/>
      <point x="1059" y="1460" type="line"/>
    </contour>
    <contour>
      <point x="158" y="0" type="line"/>
      <point x="495" y="0" type="line"/>
      <point x="495" y="1460" type="line"/>
      <point x="158" y="1460" type="line"/>
    </contour>
    <contour>
      <point x="295" y="602" type="line"/>
      <point x="1255" y="602" type="line"/>
      <point x="1255" y="873" type="line"/>
      <point x="295" y="873" type="line"/>
    </contour>
  </outline>
</glyph>
<glyph name="L" format="2">
  <advance width="1555"/>
  <unicode hex="004C"/>
  <outline>
    <contour>
      <point x="256" y="0" type="line"/>
      <point x="585" y="0" type="line"/>
      <point x="585" y="1460" type="line"/>
      <point x="256" y="1460" type="line"/>
    </contour>
    <contour>
      <point x="416" y="0" type="line"/>
      <point x="1335" y="0" type="line"/>
      <point x="1365" y="271" type="line"/>
      <point x="416" y="271" type="line"/>
    </contour>
  </outline>
</glyph>
<glyph name="N" format="2">
  <advance width="1555"/>
  <unicode hex="004E"/>
  <outline>
    <contour>
      <point x="158" y="0" type="line"/>
      <point x="465" y="0" type="line"/>
      <point x="465" y="830" type="line"/>
      <point x="477" y="830" type="line"/>
      <point x="1194" y="0" type="line"/>
      <point x="1396" y="0" type="line"/>
      <point x="1396" y="1460" type="line"/>
      <point x="1089" y="1460" type="line"/>
      <point x="1089" y="591" type="line"/>
      <point x="1077" y="591" type="line"/>
      <point x="349" y="1460" type="line"/>
      <point x="158" y="1460" type="line"/>
    </contour>
  </outline>
</glyph>
<glyph name="R" format="2">
  <advance width="1555"/>
  <unicode hex="0052"/>
  <outline>
    <contour>
      <point x="298" y="552" type="line"/>
      <point x="1038" y="552" type="line"/>
      <point x="1443" y="849" type="line"/>
      <point x="1443" y="1163" type="line"/>
      <point x="1037" y="1460" type="line"/>
      <point x="298" y="1460" type="line"/>
      <point x="298" y="1159" type="line"/>
      <point x="907" y="1159" type="line"/>
      <point x="1118" y="1039" type="line"/>
      <point x="1118" y="933" type="line"/>
      <point x="907" y="763" type="line"/>
      <point x="298" y="763" type="line"/>
    </contour>
    <contour>
      <point x="167" y="0" type="line"/>
      <point x="504" y="0" type="line"/>
      <point x="504" y="1460" type="line"/>
      <point x="167" y="1460" type="line"/>
    </contour>
    <contour>
      <point x="1125" y="0" type="line"/>
      <point x="1460" y="0" type="line"/>
      <point x="1460" y="253" type="line"/>
      <point x="1116" y="661" type="line"/>
      <point x="786" y="661" type="line"/>
      <point x="1125" y="237" type="line"/>
    </contour>
  </outline>
</glyph>
<glyph name="T" format="2">
  <advance width="1555"/>
  <unicode hex="0054"/>
  <outline>
    <contour>
      <point x="615" y="0" type="line"/>
      <point x="945" y="0" type="line"/>
      <point x="945" y="1460" type="line"/>
      <point x="615" y="1460" type="line"/>
    </contour>
    <contour>
      <point x="153" y="1189" type="line"/>
      <point x="1399" y="1189" type="line"/>
      <point x="1379" y="1460" type="line"/>
      <point x="173" y="1460" type="line"/>
    </contour>
  </outline>
</glyph>
<glyph name="W" format="2">
  <advance width="1555"/>
  <unicode hex="0057"/>
  <outline>
    <contour>
      <point x="429" y="0" type="line"/>
      <point x="657" y="0" type="line"/>
      <point x="807" y="578" type="line"/>
      <point x="750" y="578" type="line"/>
      <point x="891" y="0" type="line"/>
      <point x="1127" y="0" type="line"/>
      <point x="1340" y="687" type="line"/>
      <point x="1340" y="1460" type="line"/>
      <point x="1070" y="1460" type="line"/>
      <point x="1070" y="711" type="line"/>
      <point x="965" y="306" type="line"/>
      <point x="982" y="306" type="line"/>
      <point x="887" y="771" type="line"/>
      <point x="887" y="1032" type="line"/>
      <point x="670" y="1032" type="line"/>
      <point x="670" y="771" type="line"/>
      <point x="575" y="306" type="line"/>
      <point x="592" y="306" type="line"/>
      <point x="487" y="711" type="line"/>
      <point x="487" y="1460" type="line"/>
      <point x="216" y="1460" type="line"/>
      <point x="216" y="687" type="line"/>
    </contour>
  </outline>
</glyph>
<glyph name="Z" format="2">
  <advance width="1555"/>
  <unicode hex="005A"/>
  <outline>
    <contour>
      <point x="215" y="0" type="line"/>
      <point x="1362" y="0" type="line"/>
      <point x="1422" y="266" type="line"/>
      <point x="428" y="266" type="line"/>
      <point x="487" y="160" type="line"/>
      <point x="1366" y="1245" type="line"/>
      <point x="1305" y="1460" type="line"/>
      <point x="220" y="1460" type="line"/>
      <point x="160" y="1196" type="line"/>
      <point x="1120" y="1196" type="line"/>
      <point x="1027" y="1291" type="line"/>
      <point x="155" y="226" type="line"/>
    </contour>
  </outline>
</glyph>
<glyph name="bracketright" format="2">
  <advance width="1555"/>
  <unicode hex="005D"/>
  <outline>
    <contour>
      <point x="1131" y="-400" type="line"/>
      <point x="1131" y="1602" type="line"/>
      <point x="264" y="1602" type="line"/>
      <point x="264" y="1362" type="line"/>
      <point x="866" y="1362" type="line"/>
      <point x="821" y="1407" type="line"/>
      <point x="821" y="-205" type="line"/>
      <point x="866" y="-160" type="line"/>
      <point x="264" y="-160" type="line"/>
      <point x="264" y="-400" type="line"/>
    </contour>
  </outline>
</glyph>
<glyph name="asciicircum" format="2">
  <advance width="1555"/>
  <unicode hex="005E"/>
  <outline>
    <contour>
      <point x="130" y="812" type="line"/>
      <point x="352" y="657" type="line"/>
      <point x="768" y="1252" type="line"/>
      <point x="787" y="1252" type="line"/>
      <point x="1203" y="657" type="line"/>
      <point x="1425" y="812" type="line"/>
      <point x="923" y="1530" type="line"/>
      <point x="632" y="1530" type="line"/>
    </contour>
  </outline>
</glyph>
<glyph name="b" format="2">
  <advance width="1555"/>
  <unicode hex="0062"/>
  <outline>
    <contour>
      <point x="122" y="0" type="line"/>
      <point x="437" y="0" type="line"/>
      <point x="437" y="882" type="line"/>
      <point x="452" y="942" type="line"/>
      <point x="452" y="1530" type="line"/>
      <point x="122" y="1470" type="line"/>
    </contour>
    <contour>
      <point x="304" y="0" type="line"/>
      <point x="974" y="0" type="line"/>
      <point x="1446" y="343" type="line"/>
      <point x="1446" y="775" type="line"/>
      <point x="1004" y="1106" type="line"/>
      <point x="304" y="928" type="line"/>
      <point x="304" y="729" type="line"/>
      <point x="907" y="805" type="line"/>
      <point x="1118" y="691" type="line"/>
      <point x="1118" y="454" type="line"/>
      <point x="835" y="263" type="line"/>
      <point x="304" y="263" type="line"/>
    </contour>
  </outline>
</glyph>
<glyph name="c" format="2">
  <advance width="1555"/>
  <unicode hex="0063"/>
  <outline>
    <contour>
      <point x="538" y="0" type="line"/>
      <point x="1373" y="0" type="line"/>
      <point x="1423" y="281" type="line"/>
      <point x="668" y="281" type="line"/>
      <point x="409" y="470" type="line"/>
      <point x="409" y="612" type="line"/>
      <point x="668" y="801" type="line"/>
      <point x="1423" y="801" type="line"/>
      <point x="1373" y="1082" type="line"/>
      <point x="538" y="1082" type="line"/>
      <point x="104" y="705" type="line"/>
      <point x="104" y="378" type="line"/>
    </contour>
  </outline>
</glyph>
<glyph name="e" format="2">
  <advance width="1555"/>
  <unicode hex="0065"/>
  <outline>
    <contour>
      <point x="560" y="0" type="line"/>
      <point x="1326" y="0" type="line"/>
      <point x="1356" y="251" type="line"/>
      <point x="720" y="251" type="line"/>
      <point x="448" y="431" type="line"/>
      <point x="448" y="631" type="line"/>
      <point x="743" y="851" type="line"/>
      <point x="1003" y="851" type="line"/>
      <point x="1161" y="769" type="line"/>
      <point x="1161" y="703" type="line"/>
      <point x="1026" y="630" type="line"/>
      <point x="378" y="630" type="line"/>
      <point x="378" y="440" type="line"/>
      <point x="1205" y="440" type="line"/>
      <point x="1427" y="561" type="line"/>
      <point x="1427" y="843" type="line"/>
      <point x="1106" y="1082" type="line"/>
      <point x="585" y="1082" type="line"/>
      <point x="143" y="713" type="line"/>
      <point x="143" y="369" type="line"/>
    </contour>
  </outline>
</glyph>
<glyph name="f" format="2">
  <advance width="1555"/>
  <unicode hex="0066"/>
  <outline>
    <contour>
      <point x="566" y="-1" type="line"/>
      <point x="891" y="-1" type="line"/>
      <point x="891" y="1068" type="line"/>
      <point x="1011" y="1200" type="line"/>
      <point x="1470" y="1200" type="line"/>
      <point x="1440" y="1481" type="line"/>
      <point x="841" y="1481" type="line"/>
      <point x="566" y="1162" type="line"/>
    </contour>
    <contour>
      <point x="171" y="695" type="line"/>
      <point x="1413" y="695" type="line"/>
      <point x="1413" y="953" type="line"/>
      <point x="171" y="953" type="line"/>
    </contour>
  </outline>
</glyph>
<glyph name="u" format="2">
  <advance width="1555"/>
  <unicode hex="0075"/>
  <outline>
    <contour>
      <point x="451" y="1082" type="line"/>
      <point x="126" y="1082" type="line"/>
      <point x="126" y="262" type="line"/>
      <point x="497" y="-24" type="line"/>
      <point x="1244" y="154" type="line"/>
      <point x="1244" y="335" type="line"/>
      <point x="621" y="259" type="line"/>
      <point x="451" y="342" type="line"/>
    </contour>
    <contour>
      <point x="1428" y="1082" type="line"/>
      <point x="1103" y="1082" type="line"/>
      <point x="1103" y="190" type="line"/>
      <point x="1183" y="0" type="line"/>
      <point x="1428" y="0" type="line"/>
    </contour>
  </outline>
</glyph>
<glyph name="v" format="2">
  <advance width="1555"/>
  <unicode hex="0076"/>
  <outline>
    <contour>
      <point x="612" y="0" type="line"/>
      <point x="942" y="0" type="line"/>
      <point x="1424" y="639" type="line"/>
      <point x="1424" y="1082" type="line"/>
      <point x="1104" y="1082" type="line"/>
      <point x="1104" y="703" type="line"/>
      <point x="738" y="176" type="line"/>
      <point x="822" y="176" type="line"/>
      <point x="455" y="703" type="line"/>
      <point x="455" y="1082" type="line"/>
      <point x="130" y="1082" type="line"/>
      <point x="130" y="639" type="line"/>
    </contour>
  </outline>
</glyph>
<glyph name="cent" format="2">
  <advance width="1555"/>
  <unicode hex="00A2"/>
  <outline>
    <contour>
      <point x="605" y="313" type="line"/>
      <point x="561" y="-114" type="line"/>
      <point x="799" y="-114" type="line"/>
      <point x="843" y="313" type="line"/>
    </contour>
    <contour>
      <point x="1045" y="545" type="line"/>
      <point x="1015" y="436"/>
      <point x="920" y="393"/>
      <point x="785" y="393" type="curve" smooth="yes"/>
      <point x="607" y="393"/>
      <point x="495" y="470"/>
      <point x="495" y="674" type="curve" smooth="yes"/>
      <point x="495" y="879"/>
      <point x="607" y="953"/>
      <point x="789" y="953" type="curve" smooth="yes"/>
      <point x="922" y="953"/>
      <point x="1016" y="914"/>
      <point x="1043" y="809" type="curve"/>
      <point x="1364" y="838" type="line"/>
      <point x="1305" y="1064"/>
      <point x="1088" y="1177"/>
      <point x="789" y="1177" type="curve" smooth="yes"/>
      <point x="427" y="1177"/>
      <point x="181" y="1009"/>
      <point x="181" y="674" type="curve" smooth="yes"/>
      <point x="181" y="340"/>
      <point x="427" y="169"/>
      <point x="785" y="169" type="curve" smooth="yes"/>
      <point x="1078" y="169"/>
      <point x="1305" y="284"/>
      <point x="1364" y="510" type="curve"/>
    </contour>
    <contour>
      <point x="940" y="1040" type="line"/>
      <point x="992" y="1460" type="line"/>
      <point x="755" y="1460" type="line"/>
      <point x="703" y="1040" type="line"/>
    </contour>
    <contour>
      <point x="826" y="254" type="line"/>
      <point x="932" y="1100" type="line"/>
      <point x="720" y="1100" type="line"/>
      <point x="613" y="254" type="line"/>
    </contour>
  </outline>
</glyph>
<glyph name="dieresis" format="2">
  <advance width="1555"/>
  <unicode hex="00A8"/>
  <outline>
    <contour>
      <point x="440" y="1231" type="line"/>
      <point x="653" y="1441" type="line"/>
      <point x="440" y="1650" type="line"/>
      <point x="227" y="1441" type="line"/>
    </contour>
    <contour>
      <point x="1113" y="1231" type="line"/>
      <point x="1326" y="1441" type="line"/>
      <point x="1113" y="1650" type="line"/>
      <point x="900" y="1441" type="line"/>
    </contour>
  </outline>
</glyph>
<glyph name="logicalnot" format="2">
  <advance width="1555"/>
  <unicode hex="00AC"/>
  <outline>
    <contour>
      <point x="220" y="627" type="line"/>
      <point x="1335" y="627" type="line"/>
      <point x="1335" y="898" type="line"/>
      <point x="220" y="898" type="line"/>
    </contour>
    <contour>
      <point x="1044" y="898" type="line"/>
      <point x="1044" y="265" type="line"/>
      <point x="1335" y="265" type="line"/>
      <point x="1335" y="898" type="line"/>
    </contour>
  </outline>
</glyph>
<glyph name="macron" format="2">
  <advance width="1555"/>
  <unicode hex="00AF"/>
  <outline>
    <contour>
      <point x="347" y="1299" type="line"/>
      <point x="1208" y="1299" type="line"/>
      <point x="1208" y="1492" type="line"/>
      <point x="347" y="1492" type="line"/>
    </contour>
  </outline>
</glyph>
<glyph name="plusminus" format="2">
  <advance width="1555"/>
  <unicode hex="00B1"/>
  <outline>
    <contour>
      <point x="220" y="901" type="line"/>
      <point x="1335" y="901" type="line"/>
      <point x="1335" y="1172" type="line"/>
      <point x="220" y="1172" type="line"/>
    </contour>
    <contour>
      <point x="632" y="1460" type="line"/>
      <point x="632" y="613" type="line"/>
      <point x="923" y="613" type="line"/>
      <point x="923" y="1460" type="line"/>
    </contour>
    <contour>
      <point x="220" y="115" type="line"/>
      <point x="1335" y="115" type="line"/>
      <point x="1335" y="386" type="line"/>
      <point x="220" y="386" type="line"/>
    </contour>
  </outline>
</glyph>
<glyph name="acute" format="2">
  <advance width="1555"/>
  <unicode hex="00B4"/>
  <outline>
    <contour>
      <point x="945" y="1275" type="line"/>
      <point x="666" y="1275" type="line"/>
      <point x="883" y="1643" type="line"/>
      <point x="1236" y="1643" type="line"/>
    </contour>
  </outline>
</glyph>
<glyph name="periodcentered" format="2">
  <advance width="1555"/>
  <unicode hex="00B7"/>
  <outline>
    <contour>
      <point x="779" y="444" type="curve" smooth="yes"/>
      <point x="908" y="444"/>
      <point x="1015" y="532"/>
      <point x="1015" y="675" type="curve" smooth="yes"/>
      <point x="1015" y="819"/>
      <point x="908" y="904"/>
      <point x="779" y="904" type="curve" smooth="yes"/>
      <point x="648" y="904"/>
      <point x="540" y="819"/>
      <point x="540" y="675" type="curve" smooth="yes"/>
      <point x="540" y="532"/>
      <point x="648" y="444"/>
    </contour>
  </outline>
</glyph>
<glyph name="onesuperior" format="2">
  <advance width="1555"/>
  <unicode hex="00B9"/>
  <outline>
    <contour>
      <point x="569" y="1591" type="curve"/>
      <point x="569" y="1425" type="line"/>
      <point x="700" y="1425"/>
      <point x="823" y="1573"/>
      <point x="823" y="1655" type="curve"/>
      <point x="710" y="1655" type="line"/>
      <point x="689" y="1606"/>
      <point x="616" y="1591"/>
    </contour>
    <contour>
      <point x="874" y="1100" type="line"/>
      <point x="874" y="1655" type="line"/>
      <point x="710" y="1655" type="line"/>
      <point x="710" y="1100" type="line"/>
    </contour>
    <contour>
      <point x="554" y="1100" type="line"/>
      <point x="1025" y="1100" type="line"/>
      <point x="1025" y="1230" type="line"/>
      <point x="554" y="1230" type="line"/>
    </contour>
  </outline>
</glyph>
<glyph name="Atilde" format="2">
  <advance width="1555"/>
  <unicode hex="00C3"/>
  <outline>
    <contour>
      <point x="158" y="0" type="line"/>
      <point x="485" y="0" type="line"/>
      <point x="485" y="811" type="line"/>
      <point x="818" y="1261" type="line"/>
      <point x="736" y="1261" type="line"/>
      <point x="1069" y="811" type="line"/>
      <point x="1069" y="0" type="line"/>
      <point x="1396" y="0" type="line"/>
      <point x="1396" y="933" type="line"/>
      <point x="980" y="1460" type="line"/>
      <point x="574" y="1460" type="line"/>
      <point x="158" y="933" type="line"/>
    </contour>
    <contour>
      <point x="365" y="303" type="line"/>
      <point x="1218" y="303" type="line"/>
      <point x="1218" y="537" type="line"/>
      <point x="365" y="537" type="line"/>
    </contour>
    <contour>
      <point x="762" y="1911" type="line"/>
      <point x="464" y="1911" type="line"/>
      <point x="311" y="1758" type="line"/>
      <point x="311" y="1615" type="line"/>
      <point x="514" y="1615" type="line"/>
      <point x="514" y="1686" type="line"/>
      <point x="574" y="1758" type="line"/>
      <point x="652" y="1758" type="line"/>
      <point x="792" y="1615" type="line"/>
      <point x="1090" y="1615" type="line"/>
      <point x="1243" y="1768" type="line"/>
      <point x="1243" y="1911" type="line"/>
      <point x="1040" y="1911" type="line"/>
      <point x="1040" y="1830" type="line"/>
      <point x="980" y="1768" type="line"/>
      <point x="902" y="1768" type="line"/>
    </contour>
  </outline>
</glyph>
<glyph name="Iacute" format="2">
  <advance width="1555"/>
  <unicode hex="00CD"/>
  <outline>
    <contour>
      <point x="612" y="0" type="line"/>
      <point x="942" y="0" type="line"/>
      <point x="942" y="1460" type="line"/>
      <point x="612" y="1460" type="line"/>
    </contour>
    <contour>
      <point x="220" y="0" type="line"/>
      <point x="1334" y="0" type="line"/>
      <point x="1354" y="271" type="line"/>
      <point x="200" y="271" type="line"/>
    </contour>
    <contour>
      <point x="200" y="1189" type="line"/>
      <point x="1354" y="1189" type="line"/>
      <point x="1334" y="1460" type="line"/>
      <point x="220" y="1460" type="line"/>
    </contour>
    <contour>
      <point x="921" y="1619.408" type="line"/>
      <point x="642" y="1619.408" type="line"/>
      <point x="859" y="1917.966" type="line"/>
      <point x="1212" y="1917.966" type="line"/>
    </contour>
  </outline>
</glyph>
<glyph name="Oacute" format="2">
  <advance width="1555"/>
  <unicode hex="00D3"/>
  <outline>
    <contour>
      <point x="576" y="0" type="line"/>
      <point x="981" y="0" type="line"/>
      <point x="1462" y="528" type="line"/>
      <point x="1462" y="932" type="line"/>
      <point x="964" y="1460" type="line"/>
      <point x="576" y="1460" type="line"/>
      <point x="93" y="932" type="line"/>
      <point x="93" y="528" type="line"/>
    </contour>
    <contour>
      <point x="729" y="311" type="line"/>
      <point x="418" y="653" type="line"/>
      <point x="418" y="807" type="line"/>
      <point x="729" y="1149" type="line"/>
      <point x="827" y="1149" type="line"/>
      <point x="1137" y="807" type="line"/>
      <point x="1137" y="653" type="line"/>
      <point x="827" y="311" type="line"/>
    </contour>
    <contour>
      <point x="921" y="1619.408" type="line"/>
      <point x="642" y="1619.408" type="line"/>
      <point x="859" y="1917.966" type="line"/>
      <point x="1212" y="1917.966" type="line"/>
    </contour>
  </outline>
</glyph>
<glyph name="Otilde" format="2">
  <advance width="1555"/>
  <unicode hex="00D5"/>
  <outline>
    <contour>
      <point x="576" y="0" type="line"/>
      <point x="981" y="0" type="line"/>
      <point x="1462" y="528" type="line"/>
      <point x="1462" y="932" type="line"/>
      <point x="964" y="1460" type="line"/>
      <point x="576" y="1460" type="line"/>
      <point x="93" y="932" type="line"/>
      <point x="93" y="528" type="line"/>
    </contour>
    <contour>
      <point x="729" y="311" type="line"/>
      <point x="418" y="653" type="line"/>
      <point x="418" y="807" type="line"/>
      <point x="729" y="1149" type="line"/>
      <point x="827" y="1149" type="line"/>
      <point x="1137" y="807" type="line"/>
      <point x="1137" y="653" type="line"/>
      <point x="827" y="311" type="line"/>
    </contour>
    <contour>
      <point x="763" y="1911" type="line"/>
      <point x="465" y="1911" type="line"/>
      <point x="312" y="1758" type="line"/>
      <point x="312" y="1615" type="line"/>
      <point x="515" y="1615" type="line"/>
      <point x="515" y="1686" type="line"/>
      <point x="575" y="1758" type="line"/>
      <point x="653" y="1758" type="line"/>
      <point x="793" y="1615" type="line"/>
      <point x="1091" y="1615" type="line"/>
      <point x="1244" y="1768" type="line"/>
      <point x="1244" y="1911" type="line"/>
      <point x="1041" y="1911" type="line"/>
      <point x="1041" y="1830" type="line"/>
      <point x="981" y="1768" type="line"/>
      <point x="903" y="1768" type="line"/>
    </contour>
  </outline>
</glyph>
<glyph name="Oslash" format="2">
  <advance width="1555"/>
  <unicode hex="00D8"/>
  <outline>
    <contour>
      <point x="488" y="275" type="line"/>
      <point x="1183" y="1066" type="line"/>
      <point x="1028" y="1181" type="line"/>
      <point x="325" y="391" type="line"/>
    </contour>
    <contour>
      <point x="227" y="-67" type="line"/>
      <point x="550" y="306" type="line"/>
      <point x="376" y="473" type="line"/>
      <point x="40" y="87" type="line"/>
    </contour>
    <contour>
      <point x="1145" y="991" type="line"/>
      <point x="1479" y="1376" type="line"/>
      <point x="1292" y="1530" type="line"/>
      <point x="970" y="1159" type="line"/>
    </contour>
    <contour>
      <point x="554" y="0" type="line"/>
      <point x="959" y="0" type="line"/>
      <point x="1440" y="528" type="line"/>
      <point x="1440" y="932" type="line"/>
      <point x="942" y="1460" type="line"/>
      <point x="554" y="1460" type="line"/>
      <point x="71" y="932" type="line"/>
      <point x="71" y="528" type="line"/>
    </contour>
    <contour>
      <point x="707" y="311" type="line"/>
      <point x="396" y="653" type="line"/>
      <point x="396" y="807" type="line"/>
      <point x="707" y="1149" type="line"/>
      <point x="805" y="1149" type="line"/>
      <point x="1115" y="807" type="line"/>
      <point x="1115" y="653" type="line"/>
      <point x="805" y="311" type="line"/>
    </contour>
  </outline>
</glyph>
<glyph name="Ucircumflex" format="2">
  <advance width="1555"/>
  <unicode hex="00DB"/>
  <outline>
    <contour>
      <point x="395" y="0" type="line"/>
      <point x="1159" y="0" type="line"/>
      <point x="1396" y="295" type="line"/>
      <point x="1396" y="1460" type="line"/>
      <point x="1061" y="1460" type="line"/>
      <point x="1061" y="396" type="line"/>
      <point x="961" y="271" type="line"/>
      <point x="593" y="271" type="line"/>
      <point x="493" y="396" type="line"/>
      <point x="493" y="1460" type="line"/>
      <point x="158" y="1460" type="line"/>
      <point x="158" y="295" type="line"/>
    </contour>
    <contour>
      <point x="296" y="1620" type="line"/>
      <point x="610" y="1620" type="line"/>
      <point x="810" y="1866" type="line"/>
      <point x="742" y="1866" type="line"/>
      <point x="943" y="1620" type="line"/>
      <point x="1257" y="1620" type="line"/>
      <point x="969" y="1908" type="line"/>
      <point x="583" y="1908" type="line"/>
    </contour>
  </outline>
</glyph>
<glyph name="germandbls" format="2">
  <advance width="1555"/>
  <unicode hex="00DF"/>
  <outline>
    <contour>
      <point x="1111" y="1530" type="line"/>
      <point x="485" y="1530" type="line"/>
      <point x="165" y="1163" type="line"/>
      <point x="165" y="0" type="line"/>
      <point x="500" y="0" type="line"/>
      <point x="500" y="1079" type="line"/>
      <point x="631" y="1249" type="line"/>
      <point x="995" y="1249" type="line"/>
      <point x="1136" y="1119" type="line"/>
      <point x="1136" y="1023" type="line"/>
      <point x="945" y="863" type="line"/>
      <point x="731" y="863" type="line"/>
      <point x="731" y="622" type="line"/>
      <point x="945" y="622" type="line"/>
      <point x="1136" y="480" type="line"/>
      <point x="1136" y="384" type="line"/>
      <point x="965" y="241" type="line"/>
      <point x="731" y="241" type="line"/>
      <point x="731" y="0" type="line"/>
      <point x="1111" y="0" type="line"/>
      <point x="1461" y="280" type="line"/>
      <point x="1461" y="584" type="line"/>
      <point x="1088" y="836" type="line"/>
      <point x="1088" y="688" type="line"/>
      <point x="1411" y="919" type="line"/>
      <point x="1411" y="1223" type="line"/>
    </contour>
  </outline>
</glyph>
<glyph name="ecircumflex" format="2">
  <advance width="1555"/>
  <unicode hex="00EA"/>
  <outline>
    <contour>
      <point x="560" y="0" type="line"/>
      <point x="1326" y="0" type="line"/>
      <point x="1356" y="251" type="line"/>
      <point x="720" y="251" type="line"/>
      <point x="448" y="431" type="line"/>
      <point x="448" y="631" type="line"/>
      <point x="743" y="851" type="line"/>
      <point x="1003" y="851" type="line"/>
      <point x="1161" y="769" type="line"/>
      <point x="1161" y="703" type="line"/>
      <point x="1026" y="630" type="line"/>
      <point x="378" y="630" type="line"/>
      <point x="378" y="440" type="line"/>
      <point x="1205" y="440" type="line"/>
      <point x="1427" y="561" type="line"/>
      <point x="1427" y="843" type="line"/>
      <point x="1106" y="1082" type="line"/>
      <point x="585" y="1082" type="line"/>
      <point x="143" y="713" type="line"/>
      <point x="143" y="369" type="line"/>
    </contour>
    <contour>
      <point x="331" y="1275" type="line"/>
      <point x="625" y="1275" type="line"/>
      <point x="865" y="1571" type="line"/>
      <point x="797" y="1571" type="line"/>
      <point x="1038" y="1275" type="line"/>
      <point x="1332" y="1275" type="line"/>
      <point x="1024" y="1643" type="line"/>
      <point x="638" y="1643" type="line"/>
    </contour>
  </outline>
</glyph>
<glyph name="edieresis" format="2">
  <advance width="1555"/>
  <unicode hex="00EB"/>
  <outline>
    <contour>
      <point x="566" y="0" type="line"/>
      <point x="1332" y="0" type="line"/>
      <point x="1362" y="251" type="line"/>
      <point x="726" y="251" type="line"/>
      <point x="454" y="431" type="line"/>
      <point x="454" y="631" type="line"/>
      <point x="749" y="851" type="line"/>
      <point x="1009" y="851" type="line"/>
      <point x="1167" y="769" type="line"/>
      <point x="1167" y="703" type="line"/>
      <point x="1032" y="630" type="line"/>
      <point x="384" y="630" type="line"/>
      <point x="384" y="440" type="line"/>
      <point x="1211" y="440" type="line"/>
      <point x="1433" y="561" type="line"/>
      <point x="1433" y="843" type="line"/>
      <point x="1112" y="1082" type="line"/>
      <point x="591" y="1082" type="line"/>
      <point x="149" y="713" type="line"/>
      <point x="149" y="369" type="line"/>
    </contour>
    <contour>
      <point x="501" y="1231" type="line"/>
      <point x="714" y="1441" type="line"/>
      <point x="501" y="1650" type="line"/>
      <point x="288" y="1441" type="line"/>
    </contour>
    <contour>
      <point x="1174" y="1231" type="line"/>
      <point x="1387" y="1441" type="line"/>
      <point x="1174" y="1650" type="line"/>
      <point x="961" y="1441" type="line"/>
    </contour>
  </outline>
</glyph>
<glyph name="igrave" format="2">
  <advance width="1555"/>
  <unicode hex="00EC"/>
  <outline>
    <contour>
      <point x="712" y="0" type="line"/>
      <point x="1037" y="0" type="line"/>
      <point x="1037" y="867" type="line"/>
      <point x="852" y="1082" type="line"/>
      <point x="223" y="1082" type="line"/>
      <point x="193" y="781" type="line"/>
      <point x="771" y="781" type="line"/>
      <point x="712" y="836" type="line"/>
    </contour>
    <contour>
      <point x="558" y="1275" type="line"/>
      <point x="837" y="1275" type="line"/>
      <point x="620" y="1643" type="line"/>
      <point x="267" y="1643" type="line"/>
    </contour>
  </outline>
</glyph>
<glyph name="iacute" format="2">
  <advance width="1555"/>
  <unicode hex="00ED"/>
  <outline>
    <contour>
      <point x="691" y="0" type="line"/>
      <point x="1016" y="0" type="line"/>
      <point x="1016" y="867" type="line"/>
      <point x="831" y="1082" type="line"/>
      <point x="202" y="1082" type="line"/>
      <point x="172" y="781" type="line"/>
      <point x="750" y="781" type="line"/>
      <point x="691" y="836" type="line"/>
    </contour>
    <contour>
      <point x="824" y="1275" type="line"/>
      <point x="545" y="1275" type="line"/>
      <point x="762" y="1643" type="line"/>
      <point x="1115" y="1643" type="line"/>
    </contour>
  </outline>
</glyph>
<glyph name="icircumflex" format="2">
  <advance width="1555"/>
  <unicode hex="00EE"/>
  <outline>
    <contour>
      <point x="673" y="0" type="line"/>
      <point x="998" y="0" type="line"/>
      <point x="998" y="867" type="line"/>
      <point x="813" y="1082" type="line"/>
      <point x="184" y="1082" type="line"/>
      <point x="154" y="781" type="line"/>
      <point x="732" y="781" type="line"/>
      <point x="673" y="836" type="line"/>
    </contour>
    <contour>
      <point x="162" y="1275" type="line"/>
      <point x="456" y="1275" type="line"/>
      <point x="696" y="1571" type="line"/>
      <point x="628" y="1571" type="line"/>
      <point x="869" y="1275" type="line"/>
      <point x="1163" y="1275" type="line"/>
      <point x="855" y="1643" type="line"/>
      <point x="469" y="1643" type="line"/>
    </contour>
  </outline>
</glyph>
<glyph name="idieresis" format="2">
  <advance width="1555"/>
  <unicode hex="00EF"/>
  <outline>
    <contour>
      <point x="652" y="0" type="line"/>
      <point x="977" y="0" type="line"/>
      <point x="977" y="867" type="line"/>
      <point x="792" y="1082" type="line"/>
      <point x="163" y="1082" type="line"/>
      <point x="133" y="781" type="line"/>
      <point x="711" y="781" type="line"/>
      <point x="652" y="836" type="line"/>
    </contour>
    <contour>
      <point x="305" y="1231" type="line"/>
      <point x="518" y="1441" type="line"/>
      <point x="305" y="1650" type="line"/>
      <point x="92" y="1441" type="line"/>
    </contour>
    <contour>
      <point x="978" y="1231" type="line"/>
      <point x="1191" y="1441" type="line"/>
      <point x="978" y="1650" type="line"/>
      <point x="765" y="1441" type="line"/>
    </contour>
  </outline>
</glyph>
<glyph name="eth" format="2">
  <advance width="1555"/>
  <unicode hex="00F0"/>
  <outline>
    <contour>
      <point x="409" y="1024" type="line"/>
      <point x="1290" y="1394" type="line"/>
      <point x="1235" y="1530" type="line"/>
      <point x="354" y="1160" type="line"/>
    </contour>
    <contour>
      <point x="1089" y="0" type="line"/>
      <point x="1454" y="307" type="line"/>
      <point x="1454" y="863" type="line"/>
      <point x="819" y="1530" type="line"/>
      <point x="444" y="1530" type="line"/>
      <point x="1159" y="762" type="line"/>
      <point x="1159" y="401" type="line"/>
      <point x="959" y="251" type="line"/>
      <point x="614" y="251" type="line"/>
      <point x="445" y="381" type="line"/>
      <point x="445" y="558" type="line"/>
      <point x="606" y="653" type="line"/>
      <point x="1288" y="653" type="line"/>
      <point x="1288" y="904" type="line"/>
      <point x="525" y="904" type="line"/>
      <point x="130" y="689" type="line"/>
      <point x="130" y="287" type="line"/>
      <point x="494" y="0" type="line"/>
    </contour>
  </outline>
</glyph>
<glyph name="ntilde" format="2">
  <advance width="1555"/>
  <unicode hex="00F1"/>
  <outline>
    <contour>
      <point x="1103" y="0" type="line"/>
      <point x="1428" y="0" type="line"/>
      <point x="1428" y="820" type="line"/>
      <point x="1057" y="1106" type="line"/>
      <point x="310" y="928" type="line"/>
      <point x="310" y="747" type="line"/>
      <point x="933" y="823" type="line"/>
      <point x="1103" y="740" type="line"/>
    </contour>
    <contour>
      <point x="126" y="0" type="line"/>
      <point x="451" y="0" type="line"/>
      <point x="451" y="892" type="line"/>
      <point x="371" y="1082" type="line"/>
      <point x="126" y="1082" type="line"/>
    </contour>
    <contour>
      <point x="748" y="1613" type="line"/>
      <point x="434" y="1613" type="line"/>
      <point x="281" y="1430" type="line"/>
      <point x="281" y="1257" type="line"/>
      <point x="484" y="1257" type="line"/>
      <point x="484" y="1358" type="line"/>
      <point x="554" y="1450" type="line"/>
      <point x="636" y="1450" type="line"/>
      <point x="806" y="1257" type="line"/>
      <point x="1120" y="1257" type="line"/>
      <point x="1273" y="1440" type="line"/>
      <point x="1273" y="1613" type="line"/>
      <point x="1070" y="1613" type="line"/>
      <point x="1070" y="1502" type="line"/>
      <point x="1000" y="1420" type="line"/>
      <point x="918" y="1420" type="line"/>
    </contour>
  </outline>
</glyph>
<glyph name="divide" format="2">
  <advance width="1555"/>
  <unicode hex="00F7"/>
  <outline>
    <contour>
      <point x="779" y="123" type="curve" smooth="yes"/>
      <point x="869" y="123"/>
      <point x="944" y="181"/>
      <point x="944" y="276" type="curve" smooth="yes"/>
      <point x="944" y="371"/>
      <point x="869" y="428"/>
      <point x="779" y="428" type="curve" smooth="yes"/>
      <point x="687" y="428"/>
      <point x="611" y="371"/>
      <point x="611" y="276" type="curve" smooth="yes"/>
      <point x="611" y="181"/>
      <point x="687" y="123"/>
    </contour>
    <contour>
      <point x="779" y="917" type="curve" smooth="yes"/>
      <point x="869" y="917"/>
      <point x="944" y="976"/>
      <point x="944" y="1070" type="curve" smooth="yes"/>
      <point x="944" y="1166"/>
      <point x="869" y="1222"/>
      <point x="779" y="1222" type="curve" smooth="yes"/>
      <point x="687" y="1222"/>
      <point x="611" y="1166"/>
      <point x="611" y="1070" type="curve" smooth="yes"/>
      <point x="611" y="976"/>
      <point x="687" y="917"/>
    </contour>
    <contour>
      <point x="220" y="537" type="line"/>
      <point x="1335" y="537" type="line"/>
      <point x="1335" y="808" type="line"/>
      <point x="220" y="808" type="line"/>
    </contour>
  </outline>
</glyph>
<glyph name="udieresis" format="2">
  <advance width="1555"/>
  <unicode hex="00FC"/>
  <outline>
    <contour>
      <point x="451" y="1082" type="line"/>
      <point x="126" y="1082" type="line"/>
      <point x="126" y="262" type="line"/>
      <point x="497" y="-24" type="line"/>
      <point x="1244" y="154" type="line"/>
      <point x="1244" y="335" type="line"/>
      <point x="621" y="259" type="line"/>
      <point x="451" y="342" type="line"/>
    </contour>
    <contour>
      <point x="1428" y="1082" type="line"/>
      <point x="1103" y="1082" type="line"/>
      <point x="1103" y="190" type="line"/>
      <point x="1183" y="0" type="line"/>
      <point x="1428" y="0" type="line"/>
    </contour>
    <contour>
      <point x="441.305" y="1231" type="line"/>
      <point x="653.506" y="1441" type="line"/>
      <point x="441.305" y="1650" type="line"/>
      <point x="228.131" y="1441" type="line"/>
    </contour>
    <contour>
      <point x="1114.305" y="1231" type="line"/>
      <point x="1326.506" y="1441" type="line"/>
      <point x="1114.305" y="1650" type="line"/>
      <point x="901.131" y="1441" type="line"/>
    </contour>
  </outline>
</glyph>
<glyph name="abreve" format="2">
  <advance width="1555"/>
  <unicode hex="0103"/>
  <outline>
    <contour>
      <point x="1153" y="0" type="line"/>
      <point x="1398" y="0" type="line"/>
      <point x="1398" y="833" type="line"/>
      <point x="1146" y="1082" type="line"/>
      <point x="270" y="1082" type="line"/>
      <point x="240" y="829" type="line"/>
      <point x="970" y="829" type="line"/>
      <point x="1073" y="764" type="line"/>
      <point x="1073" y="165" type="line"/>
    </contour>
    <contour>
      <point x="475" y="-22" type="line"/>
      <point x="1169" y="116" type="line"/>
      <point x="1169" y="297" type="line"/>
      <point x="591" y="211" type="line"/>
      <point x="407" y="341" type="line"/>
      <point x="407" y="385" type="line"/>
      <point x="578" y="453" type="line"/>
      <point x="1169" y="453" type="line"/>
      <point x="1169" y="643" type="line"/>
      <point x="448" y="643" type="line"/>
      <point x="112" y="459" type="line"/>
      <point x="112" y="202" type="line"/>
    </contour>
    <contour>
      <point x="540" y="1275" type="line"/>
      <point x="1005" y="1275" type="line"/>
      <point x="1218" y="1460" type="line"/>
      <point x="1218" y="1643" type="line"/>
      <point x="1015" y="1643" type="line"/>
      <point x="1015" y="1532" type="line"/>
      <point x="915" y="1440" type="line"/>
      <point x="630" y="1440" type="line"/>
      <point x="530" y="1532" type="line"/>
      <point x="530" y="1643" type="line"/>
      <point x="327" y="1643" type="line"/>
      <point x="327" y="1459" type="line"/>
    </contour>
  </outline>
</glyph>
<glyph name="Cacute" format="2">
  <advance width="1555"/>
  <unicode hex="0106"/>
  <outline>
    <contour>
      <point x="568" y="0" type="line"/>
      <point x="1318" y="0" type="line"/>
      <point x="1358" y="301" type="line"/>
      <point x="733" y="301" type="line"/>
      <point x="446" y="645" type="line"/>
      <point x="446" y="815" type="line"/>
      <point x="733" y="1159" type="line"/>
      <point x="1358" y="1159" type="line"/>
      <point x="1318" y="1460" type="line"/>
      <point x="568" y="1460" type="line"/>
      <point x="121" y="932" type="line"/>
      <point x="121" y="528" type="line"/>
    </contour>
    <contour>
      <point x="1019" y="1619" type="line"/>
      <point x="740" y="1619" type="line"/>
      <point x="957" y="1918" type="line"/>
      <point x="1310" y="1918" type="line"/>
    </contour>
  </outline>
</glyph>
<glyph name="Cdotaccent" format="2">
  <advance width="1555"/>
  <unicode hex="010A"/>
  <outline>
    <contour>
      <point x="568" y="0" type="line"/>
      <point x="1318" y="0" type="line"/>
      <point x="1358" y="301" type="line"/>
      <point x="733" y="301" type="line"/>
      <point x="446" y="645" type="line"/>
      <point x="446" y="815" type="line"/>
      <point x="733" y="1159" type="line"/>
      <point x="1358" y="1159" type="line"/>
      <point x="1318" y="1460" type="line"/>
      <point x="568" y="1460" type="line"/>
      <point x="121" y="932" type="line"/>
      <point x="121" y="528" type="line"/>
    </contour>
    <contour>
      <point x="875" y="1629" type="line"/>
      <point x="1050" y="1797" type="line"/>
      <point x="875" y="1964" type="line"/>
      <point x="700" y="1797" type="line"/>
    </contour>
  </outline>
</glyph>
<glyph name="cdotaccent" format="2">
  <advance width="1555"/>
  <unicode hex="010B"/>
  <outline>
    <contour>
      <point x="538" y="0" type="line"/>
      <point x="1373" y="0" type="line"/>
      <point x="1423" y="281" type="line"/>
      <point x="668" y="281" type="line"/>
      <point x="409" y="470" type="line"/>
      <point x="409" y="612" type="line"/>
      <point x="668" y="801" type="line"/>
      <point x="1423" y="801" type="line"/>
      <point x="1373" y="1082" type="line"/>
      <point x="538" y="1082" type="line"/>
      <point x="104" y="705" type="line"/>
      <point x="104" y="378" type="line"/>
    </contour>
    <contour>
      <point x="812" y="1231" type="line"/>
      <point x="1030" y="1441" type="line"/>
      <point x="812" y="1650" type="line"/>
      <point x="593" y="1441" type="line"/>
    </contour>
  </outline>
</glyph>
<glyph name="ccaron" format="2">
  <advance width="1555"/>
  <unicode hex="010D"/>
  <outline>
    <contour>
      <point x="538" y="0" type="line"/>
      <point x="1373" y="0" type="line"/>
      <point x="1423" y="281" type="line"/>
      <point x="668" y="281" type="line"/>
      <point x="409" y="470" type="line"/>
      <point x="409" y="612" type="line"/>
      <point x="668" y="801" type="line"/>
      <point x="1423" y="801" type="line"/>
      <point x="1373" y="1082" type="line"/>
      <point x="538" y="1082" type="line"/>
      <point x="104" y="705" type="line"/>
      <point x="104" y="378" type="line"/>
    </contour>
    <contour>
      <point x="311" y="1643" type="line"/>
      <point x="605" y="1643" type="line"/>
      <point x="845" y="1347" type="line"/>
      <point x="777" y="1347" type="line"/>
      <point x="1018" y="1643" type="line"/>
      <point x="1312" y="1643" type="line"/>
      <point x="1004" y="1275" type="line"/>
      <point x="618" y="1275" type="line"/>
    </contour>
  </outline>
</glyph>
<glyph name="Dcaron" format="2">
  <advance width="1555"/>
  <unicode hex="010E"/>
  <outline>
    <contour>
      <point x="282" y="0" type="line"/>
      <point x="1009" y="0" type="line"/>
      <point x="1449" y="539" type="line"/>
      <point x="1449" y="943" type="line"/>
      <point x="1009" y="1460" type="line"/>
      <point x="282" y="1460" type="line"/>
      <point x="252" y="1159" type="line"/>
      <point x="842" y="1159" type="line"/>
      <point x="1124" y="821" type="line"/>
      <point x="1124" y="662" type="line"/>
      <point x="842" y="301" type="line"/>
      <point x="252" y="301" type="line"/>
    </contour>
    <contour>
      <point x="146" y="0" type="line"/>
      <point x="475" y="0" type="line"/>
      <point x="475" y="1460" type="line"/>
      <point x="146" y="1460" type="line"/>
    </contour>
    <contour>
      <point x="185" y="1908" type="line"/>
      <point x="499" y="1908" type="line"/>
      <point x="699" y="1662" type="line"/>
      <point x="631" y="1662" type="line"/>
      <point x="832" y="1908" type="line"/>
      <point x="1146" y="1908" type="line"/>
      <point x="858" y="1620" type="line"/>
      <point x="472" y="1620" type="line"/>
    </contour>
  </outline>
</glyph>
<glyph name="dcroat" format="2">
  <advance width="1555"/>
  <unicode hex="0111"/>
  <outline>
    <contour>
      <point x="565" y="1191" type="line"/>
      <point x="1525" y="1191" type="line"/>
      <point x="1525" y="1350" type="line"/>
      <point x="1325" y="1350" type="line"/>
      <point x="1296" y="1350" type="line"/>
      <point x="565" y="1350" type="line"/>
    </contour>
    <contour>
      <point x="1215" y="0" type="line"/>
      <point x="1432" y="0" type="line"/>
      <point x="1432" y="1530" type="line"/>
      <point x="1102" y="1470" type="line"/>
      <point x="1102" y="842" type="line"/>
      <point x="1117" y="782" type="line"/>
      <point x="1117" y="168" type="line"/>
    </contour>
    <contour>
      <point x="1250" y="980" type="line"/>
      <point x="580" y="980" type="line"/>
      <point x="108" y="637" type="line"/>
      <point x="108" y="305" type="line"/>
      <point x="550" y="-26" type="line"/>
      <point x="1250" y="152" type="line"/>
      <point x="1250" y="351" type="line"/>
      <point x="647" y="275" type="line"/>
      <point x="436" y="389" type="line"/>
      <point x="436" y="526" type="line"/>
      <point x="719" y="717" type="line"/>
      <point x="1250" y="717" type="line"/>
    </contour>
  </outline>
</glyph>
<glyph name="Eogonek" format="2">
  <advance width="1555"/>
  <unicode hex="0118"/>
  <outline>
    <contour>
      <point x="534" y="0" type="line"/>
      <point x="534" y="1460" type="line"/>
      <point x="205" y="1460" type="line"/>
      <point x="205" y="0" type="line"/>
    </contour>
    <contour>
      <point x="1342" y="271" type="line"/>
      <point x="366" y="271" type="line"/>
      <point x="366" y="0" type="line"/>
      <point x="1312" y="0" type="line"/>
    </contour>
    <contour>
      <point x="1153" y="866" type="line"/>
      <point x="396" y="866" type="line"/>
      <point x="396" y="609" type="line"/>
      <point x="1153" y="609" type="line"/>
    </contour>
    <contour>
      <point x="1312" y="1189" type="line"/>
      <point x="1282" y="1460" type="line"/>
      <point x="366" y="1460" type="line"/>
      <point x="366" y="1189" type="line"/>
    </contour>
    <contour>
      <point x="871" y="-146" type="line"/>
      <point x="871" y="-320" type="line"/>
      <point x="1079" y="-443" type="line"/>
      <point x="1293" y="-443" type="line"/>
      <point x="1293" y="-240" type="line"/>
      <point x="1171" y="-240" type="line"/>
      <point x="1119" y="-210" type="line"/>
      <point x="1119" y="-173" type="line"/>
      <point x="1312" y="0" type="line"/>
      <point x="1195" y="44" type="line"/>
    </contour>
  </outline>
</glyph>
<glyph name="Gdotaccent" format="2">
  <advance width="1555"/>
  <unicode hex="0120"/>
  <outline>
    <contour>
      <point x="528" y="0" type="line"/>
      <point x="1111" y="0" type="line"/>
      <point x="1430" y="341" type="line"/>
      <point x="1430" y="829" type="line"/>
      <point x="794" y="829" type="line"/>
      <point x="794" y="582" type="line"/>
      <point x="1232" y="582" type="line"/>
      <point x="1160" y="669" type="line"/>
      <point x="1160" y="471" type="line"/>
      <point x="991" y="301" type="line"/>
      <point x="698" y="301" type="line"/>
      <point x="428" y="642" type="line"/>
      <point x="428" y="818" type="line"/>
      <point x="712" y="1159" type="line"/>
      <point x="1360" y="1159" type="line"/>
      <point x="1330" y="1460" type="line"/>
      <point x="542" y="1460" type="line"/>
      <point x="103" y="932" type="line"/>
      <point x="103" y="528" type="line"/>
    </contour>
    <contour>
      <point x="867" y="1629" type="line"/>
      <point x="1042" y="1797" type="line"/>
      <point x="867" y="1964" type="line"/>
      <point x="692" y="1797" type="line"/>
    </contour>
  </outline>
</glyph>
<glyph name="Gcommaaccent" format="2">
  <advance width="1555"/>
  <unicode hex="0122"/>
  <outline>
    <contour>
      <point x="528" y="0" type="line"/>
      <point x="1111" y="0" type="line"/>
      <point x="1430" y="341" type="line"/>
      <point x="1430" y="829" type="line"/>
      <point x="794" y="829" type="line"/>
      <point x="794" y="582" type="line"/>
      <point x="1232" y="582" type="line"/>
      <point x="1160" y="669" type="line"/>
      <point x="1160" y="471" type="line"/>
      <point x="991" y="301" type="line"/>
      <point x="698" y="301" type="line"/>
      <point x="428" y="642" type="line"/>
      <point x="428" y="818" type="line"/>
      <point x="712" y="1159" type="line"/>
      <point x="1360" y="1159" type="line"/>
      <point x="1330" y="1460" type="line"/>
      <point x="542" y="1460" type="line"/>
      <point x="103" y="932" type="line"/>
      <point x="103" y="528" type="line"/>
    </contour>
    <contour>
      <point x="616" y="-494" type="line"/>
      <point x="857" y="-494" type="line"/>
      <point x="857" y="-418" type="line"/>
      <point x="616" y="-721" type="line"/>
      <point x="741" y="-786" type="line"/>
      <point x="959" y="-504" type="line"/>
      <point x="959" y="-151" type="line"/>
      <point x="616" y="-151" type="line"/>
    </contour>
  </outline>
</glyph>
<glyph name="Hcircumflex" format="2">
  <advance width="1555"/>
  <unicode hex="0124"/>
  <outline>
    <contour>
      <point x="1059" y="0" type="line"/>
      <point x="1396" y="0" type="line"/>
      <point x="1396" y="1460" type="line"/>
      <point x="1059" y="1460" type="line"/>
    </contour>
    <contour>
      <point x="158" y="0" type="line"/>
      <point x="495" y="0" type="line"/>
      <point x="495" y="1460" type="line"/>
      <point x="158" y="1460" type="line"/>
    </contour>
    <contour>
      <point x="295" y="602" type="line"/>
      <point x="1255" y="602" type="line"/>
      <point x="1255" y="873" type="line"/>
      <point x="295" y="873" type="line"/>
    </contour>
    <contour>
      <point x="296" y="1620" type="line"/>
      <point x="610" y="1620" type="line"/>
      <point x="810" y="1866" type="line"/>
      <point x="742" y="1866" type="line"/>
      <point x="943" y="1620" type="line"/>
      <point x="1257" y="1620" type="line"/>
      <point x="969" y="1908" type="line"/>
      <point x="583" y="1908" type="line"/>
    </contour>
  </outline>
</glyph>
<glyph name="Hbar" format="2">
  <advance width="1555"/>
  <unicode hex="0126"/>
  <outline>
    <contour>
      <point x="40" y="1082" type="line"/>
      <point x="1515" y="1082" type="line"/>
      <point x="1515" y="1283" type="line"/>
      <point x="40" y="1283" type="line"/>
    </contour>
    <contour>
      <point x="1060" y="0" type="line"/>
      <point x="1397" y="0" type="line"/>
      <point x="1397" y="1460" type="line"/>
      <point x="1060" y="1460" type="line"/>
    </contour>
    <contour>
      <point x="159" y="0" type="line"/>
      <point x="496" y="0" type="line"/>
      <point x="496" y="1460" type="line"/>
      <point x="159" y="1460" type="line"/>
    </contour>
    <contour>
      <point x="296" y="602" type="line"/>
      <point x="1256" y="602" type="line"/>
      <point x="1256" y="873" type="line"/>
      <point x="296" y="873" type="line"/>
    </contour>
  </outline>
</glyph>
<glyph name="imacron" format="2">
  <advance width="1555"/>
  <unicode hex="012B"/>
  <outline>
    <contour>
      <point x="686" y="0" type="line"/>
      <point x="1011" y="0" type="line"/>
      <point x="1011" y="867" type="line"/>
      <point x="826" y="1082" type="line"/>
      <point x="197" y="1082" type="line"/>
      <point x="167" y="781" type="line"/>
      <point x="745" y="781" type="line"/>
      <point x="686" y="836" type="line"/>
    </contour>
    <contour>
      <point x="245" y="1299" type="line"/>
      <point x="1106" y="1299" type="line"/>
      <point x="1106" y="1492" type="line"/>
      <point x="245" y="1492" type="line"/>
    </contour>
  </outline>
</glyph>
<glyph name="ibreve" format="2">
  <advance width="1555"/>
  <unicode hex="012D"/>
  <outline>
    <contour>
      <point x="682" y="0" type="line"/>
      <point x="1007" y="0" type="line"/>
      <point x="1007" y="867" type="line"/>
      <point x="822" y="1082" type="line"/>
      <point x="193" y="1082" type="line"/>
      <point x="163" y="781" type="line"/>
      <point x="741" y="781" type="line"/>
      <point x="682" y="836" type="line"/>
    </contour>
    <contour>
      <point x="439" y="1275" type="line"/>
      <point x="904" y="1275" type="line"/>
      <point x="1117" y="1460" type="line"/>
      <point x="1117" y="1643" type="line"/>
      <point x="914" y="1643" type="line"/>
      <point x="914" y="1532" type="line"/>
      <point x="814" y="1440" type="line"/>
      <point x="529" y="1440" type="line"/>
      <point x="429" y="1532" type="line"/>
      <point x="429" y="1643" type="line"/>
      <point x="226" y="1643" type="line"/>
      <point x="226" y="1459" type="line"/>
    </contour>
  </outline>
</glyph>
<glyph name="Idotaccent" format="2">
  <advance width="1555"/>
  <unicode hex="0130"/>
  <outline>
    <contour>
      <point x="612" y="0" type="line"/>
      <point x="942" y="0" type="line"/>
      <point x="942" y="1460" type="line"/>
      <point x="612" y="1460" type="line"/>
    </contour>
    <contour>
      <point x="220" y="0" type="line"/>
      <point x="1334" y="0" type="line"/>
      <point x="1354" y="271" type="line"/>
      <point x="200" y="271" type="line"/>
    </contour>
    <contour>
      <point x="200" y="1189" type="line"/>
      <point x="1354" y="1189" type="line"/>
      <point x="1334" y="1460" type="line"/>
      <point x="220" y="1460" type="line"/>
    </contour>
    <contour>
      <point x="777.4" y="1628.8" type="line"/>
      <point x="951.8" y="1796.8" type="line"/>
      <point x="777.4" y="1964" type="line"/>
      <point x="602.2" y="1796.8" type="line"/>
    </contour>
  </outline>
</glyph>
<glyph name="Lcaron" format="2">
  <advance width="1555"/>
  <unicode hex="013D"/>
  <outline>
    <contour>
      <point x="256" y="0" type="line"/>
      <point x="585" y="0" type="line"/>
      <point x="585" y="1460" type="line"/>
      <point x="256" y="1460" type="line"/>
    </contour>
    <contour>
      <point x="416" y="0" type="line"/>
      <point x="1335" y="0" type="line"/>
      <point x="1365" y="271" type="line"/>
      <point x="416" y="271" type="line"/>
    </contour>
    <contour>
      <point x="840" y="1242" type="line"/>
      <point x="1107" y="1242" type="line"/>
      <point x="1148" y="1638" type="line"/>
      <point x="857" y="1638" type="line"/>
    </contour>
  </outline>
</glyph>
<glyph name="Lslash" format="2">
  <advance width="1555"/>
  <unicode hex="0141"/>
  <outline>
    <contour>
      <point x="0" y="517" type="line"/>
      <point x="1017" y="974" type="line"/>
      <point x="1017" y="1246" type="line"/>
      <point x="0" y="791" type="line"/>
    </contour>
    <contour>
      <point x="200" y="0" type="line"/>
      <point x="529" y="0" type="line"/>
      <point x="529" y="1460" type="line"/>
      <point x="200" y="1460" type="line"/>
    </contour>
    <contour>
      <point x="360" y="0" type="line"/>
      <point x="1279" y="0" type="line"/>
      <point x="1309" y="271" type="line"/>
      <point x="360" y="271" type="line"/>
    </contour>
  </outline>
</glyph>
<glyph name="Nacute" format="2">
  <advance width="1555"/>
  <unicode hex="0143"/>
  <outline>
    <contour>
      <point x="158" y="0" type="line"/>
      <point x="465" y="0" type="line"/>
      <point x="465" y="830" type="line"/>
      <point x="477" y="830" type="line"/>
      <point x="1194" y="0" type="line"/>
      <point x="1396" y="0" type="line"/>
      <point x="1396" y="1460" type="line"/>
      <point x="1089" y="1460" type="line"/>
      <point x="1089" y="591" type="line"/>
      <point x="1077" y="591" type="line"/>
      <point x="349" y="1460" type="line"/>
      <point x="158" y="1460" type="line"/>
    </contour>
    <contour>
      <point x="920" y="1619" type="line"/>
      <point x="641" y="1619" type="line"/>
      <point x="858" y="1918" type="line"/>
      <point x="1211" y="1918" type="line"/>
    </contour>
  </outline>
</glyph>
<glyph name="Ncommaaccent" format="2">
  <advance width="1555"/>
  <unicode hex="0145"/>
  <outline>
    <contour>
      <point x="158" y="0" type="line"/>
      <point x="465" y="0" type="line"/>
      <point x="465" y="830" type="line"/>
      <point x="477" y="830" type="line"/>
      <point x="1194" y="0" type="line"/>
      <point x="1396" y="0" type="line"/>
      <point x="1396" y="1460" type="line"/>
      <point x="1089" y="1460" type="line"/>
      <point x="1089" y="591" type="line"/>
      <point x="1077" y="591" type="line"/>
      <point x="349" y="1460" type="line"/>
      <point x="158" y="1460" type="line"/>
    </contour>
    <contour>
      <point x="605" y="-494" type="line"/>
      <point x="846" y="-494" type="line"/>
      <point x="846" y="-418" type="line"/>
      <point x="605" y="-721" type="line"/>
      <point x="730" y="-786" type="line"/>
      <point x="948" y="-504" type="line"/>
      <point x="948" y="-151" type="line"/>
      <point x="605" y="-151" type="line"/>
    </contour>
  </outline>
</glyph>
<glyph name="ncommaaccent" format="2">
  <advance width="1555"/>
  <unicode hex="0146"/>
  <outline>
    <contour>
      <point x="1103" y="0" type="line"/>
      <point x="1428" y="0" type="line"/>
      <point x="1428" y="820" type="line"/>
      <point x="1057" y="1106" type="line"/>
      <point x="310" y="928" type="line"/>
      <point x="310" y="747" type="line"/>
      <point x="933" y="823" type="line"/>
      <point x="1103" y="740" type="line"/>
    </contour>
    <contour>
      <point x="126" y="0" type="line"/>
      <point x="451" y="0" type="line"/>
      <point x="451" y="892" type="line"/>
      <point x="371" y="1082" type="line"/>
      <point x="126" y="1082" type="line"/>
    </contour>
    <contour>
      <point x="605" y="-494" type="line"/>
      <point x="846" y="-494" type="line"/>
      <point x="846" y="-418" type="line"/>
      <point x="605" y="-721" type="line"/>
      <point x="730" y="-786" type="line"/>
      <point x="948" y="-504" type="line"/>
      <point x="948" y="-151" type="line"/>
      <point x="605" y="-151" type="line"/>
    </contour>
  </outline>
</glyph>
<glyph name="Ncaron" format="2">
  <advance width="1555"/>
  <unicode hex="0147"/>
  <outline>
    <contour>
      <point x="158" y="0" type="line"/>
      <point x="465" y="0" type="line"/>
      <point x="465" y="830" type="line"/>
      <point x="477" y="830" type="line"/>
      <point x="1194" y="0" type="line"/>
      <point x="1396" y="0" type="line"/>
      <point x="1396" y="1460" type="line"/>
      <point x="1089" y="1460" type="line"/>
      <point x="1089" y="591" type="line"/>
      <point x="1077" y="591" type="line"/>
      <point x="349" y="1460" type="line"/>
      <point x="158" y="1460" type="line"/>
    </contour>
    <contour>
      <point x="296" y="1908" type="line"/>
      <point x="610" y="1908" type="line"/>
      <point x="810" y="1662" type="line"/>
      <point x="742" y="1662" type="line"/>
      <point x="943" y="1908" type="line"/>
      <point x="1257" y="1908" type="line"/>
      <point x="969" y="1620" type="line"/>
      <point x="583" y="1620" type="line"/>
    </contour>
  </outline>
</glyph>
<glyph name="Omacron" format="2">
  <advance width="1555"/>
  <unicode hex="014C"/>
  <outline>
    <contour>
      <point x="576" y="0" type="line"/>
      <point x="981" y="0" type="line"/>
      <point x="1462" y="528" type="line"/>
      <point x="1462" y="932" type="line"/>
      <point x="964" y="1460" type="line"/>
      <point x="576" y="1460" type="line"/>
      <point x="93" y="932" type="line"/>
      <point x="93" y="528" type="line"/>
    </contour>
    <contour>
      <point x="729" y="311" type="line"/>
      <point x="418" y="653" type="line"/>
      <point x="418" y="807" type="line"/>
      <point x="729" y="1149" type="line"/>
      <point x="827" y="1149" type="line"/>
      <point x="1137" y="807" type="line"/>
      <point x="1137" y="653" type="line"/>
      <point x="827" y="311" type="line"/>
    </contour>
    <contour>
      <point x="347" y="1691" type="line"/>
      <point x="1208" y="1691" type="line"/>
      <point x="1208" y="1884" type="line"/>
      <point x="347" y="1884" type="line"/>
    </contour>
  </outline>
</glyph>
<glyph name="obreve" format="2">
  <advance width="1555"/>
  <unicode hex="014F"/>
  <outline>
    <contour>
      <point x="580" y="0" type="line"/>
      <point x="975" y="0" type="line"/>
      <point x="1445" y="376" type="line"/>
      <point x="1445" y="706" type="line"/>
      <point x="981" y="1082" type="line"/>
      <point x="580" y="1082" type="line"/>
      <point x="110" y="706" type="line"/>
      <point x="110" y="376" type="line"/>
    </contour>
    <contour>
      <point x="702" y="281" type="line"/>
      <point x="415" y="477" type="line"/>
      <point x="415" y="605" type="line"/>
      <point x="702" y="801" type="line"/>
      <point x="853" y="801" type="line"/>
      <point x="1140" y="605" type="line"/>
      <point x="1140" y="477" type="line"/>
      <point x="853" y="281" type="line"/>
    </contour>
    <contour>
      <point x="545" y="1275" type="line"/>
      <point x="1010" y="1275" type="line"/>
      <point x="1223" y="1460" type="line"/>
      <point x="1223" y="1643" type="line"/>
      <point x="1020" y="1643" type="line"/>
      <point x="1020" y="1532" type="line"/>
      <point x="920" y="1440" type="line"/>
      <point x="635" y="1440" type="line"/>
      <point x="535" y="1532" type="line"/>
      <point x="535" y="1643" type="line"/>
      <point x="332" y="1643" type="line"/>
      <point x="332" y="1459" type="line"/>
    </contour>
  </outline>
</glyph>
<glyph name="ohungarumlaut" format="2">
  <advance width="1555"/>
  <unicode hex="0151"/>
  <outline>
    <contour>
      <point x="580" y="0" type="line"/>
      <point x="975" y="0" type="line"/>
      <point x="1445" y="376" type="line"/>
      <point x="1445" y="706" type="line"/>
      <point x="981" y="1082" type="line"/>
      <point x="580" y="1082" type="line"/>
      <point x="110" y="706" type="line"/>
      <point x="110" y="376" type="line"/>
    </contour>
    <contour>
      <point x="702" y="281" type="line"/>
      <point x="415" y="477" type="line"/>
      <point x="415" y="605" type="line"/>
      <point x="702" y="801" type="line"/>
      <point x="853" y="801" type="line"/>
      <point x="1140" y="605" type="line"/>
      <point x="1140" y="477" type="line"/>
      <point x="853" y="281" type="line"/>
    </contour>
    <contour>
      <point x="382" y="1275" type="line"/>
      <point x="634" y="1275" type="line"/>
      <point x="842" y="1643" type="line"/>
      <point x="547" y="1643" type="line"/>
    </contour>
    <contour>
      <point x="907" y="1275" type="line"/>
      <point x="1157" y="1275" type="line"/>
      <point x="1366" y="1643" type="line"/>
      <point x="1071" y="1643" type="line"/>
    </contour>
  </outline>
</glyph>
<glyph name="oe" format="2">
  <advance width="1555"/>
  <unicode hex="0153"/>
  <outline>
    <contour>
      <point x="935" y="1082" type="line"/>
      <point x="676" y="722" type="line"/>
      <point x="676" y="218" type="line"/>
      <point x="955" y="0" type="line"/>
      <point x="1398" y="0" type="line"/>
      <point x="1428" y="221" type="line"/>
      <point x="1045" y="221" type="line"/>
      <point x="895" y="343" type="line"/>
      <point x="895" y="659" type="line"/>
      <point x="1035" y="851" type="line"/>
      <point x="1208" y="851" type="line"/>
      <point x="1264" y="813" type="line"/>
      <point x="1264" y="697" type="line"/>
      <point x="1204" y="643" type="line"/>
      <point x="855" y="643" type="line"/>
      <point x="855" y="453" type="line"/>
      <point x="1329" y="453" type="line"/>
      <point x="1469" y="569" type="line"/>
      <point x="1469" y="921" type="line"/>
      <point x="1255" y="1082" type="line"/>
    </contour>
    <contour>
      <point x="351" y="0" type="line"/>
      <point x="627" y="0" type="line"/>
      <point x="872" y="339" type="line"/>
      <point x="872" y="743" type="line"/>
      <point x="627" y="1082" type="line"/>
      <point x="351" y="1082" type="line"/>
      <point x="86" y="713" type="line"/>
      <point x="86" y="369" type="line"/>
    </contour>
    <contour>
      <point x="441" y="281" type="line"/>
      <point x="331" y="453" type="line"/>
      <point x="331" y="629" type="line"/>
      <point x="441" y="801" type="line"/>
      <point x="577" y="801" type="line"/>
      <point x="676" y="629" type="line"/>
      <point x="676" y="453" type="line"/>
      <point x="577" y="281" type="line"/>
    </contour>
  </outline>
</glyph>
<glyph name="Scircumflex" format="2">
  <advance width="1555"/>
  <unicode hex="015C"/>
  <outline>
    <contour>
      <point x="224" y="0" type="line"/>
      <point x="1065" y="0" type="line"/>
      <point x="1345" y="311" type="line"/>
      <point x="1345" y="541" type="line"/>
      <point x="577" y="1011" type="line"/>
      <point x="577" y="1075" type="line"/>
      <point x="652" y="1159" type="line"/>
      <point x="1335" y="1159" type="line"/>
      <point x="1305" y="1460" type="line"/>
      <point x="484" y="1460" type="line"/>
      <point x="204" y="1149" type="line"/>
      <point x="204" y="919" type="line"/>
      <point x="973" y="449" type="line"/>
      <point x="973" y="385" type="line"/>
      <point x="898" y="301" type="line"/>
      <point x="194" y="301" type="line"/>
    </contour>
    <contour>
      <point x="295" y="1620" type="line"/>
      <point x="609" y="1620" type="line"/>
      <point x="809" y="1866" type="line"/>
      <point x="741" y="1866" type="line"/>
      <point x="942" y="1620" type="line"/>
      <point x="1256" y="1620" type="line"/>
      <point x="968" y="1908" type="line"/>
      <point x="582" y="1908" type="line"/>
    </contour>
  </outline>
</glyph>
<glyph name="scircumflex" format="2">
  <advance width="1555"/>
  <unicode hex="015D"/>
  <outline>
    <contour>
      <point x="187" y="0" type="line"/>
      <point x="1180" y="0" type="line"/>
      <point x="1373" y="236" type="line"/>
      <point x="1373" y="431" type="line"/>
      <point x="532" y="779" type="line"/>
      <point x="532" y="826" type="line"/>
      <point x="583" y="846" type="line"/>
      <point x="1391" y="846" type="line"/>
      <point x="1361" y="1082" type="line"/>
      <point x="375" y="1082" type="line"/>
      <point x="182" y="846" type="line"/>
      <point x="182" y="660" type="line"/>
      <point x="1027" y="312" type="line"/>
      <point x="1027" y="257" type="line"/>
      <point x="976" y="236" type="line"/>
      <point x="157" y="236" type="line"/>
    </contour>
    <contour>
      <point x="289" y="1275" type="line"/>
      <point x="583" y="1275" type="line"/>
      <point x="823" y="1571" type="line"/>
      <point x="755" y="1571" type="line"/>
      <point x="996" y="1275" type="line"/>
      <point x="1290" y="1275" type="line"/>
      <point x="982" y="1643" type="line"/>
      <point x="596" y="1643" type="line"/>
    </contour>
  </outline>
</glyph>
<glyph name="tcedilla" format="2">
  <advance width="1555"/>
  <unicode hex="0163"/>
  <outline>
    <contour>
      <point x="687" y="-1" type="line"/>
      <point x="1320" y="-1" type="line"/>
      <point x="1320" y="280" type="line"/>
      <point x="857" y="280" type="line"/>
      <point x="737" y="432" type="line"/>
      <point x="737" y="1341" type="line"/>
      <point x="412" y="1281" type="line"/>
      <point x="412" y="318" type="line"/>
    </contour>
    <contour>
      <point x="112" y="695" type="line"/>
      <point x="1320" y="695" type="line"/>
      <point x="1320" y="953" type="line"/>
      <point x="112" y="953" type="line"/>
    </contour>
    <contour>
      <point x="763" y="-687" type="line"/>
      <point x="957" y="-687" type="line"/>
      <point x="1199" y="-534" type="line"/>
      <point x="1199" y="-270" type="line"/>
      <point x="957" y="-139" type="line"/>
      <point x="928" y="-139" type="line"/>
      <point x="983" y="-200" type="line"/>
      <point x="983" y="48" type="line"/>
      <point x="803" y="48" type="line"/>
      <point x="803" y="-305" type="line"/>
      <point x="889" y="-305" type="line"/>
      <point x="1016" y="-370" type="line"/>
      <point x="1016" y="-434" type="line"/>
      <point x="889" y="-499" type="line"/>
      <point x="763" y="-499" type="line"/>
    </contour>
  </outline>
</glyph>
<glyph name="Tcaron" format="2">
  <advance width="1555"/>
  <unicode hex="0164"/>
  <outline>
    <contour>
      <point x="615" y="0" type="line"/>
      <point x="945" y="0" type="line"/>
      <point x="945" y="1460" type="line"/>
      <point x="615" y="1460" type="line"/>
    </contour>
    <contour>
      <point x="153" y="1189" type="line"/>
      <point x="1399" y="1189" type="line"/>
      <point x="1379" y="1460" type="line"/>
      <point x="173" y="1460" type="line"/>
    </contour>
    <contour>
      <point x="297" y="1908" type="line"/>
      <point x="611" y="1908" type="line"/>
      <point x="811" y="1662" type="line"/>
      <point x="743" y="1662" type="line"/>
      <point x="944" y="1908" type="line"/>
      <point x="1258" y="1908" type="line"/>
      <point x="970" y="1620" type="line"/>
      <point x="584" y="1620" type="line"/>
    </contour>
  </outline>
</glyph>
<glyph name="ubreve" format="2">
  <advance width="1555"/>
  <unicode hex="016D"/>
  <outline>
    <contour>
      <point x="451" y="1082" type="line"/>
      <point x="126" y="1082" type="line"/>
      <point x="126" y="262" type="line"/>
      <point x="497" y="-24" type="line"/>
      <point x="1244" y="154" type="line"/>
      <point x="1244" y="335" type="line"/>
      <point x="621" y="259" type="line"/>
      <point x="451" y="342" type="line"/>
    </contour>
    <contour>
      <point x="1428" y="1082" type="line"/>
      <point x="1103" y="1082" type="line"/>
      <point x="1103" y="190" type="line"/>
      <point x="1183" y="0" type="line"/>
      <point x="1428" y="0" type="line"/>
    </contour>
    <contour>
      <point x="545" y="1275" type="line"/>
      <point x="1010" y="1275" type="line"/>
      <point x="1223" y="1460" type="line"/>
      <point x="1223" y="1643" type="line"/>
      <point x="1020" y="1643" type="line"/>
      <point x="1020" y="1532" type="line"/>
      <point x="920" y="1440" type="line"/>
      <point x="635" y="1440" type="line"/>
      <point x="535" y="1532" type="line"/>
      <point x="535" y="1643" type="line"/>
      <point x="332" y="1643" type="line"/>
      <point x="332" y="1459" type="line"/>
    </contour>
  </outline>
</glyph>
<glyph name="uhungarumlaut" format="2">
  <advance width="1555"/>
  <unicode hex="0171"/>
  <outline>
    <contour>
      <point x="451" y="1082" type="line"/>
      <point x="126" y="1082" type="line"/>
      <point x="126" y="262" type="line"/>
      <point x="497" y="-24" type="line"/>
      <point x="1244" y="154" type="line"/>
      <point x="1244" y="335" type="line"/>
      <point x="621" y="259" type="line"/>
      <point x="451" y="342" type="line"/>
    </contour>
    <contour>
      <point x="1428" y="1082" type="line"/>
      <point x="1103" y="1082" type="line"/>
      <point x="1103" y="190" type="line"/>
      <point x="1183" y="0" type="line"/>
      <point x="1428" y="0" type="line"/>
    </contour>
    <contour>
      <point x="382" y="1275" type="line"/>
      <point x="634" y="1275" type="line"/>
      <point x="842" y="1643" type="line"/>
      <point x="547" y="1643" type="line"/>
    </contour>
    <contour>
      <point x="907" y="1275" type="line"/>
      <point x="1157" y="1275" type="line"/>
      <point x="1366" y="1643" type="line"/>
      <point x="1071" y="1643" type="line"/>
    </contour>
  </outline>
</glyph>
<glyph name="uogonek" format="2">
  <advance width="1555"/>
  <unicode hex="0173"/>
  <outline>
    <contour>
      <point x="451" y="1082" type="line"/>
      <point x="126" y="1082" type="line"/>
      <point x="126" y="262" type="line"/>
      <point x="497" y="-24" type="line"/>
      <point x="1244" y="154" type="line"/>
      <point x="1244" y="335" type="line"/>
      <point x="621" y="259" type="line"/>
      <point x="451" y="342" type="line"/>
    </contour>
    <contour>
      <point x="1428" y="1082" type="line"/>
      <point x="1103" y="1082" type="line"/>
      <point x="1103" y="190" type="line"/>
      <point x="1183" y="0" type="line"/>
      <point x="1428" y="0" type="line"/>
    </contour>
    <contour>
      <point x="987" y="-146" type="line"/>
      <point x="987" y="-320" type="line"/>
      <point x="1195" y="-443" type="line"/>
      <point x="1409" y="-443" type="line"/>
      <point x="1409" y="-240" type="line"/>
      <point x="1287" y="-240" type="line"/>
      <point x="1235" y="-210" type="line"/>
      <point x="1235" y="-173" type="line"/>
      <point x="1428" y="0" type="line"/>
      <point x="1311" y="44" type="line"/>
    </contour>
  </outline>
</glyph>
<glyph name="wcircumflex" format="2">
  <advance width="1555"/>
  <unicode hex="0175"/>
  <outline>
    <contour>
      <point x="432" y="0" type="line"/>
      <point x="661" y="0" type="line"/>
      <point x="818" y="502" type="line"/>
      <point x="738" y="502" type="line"/>
      <point x="895" y="0" type="line"/>
      <point x="1124" y="0" type="line"/>
      <point x="1350" y="609" type="line"/>
      <point x="1350" y="1082" type="line"/>
      <point x="1084" y="1082" type="line"/>
      <point x="1084" y="663" type="line"/>
      <point x="951" y="192" type="line"/>
      <point x="1002" y="192" type="line"/>
      <point x="866" y="663" type="line"/>
      <point x="866" y="806" type="line"/>
      <point x="690" y="806" type="line"/>
      <point x="690" y="663" type="line"/>
      <point x="557" y="193" type="line"/>
      <point x="608" y="191" type="line"/>
      <point x="472" y="663" type="line"/>
      <point x="472" y="1082" type="line"/>
      <point x="206" y="1082" type="line"/>
      <point x="206" y="609" type="line"/>
    </contour>
    <contour>
      <point x="277" y="1275" type="line"/>
      <point x="571" y="1275" type="line"/>
      <point x="811" y="1571" type="line"/>
      <point x="743" y="1571" type="line"/>
      <point x="984" y="1275" type="line"/>
      <point x="1278" y="1275" type="line"/>
      <point x="970" y="1643" type="line"/>
      <point x="584" y="1643" type="line"/>
    </contour>
  </outline>
</glyph>
<glyph name="oogonek" format="2">
  <advance width="1555"/>
  <unicode hex="01EB"/>
  <outline>
    <contour>
      <point x="580" y="0" type="line"/>
      <point x="975" y="0" type="line"/>
      <point x="1445" y="376" type="line"/>
      <point x="1445" y="706" type="line"/>
      <point x="981" y="1082" type="line"/>
      <point x="580" y="1082" type="line"/>
      <point x="110" y="706" type="line"/>
      <point x="110" y="376" type="line"/>
    </contour>
    <contour>
      <point x="702" y="281" type="line"/>
      <point x="415" y="477" type="line"/>
      <point x="415" y="605" type="line"/>
      <point x="702" y="801" type="line"/>
      <point x="853" y="801" type="line"/>
      <point x="1140" y="605" type="line"/>
      <point x="1140" y="477" type="line"/>
      <point x="853" y="281" type="line"/>
    </contour>
    <contour>
      <point x="534" y="-146" type="line"/>
      <point x="534" y="-320" type="line"/>
      <point x="742" y="-443" type="line"/>
      <point x="956" y="-443" type="line"/>
      <point x="956" y="-240" type="line"/>
      <point x="834" y="-240" type="line"/>
      <point x="782" y="-210" type="line"/>
      <point x="782" y="-173" type="line"/>
      <point x="975" y="0" type="line"/>
      <point x="858" y="44" type="line"/>
    </contour>
  </outline>
</glyph>
<glyph name="aeacute" format="2">
  <advance width="1555"/>
  <unicode hex="01FD"/>
  <outline>
    <contour>
      <point x="711" y="1082" type="line"/>
      <point x="189" y="1082" type="line"/>
      <point x="159" y="859" type="line"/>
      <point x="594" y="859" type="line"/>
      <point x="650" y="764" type="line"/>
      <point x="650" y="693" type="line"/>
      <point x="868" y="693" type="line"/>
      <point x="868" y="833" type="line"/>
    </contour>
    <contour>
      <point x="351" y="643" type="line"/>
      <point x="96" y="477" type="line"/>
      <point x="96" y="193" type="line"/>
      <point x="371" y="-10" type="line"/>
      <point x="718" y="122" type="line"/>
      <point x="833" y="122" type="line"/>
      <point x="833" y="302" type="line"/>
      <point x="737" y="302" type="line"/>
      <point x="455" y="211" type="line"/>
      <point x="321" y="294" type="line"/>
      <point x="321" y="393" type="line"/>
      <point x="421" y="453" type="line"/>
      <point x="747" y="453" type="line"/>
      <point x="747" y="643" type="line"/>
    </contour>
    <contour>
      <point x="909" y="1082" type="line"/>
      <point x="650" y="722" type="line"/>
      <point x="650" y="218" type="line"/>
      <point x="929" y="0" type="line"/>
      <point x="1388" y="0" type="line"/>
      <point x="1418" y="221" type="line"/>
      <point x="1019" y="221" type="line"/>
      <point x="869" y="343" type="line"/>
      <point x="869" y="659" type="line"/>
      <point x="1009" y="851" type="line"/>
      <point x="1198" y="851" type="line"/>
      <point x="1254" y="813" type="line"/>
      <point x="1254" y="697" type="line"/>
      <point x="1194" y="643" type="line"/>
      <point x="829" y="643" type="line"/>
      <point x="829" y="453" type="line"/>
      <point x="1319" y="453" type="line"/>
      <point x="1459" y="569" type="line"/>
      <point x="1459" y="921" type="line"/>
      <point x="1245" y="1082" type="line"/>
    </contour>
    <contour>
      <point x="921" y="1275" type="line"/>
      <point x="642" y="1275" type="line"/>
      <point x="859" y="1643" type="line"/>
      <point x="1212" y="1643" type="line"/>
    </contour>
  </outline>
</glyph>
<glyph name="schwa" format="2">
  <advance width="1555"/>
  <unicode hex="0259"/>
  <outline>
    <contour>
      <point x="995" y="1082" type="line"/>
      <point x="229" y="1082" type="line"/>
      <point x="199" y="831" type="line"/>
      <point x="835" y="831" type="line"/>
      <point x="1107" y="651" type="line"/>
      <point x="1107" y="451" type="line"/>
      <point x="812" y="231" type="line"/>
      <point x="552" y="231" type="line"/>
      <point x="394" y="313" type="line"/>
      <point x="394" y="379" type="line"/>
      <point x="529" y="452" type="line"/>
      <point x="1177" y="452" type="line"/>
      <point x="1177" y="642" type="line"/>
      <point x="350" y="642" type="line"/>
      <point x="128" y="521" type="line"/>
      <point x="128" y="239" type="line"/>
      <point x="449" y="0" type="line"/>
      <point x="970" y="0" type="line"/>
      <point x="1412" y="369" type="line"/>
      <point x="1412" y="713" type="line"/>
    </contour>
  </outline>
</glyph>
<glyph name="caron" format="2">
  <advance width="1555"/>
  <unicode hex="02C7"/>
  <outline>
    <contour>
      <point x="277" y="1643" type="line"/>
      <point x="571" y="1643" type="line"/>
      <point x="811" y="1347" type="line"/>
      <point x="743" y="1347" type="line"/>
      <point x="984" y="1643" type="line"/>
      <point x="1278" y="1643" type="line"/>
      <point x="970" y="1275" type="line"/>
      <point x="584" y="1275" type="line"/>
    </contour>
  </outline>
</glyph>
<glyph name="dotaccent" format="2">
  <advance width="1555"/>
  <unicode hex="02D9"/>
  <outline>
    <contour>
      <point x="777" y="1231" type="line"/>
      <point x="995" y="1441" type="line"/>
      <point x="777" y="1650" type="line"/>
      <point x="558" y="1441" type="line"/>
    </contour>
  </outline>
</glyph>
<glyph name="ring" format="2">
  <advance width="1555"/>
  <unicode hex="02DA"/>
  <outline>
    <contour>
      <point x="690" y="1210" type="line"/>
      <point x="864" y="1210" type="line"/>
      <point x="1024" y="1377" type="line"/>
      <point x="1024" y="1547" type="line"/>
      <point x="864" y="1713" type="line"/>
      <point x="690" y="1713" type="line"/>
      <point x="530" y="1546" type="line"/>
      <point x="530" y="1376" type="line"/>
    </contour>
    <contour>
      <point x="655" y="1428" type="line"/>
      <point x="655" y="1496" type="line"/>
      <point x="745" y="1592" type="line"/>
      <point x="809" y="1592" type="line"/>
      <point x="899" y="1496" type="line"/>
      <point x="899" y="1428" type="line"/>
      <point x="809" y="1331" type="line"/>
      <point x="745" y="1331" type="line"/>
    </contour>
  </outline>
</glyph>
<glyph name="ogonek" format="2">
  <advance width="1555"/>
  <unicode hex="02DB"/>
  <outline>
    <contour>
      <point x="305" y="-146" type="line"/>
      <point x="305" y="-320" type="line"/>
      <point x="513" y="-443" type="line"/>
      <point x="727" y="-443" type="line"/>
      <point x="727" y="-240" type="line"/>
      <point x="605" y="-240" type="line"/>
      <point x="553" y="-210" type="line"/>
      <point x="553" y="-173" type="line"/>
      <point x="746" y="0" type="line"/>
      <point x="629" y="44" type="line"/>
    </contour>
  </outline>
</glyph>
<glyph name="hungarumlaut" format="2">
  <advance width="1555"/>
  <unicode hex="02DD"/>
  <outline>
    <contour>
      <point x="390" y="1275" type="line"/>
      <point x="642" y="1275" type="line"/>
      <point x="850" y="1643" type="line"/>
      <point x="555" y="1643" type="line"/>
    </contour>
    <contour>
      <point x="915" y="1275" type="line"/>
      <point x="1165" y="1275" type="line"/>
      <point x="1374" y="1643" type="line"/>
      <point x="1079" y="1643" type="line"/>
    </contour>
  </outline>
</glyph>
<glyph name="gravecomb" format="2">
  <unicode hex="0300"/>
  <outline>
    <contour>
      <point x="610" y="1275" type="line"/>
      <point x="889" y="1275" type="line"/>
      <point x="672" y="1643" type="line"/>
      <point x="319" y="1643" type="line"/>
    </contour>
  </outline>
</glyph>
<glyph name="acutecomb" format="2">
  <unicode hex="0301"/>
  <outline>
    <contour>
      <point x="945" y="1275" type="line"/>
      <point x="666" y="1275" type="line"/>
      <point x="883" y="1643" type="line"/>
      <point x="1236" y="1643" type="line"/>
    </contour>
  </outline>
</glyph>
<glyph name="dieresiscomb" format="2">
  <unicode hex="0308"/>
  <outline>
    <contour>
      <point x="440" y="1231" type="line"/>
      <point x="653" y="1441" type="line"/>
      <point x="440" y="1650" type="line"/>
      <point x="227" y="1441" type="line"/>
    </contour>
    <contour>
      <point x="1113" y="1231" type="line"/>
      <point x="1326" y="1441" type="line"/>
      <point x="1113" y="1650" type="line"/>
      <point x="900" y="1441" type="line"/>
    </contour>
  </outline>
</glyph>
<glyph name="hungarumlautcomb" format="2">
  <unicode hex="030B"/>
  <outline>
    <contour>
      <point x="390" y="1275" type="line"/>
      <point x="642" y="1275" type="line"/>
      <point x="850" y="1643" type="line"/>
      <point x="555" y="1643" type="line"/>
    </contour>
    <contour>
      <point x="915" y="1275" type="line"/>
      <point x="1165" y="1275" type="line"/>
      <point x="1374" y="1643" type="line"/>
      <point x="1079" y="1643" type="line"/>
    </contour>
  </outline>
</glyph>
<glyph name="dotbelowcomb" format="2">
  <unicode hex="0323"/>
  <outline>
    <contour>
      <point x="777" y="-528" type="line"/>
      <point x="995" y="-318" type="line"/>
      <point x="777" y="-109" type="line"/>
      <point x="558" y="-318" type="line"/>
    </contour>
  </outline>
</glyph>
<glyph name="commaaccentcomb" format="2">
  <unicode hex="0326"/>
  <outline>
    <contour>
      <point x="605" y="-494" type="line"/>
      <point x="846" y="-494" type="line"/>
      <point x="846" y="-418" type="line"/>
      <point x="605" y="-721" type="line"/>
      <point x="730" y="-786" type="line"/>
      <point x="948" y="-504" type="line"/>
      <point x="948" y="-151" type="line"/>
      <point x="605" y="-151" type="line"/>
    </contour>
  </outline>
</glyph>
<glyph name="cedillacomb" format="2">
  <unicode hex="0327"/>
  <outline>
    <contour>
      <point x="632" y="-687" type="line"/>
      <point x="826" y="-687" type="line"/>
      <point x="1068" y="-534" type="line"/>
      <point x="1068" y="-270" type="line"/>
      <point x="826" y="-139" type="line"/>
      <point x="797" y="-139" type="line"/>
      <point x="852" y="-200" type="line"/>
      <point x="852" y="48" type="line"/>
      <point x="672" y="48" type="line"/>
      <point x="672" y="-305" type="line"/>
      <point x="758" y="-305" type="line"/>
      <point x="885" y="-370" type="line"/>
      <point x="885" y="-434" type="line"/>
      <point x="758" y="-499" type="line"/>
      <point x="632" y="-499" type="line"/>
    </contour>
  </outline>
</glyph>
<glyph name="Wacute" format="2">
  <advance width="1555"/>
  <unicode hex="1E82"/>
  <outline>
    <contour>
      <point x="429" y="0" type="line"/>
      <point x="657" y="0" type="line"/>
      <point x="807" y="578" type="line"/>
      <point x="750" y="578" type="line"/>
      <point x="891" y="0" type="line"/>
      <point x="1127" y="0" type="line"/>
      <point x="1340" y="687" type="line"/>
      <point x="1340" y="1460" type="line"/>
      <point x="1070" y="1460" type="line"/>
      <point x="1070" y="711" type="line"/>
      <point x="965" y="306" type="line"/>
      <point x="982" y="306" type="line"/>
      <point x="887" y="771" type="line"/>
      <point x="887" y="1032" type="line"/>
      <point x="670" y="1032" type="line"/>
      <point x="670" y="771" type="line"/>
      <point x="575" y="306" type="line"/>
      <point x="592" y="306" type="line"/>
      <point x="487" y="711" type="line"/>
      <point x="487" y="1460" type="line"/>
      <point x="216" y="1460" type="line"/>
      <point x="216" y="687" type="line"/>
    </contour>
    <contour>
      <point x="921" y="1619.408" type="line"/>
      <point x="642" y="1619.408" type="line"/>
      <point x="859" y="1917.966" type="line"/>
      <point x="1212" y="1917.966" type="line"/>
    </contour>
  </outline>
</glyph>
<glyph name="wacute" format="2">
  <advance width="1555"/>
  <unicode hex="1E83"/>
  <outline>
    <contour>
      <point x="432" y="0" type="line"/>
      <point x="661" y="0" type="line"/>
      <point x="818" y="502" type="line"/>
      <point x="738" y="502" type="line"/>
      <point x="895" y="0" type="line"/>
      <point x="1124" y="0" type="line"/>
      <point x="1350" y="609" type="line"/>
      <point x="1350" y="1082" type="line"/>
      <point x="1084" y="1082" type="line"/>
      <point x="1084" y="663" type="line"/>
      <point x="951" y="192" type="line"/>
      <point x="1002" y="192" type="line"/>
      <point x="866" y="663" type="line"/>
      <point x="866" y="806" type="line"/>
      <point x="690" y="806" type="line"/>
      <point x="690" y="663" type="line"/>
      <point x="557" y="193" type="line"/>
      <point x="608" y="191" type="line"/>
      <point x="472" y="663" type="line"/>
      <point x="472" y="1082" type="line"/>
      <point x="206" y="1082" type="line"/>
      <point x="206" y="609" type="line"/>
    </contour>
    <contour>
      <point x="921" y="1275" type="line"/>
      <point x="642" y="1275" type="line"/>
      <point x="859" y="1643" type="line"/>
      <point x="1212" y="1643" type="line"/>
    </contour>
  </outline>
</glyph>
<glyph name="Germandbls" format="2">
  <advance width="1555"/>
  <unicode hex="1E9E"/>
  <outline>
    <contour>
      <point x="1324" y="1460" type="line"/>
      <point x="165" y="1460" type="line"/>
      <point x="165" y="0" type="line"/>
      <point x="500" y="0" type="line"/>
      <point x="500" y="1234" type="line"/>
      <point x="455" y="1189" type="line"/>
      <point x="1054" y="1189" type="line"/>
      <point x="1012" y="1265" type="line"/>
      <point x="810" y="891" type="line"/>
      <point x="810" y="713" type="line"/>
      <point x="1136" y="510" type="line"/>
      <point x="1136" y="384" type="line"/>
      <point x="965" y="241" type="line"/>
      <point x="731" y="241" type="line"/>
      <point x="731" y="0" type="line"/>
      <point x="1111" y="0" type="line"/>
      <point x="1461" y="260" type="line"/>
      <point x="1461" y="634" type="line"/>
      <point x="1081" y="891" type="line"/>
      <point x="1081" y="784" type="line"/>
      <point x="1324" y="1215" type="line"/>
    </contour>
  </outline>
</glyph>
<glyph name="Idotbelow" format="2">
  <advance width="1555"/>
  <unicode hex="1ECA"/>
  <outline>
    <contour>
      <point x="612" y="0" type="line"/>
      <point x="942" y="0" type="line"/>
      <point x="942" y="1460" type="line"/>
      <point x="612" y="1460" type="line"/>
    </contour>
    <contour>
      <point x="220" y="0" type="line"/>
      <point x="1334" y="0" type="line"/>
      <point x="1354" y="271" type="line"/>
      <point x="200" y="271" type="line"/>
    </contour>
    <contour>
      <point x="200" y="1189" type="line"/>
      <point x="1354" y="1189" type="line"/>
      <point x="1334" y="1460" type="line"/>
      <point x="220" y="1460" type="line"/>
    </contour>
    <contour>
      <point x="778" y="-528" type="line"/>
      <point x="996" y="-318" type="line"/>
      <point x="778" y="-109" type="line"/>
      <point x="559" y="-318" type="line"/>
    </contour>
  </outline>
</glyph>
<glyph name="Udotbelow" format="2">
  <advance width="1555"/>
  <unicode hex="1EE4"/>
  <outline>
    <contour>
      <point x="395" y="0" type="line"/>
      <point x="1159" y="0" type="line"/>
      <point x="1396" y="295" type="line"/>
      <point x="1396" y="1460" type="line"/>
      <point x="1061" y="1460" type="line"/>
      <point x="1061" y="396" type="line"/>
      <point x="961" y="271" type="line"/>
      <point x="593" y="271" type="line"/>
      <point x="493" y="396" type="line"/>
      <point x="493" y="1460" type="line"/>
      <point x="158" y="1460" type="line"/>
      <point x="158" y="295" type="line"/>
    </contour>
    <contour>
      <point x="777" y="-528" type="line"/>
      <point x="995" y="-318" type="line"/>
      <point x="777" y="-109" type="line"/>
      <point x="558" y="-318" type="line"/>
    </contour>
  </outline>
</glyph>
<glyph name="quotesinglbase" format="2">
  <advance width="1555"/>
  <unicode hex="201A"/>
  <outline>
    <contour>
      <point x="968" y="-42" type="curve" smooth="yes"/>
      <point x="1018" y="-42"/>
      <point x="1061" y="-30"/>
      <point x="1101" y="-7" type="curve"/>
      <point x="1025" y="69" type="line"/>
      <point x="1021" y="-102"/>
      <point x="887" y="-245"/>
      <point x="686" y="-377" type="curve"/>
      <point x="833" y="-492" type="line"/>
      <point x="1042" y="-367"/>
      <point x="1234" y="-169"/>
      <point x="1234" y="106" type="curve" smooth="yes"/>
      <point x="1234" y="319"/>
      <point x="1119" y="418"/>
      <point x="970" y="418" type="curve" smooth="yes"/>
      <point x="830" y="418"/>
      <point x="728" y="330"/>
      <point x="728" y="189" type="curve" smooth="yes"/>
      <point x="728" y="46"/>
      <point x="833" y="-42"/>
    </contour>
  </outline>
</glyph>
<glyph name="quotedblbase" format="2">
  <advance width="1555"/>
  <unicode hex="201E"/>
  <outline>
    <contour>
      <point x="673" y="-42" type="curve" smooth="yes"/>
      <point x="723" y="-42"/>
      <point x="766" y="-30"/>
      <point x="806" y="-7" type="curve"/>
      <point x="730" y="69" type="line"/>
      <point x="726" y="-102"/>
      <point x="592" y="-245"/>
      <point x="391" y="-377" type="curve"/>
      <point x="538" y="-492" type="line"/>
      <point x="747" y="-367"/>
      <point x="939" y="-169"/>
      <point x="939" y="106" type="curve" smooth="yes"/>
      <point x="939" y="319"/>
      <point x="824" y="418"/>
      <point x="675" y="418" type="curve" smooth="yes"/>
      <point x="535" y="418"/>
      <point x="433" y="330"/>
      <point x="433" y="189" type="curve" smooth="yes"/>
      <point x="433" y="46"/>
      <point x="538" y="-42"/>
    </contour>
    <contour>
      <point x="1330" y="-42" type="curve" smooth="yes"/>
      <point x="1380" y="-42"/>
      <point x="1423" y="-30"/>
      <point x="1463" y="-7" type="curve"/>
      <point x="1387" y="69" type="line"/>
      <point x="1383" y="-102"/>
      <point x="1249" y="-245"/>
      <point x="1048" y="-377" type="curve"/>
      <point x="1195" y="-492" type="line"/>
      <point x="1404" y="-367"/>
      <point x="1596" y="-169"/>
      <point x="1596" y="106" type="curve" smooth="yes"/>
      <point x="1596" y="319"/>
      <point x="1481" y="418"/>
      <point x="1332" y="418" type="curve" smooth="yes"/>
      <point x="1192" y="418"/>
      <point x="1090" y="330"/>
      <point x="1090" y="189" type="curve" smooth="yes"/>
      <point x="1090" y="46"/>
      <point x="1195" y="-42"/>
    </contour>
  </outline>
</glyph>
<glyph name="daggerdbl" format="2">
  <advance width="1555"/>
  <unicode hex="2021"/>
  <outline>
    <contour>
      <point x="944" y="-220" type="line"/>
      <point x="944" y="1460" type="line"/>
      <point x="614" y="1460" type="line"/>
      <point x="614" y="-220" type="line"/>
    </contour>
    <contour>
      <point x="265" y="809" type="line"/>
      <point x="1291" y="809" type="line"/>
      <point x="1291" y="1080" type="line"/>
      <point x="265" y="1080" type="line"/>
    </contour>
    <contour>
      <point x="265" y="160" type="line"/>
      <point x="1291" y="160" type="line"/>
      <point x="1291" y="431" type="line"/>
      <point x="265" y="431" type="line"/>
    </contour>
  </outline>
</glyph>
<glyph name="bullet" format="2">
  <advance width="1555"/>
  <unicode hex="2022"/>
  <outline>
    <contour>
      <point x="779.898" y="364.9" type="curve" smooth="yes"/>
      <point x="953.261" y="364.9"/>
      <point x="1097.059" y="483.163"/>
      <point x="1097.059" y="675.341" type="curve" smooth="yes"/>
      <point x="1097.059" y="868.863"/>
      <point x="953.261" y="983.094"/>
      <point x="779.898" y="983.094" type="curve" smooth="yes"/>
      <point x="603.847" y="983.094"/>
      <point x="458.706" y="868.863"/>
      <point x="458.706" y="675.341" type="curve" smooth="yes"/>
      <point x="458.706" y="483.163"/>
      <point x="603.847" y="364.9"/>
    </contour>
  </outline>
</glyph>
<glyph name="triangularbullet" format="2">
  <advance width="1555"/>
  <unicode hex="2023"/>
  <outline>
    <contour>
      <point x="482" y="1069" type="line"/>
      <point x="482" y="276" type="line"/>
      <point x="1176" y="673" type="line"/>
    </contour>
  </outline>
</glyph>
<glyph name="guilsinglleft" format="2">
  <advance width="1555"/>
  <unicode hex="2039"/>
  <outline>
    <contour>
      <point x="1080" y="126" type="line"/>
      <point x="684" y="694" type="line"/>
      <point x="420" y="539" type="line"/>
      <point x="796" y="-24" type="line"/>
    </contour>
    <contour>
      <point x="797" y="1106" type="line"/>
      <point x="420" y="539" type="line"/>
      <point x="686" y="406" type="line"/>
      <point x="1080" y="958" type="line"/>
    </contour>
  </outline>
</glyph>
<glyph name="guilsinglright" format="2">
  <advance width="1555"/>
  <unicode hex="203A"/>
  <outline>
    <contour>
      <point x="475" y="956" type="line"/>
      <point x="871" y="388" type="line"/>
      <point x="1135" y="543" type="line"/>
      <point x="759" y="1106" type="line"/>
    </contour>
    <contour>
      <point x="758" y="-24" type="line"/>
      <point x="1135" y="543" type="line"/>
      <point x="869" y="676" type="line"/>
      <point x="475" y="124" type="line"/>
    </contour>
  </outline>
</glyph>
<glyph name="foursuperior" format="2">
  <advance width="1555"/>
  <unicode hex="2074"/>
  <outline>
    <contour>
      <point x="972" y="1100" type="line"/>
      <point x="972" y="1655" type="line"/>
      <point x="799" y="1655" type="line"/>
      <point x="515" y="1341" type="line"/>
      <point x="515" y="1211" type="line"/>
      <point x="1051" y="1211" type="line"/>
      <point x="1051" y="1341" type="line"/>
      <point x="922" y="1341" type="line"/>
      <point x="867" y="1331" type="line"/>
      <point x="619" y="1331" type="line"/>
      <point x="646" y="1305" type="line"/>
      <point x="841" y="1504" type="line"/>
      <point x="814" y="1514" type="line"/>
      <point x="814" y="1100" type="line"/>
    </contour>
  </outline>
</glyph>
<glyph name="sixsuperior" format="2">
  <advance width="1555"/>
  <unicode hex="2076"/>
  <outline>
    <contour>
      <point x="797" y="1664" type="curve" smooth="yes"/>
      <point x="620" y="1664"/>
      <point x="510" y="1585"/>
      <point x="510" y="1377" type="curve" smooth="yes"/>
      <point x="510" y="1169"/>
      <point x="630" y="1092"/>
      <point x="789" y="1092" type="curve" smooth="yes"/>
      <point x="935" y="1092"/>
      <point x="1045" y="1153"/>
      <point x="1045" y="1278" type="curve" smooth="yes"/>
      <point x="1045" y="1403"/>
      <point x="950" y="1434"/>
      <point x="853" y="1434" type="curve" smooth="yes"/>
      <point x="713" y="1434"/>
      <point x="644" y="1368"/>
      <point x="600" y="1315" type="curve"/>
      <point x="615" y="1265" type="line"/>
      <point x="651" y="1291"/>
      <point x="715" y="1330"/>
      <point x="801" y="1330" type="curve" smooth="yes"/>
      <point x="853" y="1330"/>
      <point x="885" y="1316"/>
      <point x="885" y="1280" type="curve" smooth="yes"/>
      <point x="885" y="1241"/>
      <point x="850" y="1217"/>
      <point x="788" y="1217" type="curve" smooth="yes"/>
      <point x="720" y="1217"/>
      <point x="680" y="1246"/>
      <point x="680" y="1356" type="curve" smooth="yes"/>
      <point x="680" y="1499"/>
      <point x="709" y="1542"/>
      <point x="796" y="1542" type="curve" smooth="yes"/>
      <point x="846" y="1542"/>
      <point x="875" y="1526"/>
      <point x="880" y="1486" type="curve"/>
      <point x="1027" y="1502" type="line"/>
      <point x="1011" y="1608"/>
      <point x="947" y="1664"/>
    </contour>
  </outline>
</glyph>
<glyph name="sevensuperior" format="2">
  <advance width="1555"/>
  <unicode hex="2077"/>
  <outline>
    <contour>
      <point x="534" y="1655" type="line"/>
      <point x="534" y="1524" type="line"/>
      <point x="931" y="1524" type="line"/>
      <point x="865" y="1569" type="line"/>
      <point x="645" y="1100" type="line"/>
      <point x="808" y="1100" type="line"/>
      <point x="1028" y="1572" type="line"/>
      <point x="1028" y="1655" type="line"/>
    </contour>
  </outline>
</glyph>
<glyph name="oneinferior" format="2">
  <advance width="1555"/>
  <unicode hex="2081"/>
  <outline>
    <contour>
      <point x="569" y="211" type="curve"/>
      <point x="569" y="45" type="line"/>
      <point x="700" y="45"/>
      <point x="823" y="193"/>
      <point x="823" y="275" type="curve"/>
      <point x="710" y="275" type="line"/>
      <point x="689" y="226"/>
      <point x="616" y="211"/>
    </contour>
    <contour>
      <point x="874" y="-280" type="line"/>
      <point x="874" y="275" type="line"/>
      <point x="710" y="275" type="line"/>
      <point x="710" y="-280" type="line"/>
    </contour>
    <contour>
      <point x="554" y="-280" type="line"/>
      <point x="1025" y="-280" type="line"/>
      <point x="1025" y="-150" type="line"/>
      <point x="554" y="-150" type="line"/>
    </contour>
  </outline>
</glyph>
<glyph name="won" format="2">
  <advance width="1555"/>
  <unicode hex="20A9"/>
  <outline>
    <contour>
      <point x="165" y="1460" type="line"/>
      <point x="353" y="0" type="line"/>
      <point x="588" y="0" type="line"/>
      <point x="763" y="742" type="line"/>
      <point x="775" y="742" type="line"/>
      <point x="945" y="0" type="line"/>
      <point x="1201" y="0" type="line"/>
      <point x="1391" y="1460" type="line"/>
      <point x="1100" y="1460" type="line"/>
      <point x="1018" y="708" type="line"/>
      <point x="998" y="708" type="line"/>
      <point x="875" y="1217" type="line"/>
      <point x="700" y="1217" type="line"/>
      <point x="557" y="708" type="line"/>
      <point x="537" y="708" type="line"/>
      <point x="467" y="1460" type="line"/>
    </contour>
    <contour>
      <point x="1502" y="595" type="line"/>
      <point x="1502" y="835" type="line"/>
      <point x="52" y="835" type="line"/>
      <point x="52" y="595" type="line"/>
    </contour>
  </outline>
</glyph>
<glyph name="literSign" format="2">
  <advance width="1555"/>
  <unicode hex="2113"/>
  <outline>
    <contour>
      <point x="944" y="-22" type="curve" smooth="yes"/>
      <point x="1112" y="-22"/>
      <point x="1221" y="7"/>
      <point x="1361" y="51" type="curve"/>
      <point x="1310" y="295" type="line"/>
      <point x="1221" y="264"/>
      <point x="1119" y="244"/>
      <point x="1032" y="244" type="curve" smooth="yes"/>
      <point x="825" y="244"/>
      <point x="739" y="357"/>
      <point x="739" y="759" type="curve" smooth="yes"/>
      <point x="739" y="1157"/>
      <point x="824" y="1244"/>
      <point x="948" y="1244" type="curve" smooth="yes"/>
      <point x="1054" y="1244"/>
      <point x="1089" y="1179"/>
      <point x="1089" y="1085" type="curve" smooth="yes"/>
      <point x="1089" y="773"/>
      <point x="707" y="596"/>
      <point x="157" y="387" type="curve"/>
      <point x="227" y="208" type="line"/>
      <point x="785" y="426"/>
      <point x="1306" y="625"/>
      <point x="1306" y="1106" type="curve" smooth="yes"/>
      <point x="1306" y="1330"/>
      <point x="1193" y="1484"/>
      <point x="913" y="1484" type="curve" smooth="yes"/>
      <point x="603" y="1484"/>
      <point x="403" y="1299"/>
      <point x="403" y="699" type="curve" smooth="yes"/>
      <point x="403" y="83"/>
      <point x="601" y="-22"/>
    </contour>
  </outline>
</glyph>
<glyph name="trademark" format="2">
  <advance width="1555"/>
  <unicode hex="2122"/>
  <outline>
    <contour>
      <point x="464" y="838" type="line"/>
      <point x="464" y="1530" type="line"/>
      <point x="279" y="1530" type="line"/>
      <point x="279" y="838" type="line"/>
    </contour>
    <contour>
      <point x="81" y="1366" type="line"/>
      <point x="662" y="1366" type="line"/>
      <point x="662" y="1530" type="line"/>
      <point x="81" y="1530" type="line"/>
    </contour>
    <contour>
      <point x="756" y="1530" type="line"/>
      <point x="756" y="838" type="line"/>
      <point x="931" y="838" type="line"/>
      <point x="931" y="1217" type="line"/>
      <point x="937" y="1217" type="line"/>
      <point x="1067" y="971" type="line"/>
      <point x="1100" y="971" type="line"/>
      <point x="1235" y="1217" type="line"/>
      <point x="1243" y="1217" type="line"/>
      <point x="1243" y="838" type="line"/>
      <point x="1418" y="838" type="line"/>
      <point x="1418" y="1530" type="line"/>
      <point x="1251" y="1530" type="line"/>
      <point x="1091" y="1243" type="line"/>
      <point x="1085" y="1243" type="line"/>
      <point x="932" y="1530" type="line"/>
    </contour>
  </outline>
</glyph>
<glyph name="leftArrow" format="2">
  <advance width="1555"/>
  <unicode hex="2190"/>
  <outline>
    <contour>
      <point x="200" y="731" type="line"/>
      <point x="745" y="185" type="line"/>
      <point x="918" y="358" type="line"/>
      <point x="511" y="760" type="line"/>
      <point x="511" y="701" type="line"/>
      <point x="918" y="1103" type="line"/>
      <point x="745" y="1276" type="line"/>
    </contour>
    <contour>
      <point x="478" y="596" type="line"/>
      <point x="1300" y="596" type="line"/>
      <point x="1300" y="865" type="line"/>
      <point x="478" y="865" type="line"/>
    </contour>
    <contour>
      <point x="668" y="948" type="line"/>
      <point x="574" y="731" type="line"/>
      <point x="670" y="513" type="line"/>
      <point x="757" y="731" type="line"/>
    </contour>
  </outline>
</glyph>
<glyph name="upArrow" format="2">
  <advance width="1555"/>
  <unicode hex="2191"/>
  <outline>
    <contour>
      <point x="778" y="1290" type="line"/>
      <point x="232" y="745" type="line"/>
      <point x="405" y="572" type="line"/>
      <point x="807" y="979" type="line"/>
      <point x="748" y="979" type="line"/>
      <point x="1150" y="572" type="line"/>
      <point x="1323" y="745" type="line"/>
    </contour>
    <contour>
      <point x="643" y="1012" type="line"/>
      <point x="643" y="190" type="line"/>
      <point x="912" y="190" type="line"/>
      <point x="912" y="1012" type="line"/>
    </contour>
    <contour>
      <point x="995" y="822" type="line"/>
      <point x="778" y="916" type="line"/>
      <point x="560" y="820" type="line"/>
      <point x="778" y="733" type="line"/>
    </contour>
  </outline>
</glyph>
<glyph name="downArrow" format="2">
  <advance width="1555"/>
  <unicode hex="2193"/>
  <outline>
    <contour>
      <point x="777" y="170" type="line"/>
      <point x="1323" y="715" type="line"/>
      <point x="1150" y="888" type="line"/>
      <point x="748" y="481" type="line"/>
      <point x="807" y="481" type="line"/>
      <point x="405" y="888" type="line"/>
      <point x="232" y="715" type="line"/>
    </contour>
    <contour>
      <point x="912" y="448" type="line"/>
      <point x="912" y="1270" type="line"/>
      <point x="643" y="1270" type="line"/>
      <point x="643" y="448" type="line"/>
    </contour>
    <contour>
      <point x="560" y="638" type="line"/>
      <point x="777" y="544" type="line"/>
      <point x="995" y="640" type="line"/>
      <point x="777" y="727" type="line"/>
    </contour>
  </outline>
</glyph>
<glyph name="northEastArrow" format="2">
  <advance width="1555"/>
  <unicode hex="2197"/>
  <outline>
    <contour>
      <point x="1175" y="1148" type="line"/>
      <point x="404" y="1149" type="line"/>
      <point x="404" y="904" type="line"/>
      <point x="976" y="908" type="line"/>
      <point x="934" y="949" type="line"/>
      <point x="931" y="377" type="line"/>
      <point x="1175" y="377" type="line"/>
    </contour>
    <contour>
      <point x="883" y="1047" type="line"/>
      <point x="302" y="466" type="line"/>
      <point x="492" y="275" type="line"/>
      <point x="1073" y="857" type="line"/>
    </contour>
    <contour>
      <point x="998" y="664" type="line"/>
      <point x="911" y="884" type="line"/>
      <point x="689" y="970" type="line"/>
      <point x="781" y="754" type="line"/>
    </contour>
  </outline>
</glyph>
<glyph name="southEastArrow" format="2">
  <advance width="1555"/>
  <unicode hex="2198"/>
  <outline>
    <contour>
      <point x="1174" y="312" type="line"/>
      <point x="1175" y="1083" type="line"/>
      <point x="930" y="1083" type="line"/>
      <point x="934" y="511" type="line"/>
      <point x="975" y="553" type="line"/>
      <point x="403" y="556" type="line"/>
      <point x="403" y="312" type="line"/>
    </contour>
    <contour>
      <point x="1073" y="604" type="line"/>
      <point x="492" y="1185" type="line"/>
      <point x="301" y="995" type="line"/>
      <point x="883" y="414" type="line"/>
    </contour>
    <contour>
      <point x="690" y="489" type="line"/>
      <point x="910" y="576" type="line"/>
      <point x="996" y="798" type="line"/>
      <point x="780" y="706" type="line"/>
    </contour>
  </outline>
</glyph>
<glyph name="rightHookArrow" format="2">
  <advance width="1555"/>
  <unicode hex="21AA"/>
  <outline>
    <contour>
      <point x="1445" y="471" type="line"/>
      <point x="922" y="994" type="line"/>
      <point x="754" y="826" type="line"/>
      <point x="1149" y="432" type="line"/>
      <point x="1149" y="509" type="line"/>
      <point x="754" y="115" type="line"/>
      <point x="922" y="-53" type="line"/>
    </contour>
    <contour>
      <point x="988" y="276" type="line"/>
      <point x="1080" y="471" type="line"/>
      <point x="987" y="665" type="line"/>
      <point x="903" y="471" type="line"/>
    </contour>
    <contour>
      <point x="441" y="904" type="curve" smooth="yes"/>
      <point x="441" y="1121"/>
      <point x="521" y="1208"/>
      <point x="712" y="1208" type="curve" smooth="yes"/>
      <point x="1335" y="1208" type="line"/>
      <point x="1335" y="1460" type="line"/>
      <point x="703" y="1460" type="line" smooth="yes"/>
      <point x="318" y="1460"/>
      <point x="149" y="1308"/>
      <point x="149" y="904" type="curve" smooth="yes"/>
      <point x="149" y="500"/>
      <point x="318" y="344"/>
      <point x="703" y="344" type="curve" smooth="yes"/>
      <point x="1155" y="344" type="line"/>
      <point x="1155" y="596" type="line"/>
      <point x="712" y="596" type="line" smooth="yes"/>
      <point x="521" y="596"/>
      <point x="441" y="687"/>
    </contour>
  </outline>
</glyph>
<glyph name="universal" format="2">
  <advance width="1555"/>
  <unicode hex="2200"/>
  <outline>
    <contour>
      <point x="43" y="1082" type="line"/>
      <point x="623" y="0" type="line"/>
      <point x="955" y="0" type="line"/>
      <point x="1512" y="1082" type="line"/>
      <point x="1177" y="1082" type="line"/>
      <point x="807" y="312" type="line"/>
      <point x="792" y="312" type="line"/>
      <point x="397" y="1082" type="line"/>
    </contour>
    <contour>
      <point x="1167" y="924" type="line"/>
      <point x="400" y="924" type="line"/>
      <point x="400" y="690" type="line"/>
      <point x="1167" y="690" type="line"/>
    </contour>
  </outline>
</glyph>
<glyph name="increment" format="2">
  <advance width="1555"/>
  <unicode hex="2206"/>
  <outline>
    <contour>
      <point x="1409" y="271" type="line"/>
      <point x="942" y="1460" type="line"/>
      <point x="590" y="1460" type="line"/>
      <point x="146" y="271" type="line"/>
      <point x="479" y="215" type="line"/>
      <point x="479" y="286" type="line"/>
      <point x="748" y="1053" type="line"/>
      <point x="763" y="1053" type="line"/>
      <point x="1048" y="286" type="line"/>
      <point x="1048" y="224" type="line"/>
    </contour>
    <contour>
      <point x="146" y="0" type="line"/>
      <point x="1409" y="0" type="line"/>
      <point x="1409" y="271" type="line"/>
      <point x="146" y="271" type="line"/>
    </contour>
  </outline>
</glyph>
<glyph name="product" format="2">
  <advance width="1555"/>
  <unicode hex="220F"/>
  <outline>
    <contour>
      <point x="567" y="-400" type="line"/>
      <point x="567" y="1460" type="line"/>
      <point x="257" y="1460" type="line"/>
      <point x="257" y="-400" type="line"/>
    </contour>
    <contour>
      <point x="95" y="1189" type="line"/>
      <point x="1460" y="1189" type="line"/>
      <point x="1460" y="1460" type="line"/>
      <point x="95" y="1460" type="line"/>
    </contour>
    <contour>
      <point x="1298" y="-400" type="line"/>
      <point x="1298" y="1460" type="line"/>
      <point x="988" y="1460" type="line"/>
      <point x="988" y="-400" type="line"/>
    </contour>
  </outline>
</glyph>
<glyph name="logicaland" format="2">
  <advance width="1555"/>
  <unicode hex="2227"/>
  <outline>
    <contour>
      <point x="1447" y="194" type="line"/>
      <point x="844" y="1276" type="line"/>
      <point x="683" y="1276" type="line"/>
      <point x="109" y="194" type="line"/>
      <point x="444" y="194" type="line"/>
      <point x="744" y="825" type="line"/>
      <point x="760" y="825" type="line"/>
      <point x="1084" y="194" type="line"/>
    </contour>
  </outline>
</glyph>
<glyph name="logicalor" format="2">
  <advance width="1555"/>
  <unicode hex="2228"/>
  <outline>
    <contour>
      <point x="108" y="1266" type="line"/>
      <point x="711" y="184" type="line"/>
      <point x="872" y="184" type="line"/>
      <point x="1446" y="1266" type="line"/>
      <point x="1111" y="1266" type="line"/>
      <point x="811" y="635" type="line"/>
      <point x="795" y="635" type="line"/>
      <point x="471" y="1266" type="line"/>
    </contour>
  </outline>
</glyph>
<glyph name="notequal" format="2">
  <advance width="1555"/>
  <unicode hex="2260"/>
  <outline>
    <contour>
      <point x="712" y="0" type="line"/>
      <point x="1095" y="1346" type="line"/>
      <point x="843" y="1346" type="line"/>
      <point x="460" y="0" type="line"/>
    </contour>
    <contour>
      <point x="220" y="831" type="line"/>
      <point x="1335" y="831" type="line"/>
      <point x="1335" y="1102" type="line"/>
      <point x="220" y="1102" type="line"/>
    </contour>
    <contour>
      <point x="220" y="244" type="line"/>
      <point x="1335" y="244" type="line"/>
      <point x="1335" y="515" type="line"/>
      <point x="220" y="515" type="line"/>
    </contour>
  </outline>
</glyph>
<glyph name="equivalence" format="2">
  <advance width="1555"/>
  <unicode hex="2261"/>
  <outline>
    <contour>
      <point x="221" y="1033" type="line"/>
      <point x="1334" y="1033" type="line"/>
      <point x="1334" y="1243" type="line"/>
      <point x="221" y="1243" type="line"/>
    </contour>
    <contour>
      <point x="221" y="567" type="line"/>
      <point x="1334" y="567" type="line"/>
      <point x="1334" y="778" type="line"/>
      <point x="221" y="778" type="line"/>
    </contour>
    <contour>
      <point x="221" y="102" type="line"/>
      <point x="1334" y="102" type="line"/>
      <point x="1334" y="312" type="line"/>
      <point x="221" y="312" type="line"/>
    </contour>
  </outline>
</glyph>
<glyph name="lessequal" format="2">
  <advance width="1555"/>
  <unicode hex="2264"/>
  <outline>
    <contour>
      <point x="1335" y="115" type="line"/>
      <point x="1335" y="386" type="line"/>
      <point x="220" y="386" type="line"/>
      <point x="220" y="115" type="line"/>
    </contour>
    <contour>
      <point x="1275" y="1515" type="line"/>
      <point x="220" y="1190" type="line"/>
      <point x="220" y="885" type="line"/>
      <point x="1276" y="560" type="line"/>
      <point x="1355" y="820" type="line"/>
      <point x="683" y="1025" type="line"/>
      <point x="683" y="1050" type="line"/>
      <point x="1354" y="1256" type="line"/>
    </contour>
  </outline>
</glyph>
<glyph name="greaterequal" format="2">
  <advance width="1555"/>
  <unicode hex="2265"/>
  <outline>
    <contour>
      <point x="220" y="115" type="line"/>
      <point x="1335" y="115" type="line"/>
      <point x="1335" y="386" type="line"/>
      <point x="220" y="386" type="line"/>
    </contour>
    <contour>
      <point x="280" y="560" type="line"/>
      <point x="1335" y="885" type="line"/>
      <point x="1334" y="1190" type="line"/>
      <point x="279" y="1515" type="line"/>
      <point x="200" y="1255" type="line"/>
      <point x="872" y="1050" type="line"/>
      <point x="872" y="1025" type="line"/>
      <point x="201" y="819" type="line"/>
    </contour>
  </outline>
</glyph>
<glyph name="rightBlackTriangle" format="2">
  <advance width="1555"/>
  <unicode hex="25B6"/>
  <outline>
    <contour>
      <point x="375" y="1271" type="line"/>
      <point x="375" y="185" type="line"/>
      <point x="1327" y="729" type="line"/>
    </contour>
  </outline>
</glyph>
<glyph name="lozenge" format="2">
  <advance width="1555"/>
  <unicode hex="25CA"/>
  <outline>
    <contour>
      <point x="111" y="730" type="line"/>
      <point x="629" y="0" type="line"/>
      <point x="928" y="0" type="line"/>
      <point x="1445" y="730" type="line"/>
      <point x="1147" y="775" type="line"/>
      <point x="786" y="262" type="line"/>
      <point x="770" y="262" type="line"/>
      <point x="409" y="775" type="line"/>
    </contour>
    <contour>
      <point x="1445" y="730" type="line"/>
      <point x="928" y="1460" type="line"/>
      <point x="629" y="1460" type="line"/>
      <point x="111" y="730" type="line"/>
      <point x="409" y="685" type="line"/>
      <point x="770" y="1198" type="line"/>
      <point x="786" y="1198" type="line"/>
      <point x="1147" y="685" type="line"/>
    </contour>
  </outline>
</glyph>
<glyph name="rightTipDownArrow" format="2">
  <advance width="1555"/>
  <unicode hex="2B0E"/>
  <outline>
    <contour>
      <point x="860" y="113" type="line"/>
      <point x="1405" y="658" type="line"/>
      <point x="1232" y="831" type="line"/>
      <point x="830" y="424" type="line"/>
      <point x="889" y="424" type="line"/>
      <point x="487" y="831" type="line"/>
      <point x="314" y="658" type="line"/>
    </contour>
    <contour>
      <point x="725" y="391" type="line"/>
      <point x="994" y="391" type="line"/>
      <point x="994" y="1325" type="line"/>
      <point x="725" y="1325" type="line"/>
    </contour>
    <contour>
      <point x="1077" y="581" type="line"/>
      <point x="860" y="670" type="line"/>
      <point x="642" y="583" type="line"/>
      <point x="860" y="487" type="line"/>
    </contour>
    <contour>
      <point x="994" y="1048" type="line"/>
      <point x="994" y="1325" type="line"/>
      <point x="210" y="1325" type="line"/>
      <point x="210" y="1048" type="line"/>
    </contour>
  </outline>
</glyph>
<glyph name="brick" format="2">
  <advance width="1555"/>
  <unicode hex="1F9F1"/>
  <outline>
    <contour>
      <point x="1485" y="-400" type="line"/>
      <point x="2993" y="-400" type="line"/>
      <point x="2993" y="1530" type="line"/>
      <point x="1485" y="1530" type="line"/>
    </contour>
  </outline>
</glyph>
<glyph name="A.alt3" format="2">
  <advance width="1555"/>
  <outline>
    <contour>
      <point x="158" y="0" type="line"/>
      <point x="485" y="0" type="line"/>
      <point x="485" y="811" type="line"/>
      <point x="818" y="1261" type="line"/>
      <point x="736" y="1261" type="line"/>
      <point x="1069" y="811" type="line"/>
      <point x="1069" y="0" type="line"/>
      <point x="1396" y="0" type="line"/>
      <point x="1396" y="933" type="line"/>
      <point x="980" y="1460" type="line"/>
      <point x="574" y="1460" type="line"/>
      <point x="158" y="933" type="line"/>
    </contour>
    <contour>
      <point x="365" y="303" type="line"/>
      <point x="1218" y="303" type="line"/>
      <point x="1218" y="537" type="line"/>
      <point x="365" y="537" type="line"/>
    </contour>
  </outline>
</glyph>
<glyph name="Agrave.alt5" format="2">
  <advance width="1555"/>
  <outline>
    <contour>
      <point x="158" y="0" type="line"/>
      <point x="485" y="0" type="line"/>
      <point x="485" y="811" type="line"/>
      <point x="818" y="1261" type="line"/>
      <point x="736" y="1261" type="line"/>
      <point x="1069" y="811" type="line"/>
      <point x="1069" y="0" type="line"/>
      <point x="1396" y="0" type="line"/>
      <point x="1396" y="933" type="line"/>
      <point x="980" y="1460" type="line"/>
      <point x="574" y="1460" type="line"/>
      <point x="158" y="933" type="line"/>
    </contour>
    <contour>
      <point x="365" y="303" type="line"/>
      <point x="1218" y="303" type="line"/>
      <point x="1218" y="537" type="line"/>
      <point x="365" y="537" type="line"/>
    </contour>
    <contour>
      <point x="633" y="1619" type="line"/>
      <point x="912" y="1619" type="line"/>
      <point x="695" y="1918" type="line"/>
      <point x="342" y="1918" type="line"/>
    </contour>
  </outline>
</glyph>
<glyph name="Aring.alt1" format="2">
  <advance width="1555"/>
  <outline>
    <contour>
      <point x="158" y="0" type="line"/>
      <point x="485" y="0" type="line"/>
      <point x="485" y="811" type="line"/>
      <point x="818" y="1261" type="line"/>
      <point x="736" y="1261" type="line"/>
      <point x="1069" y="811" type="line"/>
      <point x="1069" y="0" type="line"/>
      <point x="1396" y="0" type="line"/>
      <point x="1396" y="933" type="line"/>
      <point x="980" y="1460" type="line"/>
      <point x="574" y="1460" type="line"/>
      <point x="158" y="933" type="line"/>
    </contour>
    <contour>
      <point x="365" y="303" type="line"/>
      <point x="1218" y="303" type="line"/>
      <point x="1218" y="537" type="line"/>
      <point x="365" y="537" type="line"/>
    </contour>
    <contour>
      <point x="690" y="1436" type="line"/>
      <point x="864" y="1436" type="line"/>
      <point x="1024" y="1603" type="line"/>
      <point x="1024" y="1773" type="line"/>
      <point x="864" y="1939" type="line"/>
      <point x="690" y="1939" type="line"/>
      <point x="530" y="1772" type="line"/>
      <point x="530" y="1602" type="line"/>
    </contour>
    <contour>
      <point x="655" y="1654" type="line"/>
      <point x="655" y="1722" type="line"/>
      <point x="745" y="1818" type="line"/>
      <point x="809" y="1818" type="line"/>
      <point x="899" y="1722" type="line"/>
      <point x="899" y="1654" type="line"/>
      <point x="809" y="1557" type="line"/>
      <point x="745" y="1557" type="line"/>
    </contour>
  </outline>
</glyph>
<glyph name="C.alt1" format="2">
  <advance width="1555"/>
  <outline>
    <contour>
      <point x="568" y="0" type="line"/>
      <point x="1318" y="0" type="line"/>
      <point x="1358" y="301" type="line"/>
      <point x="733" y="301" type="line"/>
      <point x="446" y="645" type="line"/>
      <point x="446" y="815" type="line"/>
      <point x="733" y="1159" type="line"/>
      <point x="1358" y="1159" type="line"/>
      <point x="1318" y="1460" type="line"/>
      <point x="568" y="1460" type="line"/>
      <point x="121" y="932" type="line"/>
      <point x="121" y="528" type="line"/>
    </contour>
  </outline>
</glyph>
<glyph name="C.alt4" format="2">
  <advance width="1555"/>
  <outline>
    <contour>
      <point x="568" y="0" type="line"/>
      <point x="1318" y="0" type="line"/>
      <point x="1358" y="301" type="line"/>
      <point x="733" y="301" type="line"/>
      <point x="446" y="645" type="line"/>
      <point x="446" y="815" type="line"/>
      <point x="733" y="1159" type="line"/>
      <point x="1358" y="1159" type="line"/>
      <point x="1318" y="1460" type="line"/>
      <point x="568" y="1460" type="line"/>
      <point x="121" y="932" type="line"/>
      <point x="121" y="528" type="line"/>
    </contour>
  </outline>
</glyph>
<glyph name="Cacute.alt1" format="2">
  <advance width="1555"/>
  <outline>
    <contour>
      <point x="568" y="0" type="line"/>
      <point x="1318" y="0" type="line"/>
      <point x="1358" y="301" type="line"/>
      <point x="733" y="301" type="line"/>
      <point x="446" y="645" type="line"/>
      <point x="446" y="815" type="line"/>
      <point x="733" y="1159" type="line"/>
      <point x="1358" y="1159" type="line"/>
      <point x="1318" y="1460" type="line"/>
      <point x="568" y="1460" type="line"/>
      <point x="121" y="932" type="line"/>
      <point x="121" y="528" type="line"/>
    </contour>
    <contour>
      <point x="1019" y="1619" type="line"/>
      <point x="740" y="1619" type="line"/>
      <point x="957" y="1918" type="line"/>
      <point x="1310" y="1918" type="line"/>
    </contour>
  </outline>
</glyph>
<glyph name="Ccircumflex.alt5" format="2">
  <advance width="1555"/>
  <outline>
    <contour>
      <point x="568" y="0" type="line"/>
      <point x="1318" y="0" type="line"/>
      <point x="1358" y="301" type="line"/>
      <point x="733" y="301" type="line"/>
      <point x="446" y="645" type="line"/>
      <point x="446" y="815" type="line"/>
      <point x="733" y="1159" type="line"/>
      <point x="1358" y="1159" type="line"/>
      <point x="1318" y="1460" type="line"/>
      <point x="568" y="1460" type="line"/>
      <point x="121" y="932" type="line"/>
      <point x="121" y="528" type="line"/>
    </contour>
    <contour>
      <point x="395" y="1620" type="line"/>
      <point x="709" y="1620" type="line"/>
      <point x="909" y="1866" type="line"/>
      <point x="841" y="1866" type="line"/>
      <point x="1042" y="1620" type="line"/>
      <point x="1356" y="1620" type="line"/>
      <point x="1068" y="1908" type="line"/>
      <point x="682" y="1908" type="line"/>
    </contour>
  </outline>
</glyph>
<glyph name="D.alt4" format="2">
  <advance width="1555"/>
  <outline>
    <contour>
      <point x="299" y="0" type="line"/>
      <point x="1026" y="0" type="line"/>
      <point x="1466" y="539" type="line"/>
      <point x="1466" y="943" type="line"/>
      <point x="1026" y="1460" type="line"/>
      <point x="299" y="1460" type="line"/>
      <point x="269" y="1159" type="line"/>
      <point x="859" y="1159" type="line"/>
      <point x="1141" y="821" type="line"/>
      <point x="1141" y="662" type="line"/>
      <point x="859" y="301" type="line"/>
      <point x="269" y="301" type="line"/>
    </contour>
    <contour>
      <point x="163" y="0" type="line"/>
      <point x="492" y="0" type="line"/>
      <point x="492" y="1460" type="line"/>
      <point x="163" y="1460" type="line"/>
    </contour>
  </outline>
</glyph>
<glyph name="D.alt5" format="2">
  <advance width="1555"/>
  <outline>
    <contour>
      <point x="299" y="0" type="line"/>
      <point x="1026" y="0" type="line"/>
      <point x="1466" y="539" type="line"/>
      <point x="1466" y="943" type="line"/>
      <point x="1026" y="1460" type="line"/>
      <point x="299" y="1460" type="line"/>
      <point x="269" y="1159" type="line"/>
      <point x="859" y="1159" type="line"/>
      <point x="1141" y="821" type="line"/>
      <point x="1141" y="662" type="line"/>
      <point x="859" y="301" type="line"/>
      <point x="269" y="301" type="line"/>
    </contour>
    <contour>
      <point x="163" y="0" type="line"/>
      <point x="492" y="0" type="line"/>
      <point x="492" y="1460" type="line"/>
      <point x="163" y="1460" type="line"/>
    </contour>
  </outline>
</glyph>
<glyph name="Dcroat.alt1" format="2">
  <advance width="1555"/>
  <outline>
    <contour>
      <point x="15" y="594" type="line"/>
      <point x="820" y="594" type="line"/>
      <point x="820" y="867" type="line"/>
      <point x="15" y="867" type="line"/>
    </contour>
    <contour>
      <point x="305" y="0" type="line"/>
      <point x="1032" y="0" type="line"/>
      <point x="1472" y="539" type="line"/>
      <point x="1472" y="943" type="line"/>
      <point x="1032" y="1460" type="line"/>
      <point x="305" y="1460" type="line"/>
      <point x="275" y="1159" type="line"/>
      <point x="865" y="1159" type="line"/>
      <point x="1147" y="821" type="line"/>
      <point x="1147" y="662" type="line"/>
      <point x="865" y="301" type="line"/>
      <point x="275" y="301" type="line"/>
    </contour>
    <contour>
      <point x="169" y="0" type="line"/>
      <point x="498" y="0" type="line"/>
      <point x="498" y="1460" type="line"/>
      <point x="169" y="1460" type="line"/>
    </contour>
  </outline>
</glyph>
<glyph name="E.alt2" format="2">
  <advance width="1555"/>
  <outline>
    <contour>
      <point x="534" y="0" type="line"/>
      <point x="534" y="1460" type="line"/>
      <point x="205" y="1460" type="line"/>
      <point x="205" y="0" type="line"/>
    </contour>
    <contour>
      <point x="1342" y="271" type="line"/>
      <point x="366" y="271" type="line"/>
      <point x="366" y="0" type="line"/>
      <point x="1312" y="0" type="line"/>
    </contour>
    <contour>
      <point x="1153" y="866" type="line"/>
      <point x="396" y="866" type="line"/>
      <point x="396" y="609" type="line"/>
      <point x="1153" y="609" type="line"/>
    </contour>
    <contour>
      <point x="1312" y="1189" type="line"/>
      <point x="1282" y="1460" type="line"/>
      <point x="366" y="1460" type="line"/>
      <point x="366" y="1189" type="line"/>
    </contour>
  </outline>
</glyph>
<glyph name="Ebreve.alt5" format="2">
  <advance width="1555"/>
  <outline>
    <contour>
      <point x="534" y="0" type="line"/>
      <point x="534" y="1460" type="line"/>
      <point x="205" y="1460" type="line"/>
      <point x="205" y="0" type="line"/>
    </contour>
    <contour>
      <point x="1342" y="271" type="line"/>
      <point x="366" y="271" type="line"/>
      <point x="366" y="0" type="line"/>
      <point x="1312" y="0" type="line"/>
    </contour>
    <contour>
      <point x="1153" y="866" type="line"/>
      <point x="396" y="866" type="line"/>
      <point x="396" y="609" type="line"/>
      <point x="1153" y="609" type="line"/>
    </contour>
    <contour>
      <point x="1312" y="1189" type="line"/>
      <point x="1282" y="1460" type="line"/>
      <point x="366" y="1460" type="line"/>
      <point x="366" y="1189" type="line"/>
    </contour>
    <contour>
      <point x="562" y="1610" type="line"/>
      <point x="956" y="1610" type="line"/>
      <point x="1159" y="1773" type="line"/>
      <point x="1159" y="1908" type="line"/>
      <point x="961" y="1908" type="line"/>
      <point x="961" y="1840" type="line"/>
      <point x="876" y="1773" type="line"/>
      <point x="642" y="1773" type="line"/>
      <point x="557" y="1840" type="line"/>
      <point x="557" y="1908" type="line"/>
      <point x="359" y="1908" type="line"/>
      <point x="359" y="1772" type="line"/>
    </contour>
  </outline>
</glyph>
<glyph name="Eng.alt1" format="2">
  <advance width="1555"/>
  <outline>
    <contour>
      <point x="1083" y="-53" type="line"/>
      <point x="1378" y="0" type="line"/>
      <point x="1378" y="1460" type="line"/>
      <point x="1087" y="1460" type="line"/>
      <point x="1087" y="493" type="line"/>
      <point x="1075" y="493" type="line"/>
      <point x="506" y="1460" type="line"/>
      <point x="177" y="1460" type="line"/>
      <point x="177" y="0" type="line"/>
      <point x="467" y="0" type="line"/>
      <point x="467" y="953" type="line"/>
      <point x="479" y="953" type="line"/>
    </contour>
    <contour>
      <point x="1181" y="-400" type="line"/>
      <point x="1378" y="-171" type="line"/>
      <point x="1378" y="40" type="line"/>
      <point x="1051" y="40" type="line"/>
      <point x="1051" y="-57" type="line"/>
      <point x="1011" y="-99" type="line"/>
      <point x="811" y="-99" type="line"/>
      <point x="841" y="-400" type="line"/>
    </contour>
  </outline>
</glyph>
<glyph name="Eogonek.alt1" format="2">
  <advance width="1555"/>
  <outline>
    <contour>
      <point x="534" y="0" type="line"/>
      <point x="534" y="1460" type="line"/>
      <point x="205" y="1460" type="line"/>
      <point x="205" y="0" type="line"/>
    </contour>
    <contour>
      <point x="1342" y="271" type="line"/>
      <point x="366" y="271" type="line"/>
      <point x="366" y="0" type="line"/>
      <point x="1312" y="0" type="line"/>
    </contour>
    <contour>
      <point x="1153" y="866" type="line"/>
      <point x="396" y="866" type="line"/>
      <point x="396" y="609" type="line"/>
      <point x="1153" y="609" type="line"/>
    </contour>
    <contour>
      <point x="1312" y="1189" type="line"/>
      <point x="1282" y="1460" type="line"/>
      <point x="366" y="1460" type="line"/>
      <point x="366" y="1189" type="line"/>
    </contour>
    <contour>
      <point x="871" y="-146" type="line"/>
      <point x="871" y="-320" type="line"/>
      <point x="1079" y="-443" type="line"/>
      <point x="1293" y="-443" type="line"/>
      <point x="1293" y="-240" type="line"/>
      <point x="1171" y="-240" type="line"/>
      <point x="1119" y="-210" type="line"/>
      <point x="1119" y="-173" type="line"/>
      <point x="1312" y="0" type="line"/>
      <point x="1195" y="44" type="line"/>
    </contour>
  </outline>
</glyph>
<glyph name="F.alt1" format="2">
  <advance width="1555"/>
  <outline>
    <contour>
      <point x="198" y="0" type="line"/>
      <point x="527" y="0" type="line"/>
      <point x="527" y="1460" type="line"/>
      <point x="198" y="1460" type="line"/>
    </contour>
    <contour>
      <point x="379" y="539" type="line"/>
      <point x="1130" y="539" type="line"/>
      <point x="1130" y="796" type="line"/>
      <point x="379" y="796" type="line"/>
    </contour>
    <contour>
      <point x="349" y="1189" type="line"/>
      <point x="1349" y="1189" type="line"/>
      <point x="1319" y="1460" type="line"/>
      <point x="349" y="1460" type="line"/>
    </contour>
  </outline>
</glyph>
<glyph name="Gcircumflex.alt1" format="2">
  <advance width="1555"/>
  <outline>
    <contour>
      <point x="528" y="0" type="line"/>
      <point x="1111" y="0" type="line"/>
      <point x="1430" y="341" type="line"/>
      <point x="1430" y="829" type="line"/>
      <point x="794" y="829" type="line"/>
      <point x="794" y="582" type="line"/>
      <point x="1232" y="582" type="line"/>
      <point x="1160" y="669" type="line"/>
      <point x="1160" y="471" type="line"/>
      <point x="991" y="301" type="line"/>
      <point x="698" y="301" type="line"/>
      <point x="428" y="642" type="line"/>
      <point x="428" y="818" type="line"/>
      <point x="712" y="1159" type="line"/>
      <point x="1360" y="1159" type="line"/>
      <point x="1330" y="1460" type="line"/>
      <point x="542" y="1460" type="line"/>
      <point x="103" y="932" type="line"/>
      <point x="103" y="528" type="line"/>
    </contour>
    <contour>
      <point x="387" y="1620" type="line"/>
      <point x="701" y="1620" type="line"/>
      <point x="901" y="1866" type="line"/>
      <point x="833" y="1866" type="line"/>
      <point x="1034" y="1620" type="line"/>
      <point x="1348" y="1620" type="line"/>
      <point x="1060" y="1908" type="line"/>
      <point x="674" y="1908" type="line"/>
    </contour>
  </outline>
</glyph>
<glyph name="H.alt1" format="2">
  <advance width="1555"/>
  <outline>
    <contour>
      <point x="1059" y="0" type="line"/>
      <point x="1396" y="0" type="line"/>
      <point x="1396" y="1460" type="line"/>
      <point x="1059" y="1460" type="line"/>
    </contour>
    <contour>
      <point x="158" y="0" type="line"/>
      <point x="495" y="0" type="line"/>
      <point x="495" y="1460" type="line"/>
      <point x="158" y="1460" type="line"/>
    </contour>
    <contour>
      <point x="295" y="602" type="line"/>
      <point x="1255" y="602" type="line"/>
      <point x="1255" y="873" type="line"/>
      <point x="295" y="873" type="line"/>
    </contour>
  </outline>
</glyph>
<glyph name="Hbar.alt1" format="2">
  <advance width="1555"/>
  <outline>
    <contour>
      <point x="40" y="1082" type="line"/>
      <point x="1515" y="1082" type="line"/>
      <point x="1515" y="1283" type="line"/>
      <point x="40" y="1283" type="line"/>
    </contour>
    <contour>
      <point x="1060" y="0" type="line"/>
      <point x="1397" y="0" type="line"/>
      <point x="1397" y="1460" type="line"/>
      <point x="1060" y="1460" type="line"/>
    </contour>
    <contour>
      <point x="159" y="0" type="line"/>
      <point x="496" y="0" type="line"/>
      <point x="496" y="1460" type="line"/>
      <point x="159" y="1460" type="line"/>
    </contour>
    <contour>
      <point x="296" y="602" type="line"/>
      <point x="1256" y="602" type="line"/>
      <point x="1256" y="873" type="line"/>
      <point x="296" y="873" type="line"/>
    </contour>
  </outline>
</glyph>
<glyph name="Hcircumflex.alt1" format="2">
  <advance width="1555"/>
  <outline>
    <contour>
      <point x="1059" y="0" type="line"/>
      <point x="1396" y="0" type="line"/>
      <point x="1396" y="1460" type="line"/>
      <point x="1059" y="1460" type="line"/>
    </contour>
    <contour>
      <point x="158" y="0" type="line"/>
      <point x="495" y="0" type="line"/>
      <point x="495" y="1460" type="line"/>
      <point x="158" y="1460" type="line"/>
    </contour>
    <contour>
      <point x="295" y="602" type="line"/>
      <point x="1255" y="602" type="line"/>
      <point x="1255" y="873" type="line"/>
      <point x="295" y="873" type="line"/>
    </contour>
    <contour>
      <point x="296" y="1620" type="line"/>
      <point x="610" y="1620" type="line"/>
      <point x="810" y="1866" type="line"/>
      <point x="742" y="1866" type="line"/>
      <point x="943" y="1620" type="line"/>
      <point x="1257" y="1620" type="line"/>
      <point x="969" y="1908" type="line"/>
      <point x="583" y="1908" type="line"/>
    </contour>
  </outline>
</glyph>
<glyph name="Iacute.alt1" format="2">
  <advance width="1555"/>
  <outline>
    <contour>
      <point x="612" y="0" type="line"/>
      <point x="942" y="0" type="line"/>
      <point x="942" y="1460" type="line"/>
      <point x="612" y="1460" type="line"/>
    </contour>
    <contour>
      <point x="220" y="0" type="line"/>
      <point x="1334" y="0" type="line"/>
      <point x="1354" y="271" type="line"/>
      <point x="200" y="271" type="line"/>
    </contour>
    <contour>
      <point x="200" y="1189" type="line"/>
      <point x="1354" y="1189" type="line"/>
      <point x="1334" y="1460" type="line"/>
      <point x="220" y="1460" type="line"/>
    </contour>
    <contour>
      <point x="921" y="1619.408" type="line"/>
      <point x="642" y="1619.408" type="line"/>
      <point x="859" y="1917.966" type="line"/>
      <point x="1212" y="1917.966" type="line"/>
    </contour>
  </outline>
</glyph>
<glyph name="Icircumflex.alt5" format="2">
  <advance width="1555"/>
  <outline>
    <contour>
      <point x="612" y="0" type="line"/>
      <point x="942" y="0" type="line"/>
      <point x="942" y="1460" type="line"/>
      <point x="612" y="1460" type="line"/>
    </contour>
    <contour>
      <point x="220" y="0" type="line"/>
      <point x="1334" y="0" type="line"/>
      <point x="1354" y="271" type="line"/>
      <point x="200" y="271" type="line"/>
    </contour>
    <contour>
      <point x="200" y="1189" type="line"/>
      <point x="1354" y="1189" type="line"/>
      <point x="1334" y="1460" type="line"/>
      <point x="220" y="1460" type="line"/>
    </contour>
    <contour>
      <point x="297" y="1620" type="line"/>
      <point x="611" y="1620" type="line"/>
      <point x="811" y="1866" type="line"/>
      <point x="743" y="1866" type="line"/>
      <point x="944" y="1620" type="line"/>
      <point x="1258" y="1620" type="line"/>
      <point x="970" y="1908" type="line"/>
      <point x="584" y="1908" type="line"/>
    </contour>
  </outline>
</glyph>
<glyph name="Idotbelow.alt1" format="2">
  <advance width="1555"/>
  <outline>
    <contour>
      <point x="612" y="0" type="line"/>
      <point x="942" y="0" type="line"/>
      <point x="942" y="1460" type="line"/>
      <point x="612" y="1460" type="line"/>
    </contour>
    <contour>
      <point x="220" y="0" type="line"/>
      <point x="1334" y="0" type="line"/>
      <point x="1354" y="271" type="line"/>
      <point x="200" y="271" type="line"/>
    </contour>
    <contour>
      <point x="200" y="1189" type="line"/>
      <point x="1354" y="1189" type="line"/>
      <point x="1334" y="1460" type="line"/>
      <point x="220" y="1460" type="line"/>
    </contour>
    <contour>
      <point x="778" y="-528" type="line"/>
      <point x="996" y="-318" type="line"/>
      <point x="778" y="-109" type="line"/>
      <point x="559" y="-318" type="line"/>
    </contour>
  </outline>
</glyph>
<glyph name="Imacron.alt5" format="2">
  <advance width="1555"/>
  <outline>
    <contour>
      <point x="612" y="0" type="line"/>
      <point x="942" y="0" type="line"/>
      <point x="942" y="1460" type="line"/>
      <point x="612" y="1460" type="line"/>
    </contour>
    <contour>
      <point x="220" y="0" type="line"/>
      <point x="1334" y="0" type="line"/>
      <point x="1354" y="271" type="line"/>
      <point x="200" y="271" type="line"/>
    </contour>
    <contour>
      <point x="200" y="1189" type="line"/>
      <point x="1354" y="1189" type="line"/>
      <point x="1334" y="1460" type="line"/>
      <point x="220" y="1460" type="line"/>
    </contour>
    <contour>
      <point x="347" y="1691" type="line"/>
      <point x="1208" y="1691" type="line"/>
      <point x="1208" y="1884" type="line"/>
      <point x="347" y="1884" type="line"/>
    </contour>
  </outline>
</glyph>
<glyph name="Iogonek.alt5" format="2">
  <advance width="1555"/>
  <outline>
    <contour>
      <point x="612" y="0" type="line"/>
      <point x="942" y="0" type="line"/>
      <point x="942" y="1460" type="line"/>
      <point x="612" y="1460" type="line"/>
    </contour>
    <contour>
      <point x="220" y="0" type="line"/>
      <point x="1334" y="0" type="line"/>
      <point x="1354" y="271" type="line"/>
      <point x="200" y="271" type="line"/>
    </contour>
    <contour>
      <point x="200" y="1189" type="line"/>
      <point x="1354" y="1189" type="line"/>
      <point x="1334" y="1460" type="line"/>
      <point x="220" y="1460" type="line"/>
    </contour>
    <contour>
      <point x="501" y="-146" type="line"/>
      <point x="501" y="-320" type="line"/>
      <point x="709" y="-443" type="line"/>
      <point x="923" y="-443" type="line"/>
      <point x="923" y="-240" type="line"/>
      <point x="801" y="-240" type="line"/>
      <point x="749" y="-210" type="line"/>
      <point x="749" y="-173" type="line"/>
      <point x="942" y="0" type="line"/>
      <point x="825" y="44" type="line"/>
    </contour>
  </outline>
</glyph>
<glyph name="Itilde.alt5" format="2">
  <advance width="1555"/>
  <outline>
    <contour>
      <point x="612" y="0" type="line"/>
      <point x="942" y="0" type="line"/>
      <point x="942" y="1460" type="line"/>
      <point x="612" y="1460" type="line"/>
    </contour>
    <contour>
      <point x="220" y="0" type="line"/>
      <point x="1334" y="0" type="line"/>
      <point x="1354" y="271" type="line"/>
      <point x="200" y="271" type="line"/>
    </contour>
    <contour>
      <point x="200" y="1189" type="line"/>
      <point x="1354" y="1189" type="line"/>
      <point x="1334" y="1460" type="line"/>
      <point x="220" y="1460" type="line"/>
    </contour>
    <contour>
      <point x="763" y="1911" type="line"/>
      <point x="465" y="1911" type="line"/>
      <point x="312" y="1758" type="line"/>
      <point x="312" y="1615" type="line"/>
      <point x="515" y="1615" type="line"/>
      <point x="515" y="1686" type="line"/>
      <point x="575" y="1758" type="line"/>
      <point x="653" y="1758" type="line"/>
      <point x="793" y="1615" type="line"/>
      <point x="1091" y="1615" type="line"/>
      <point x="1244" y="1768" type="line"/>
      <point x="1244" y="1911" type="line"/>
      <point x="1041" y="1911" type="line"/>
      <point x="1041" y="1830" type="line"/>
      <point x="981" y="1768" type="line"/>
      <point x="903" y="1768" type="line"/>
    </contour>
  </outline>
</glyph>
<glyph name="K.alt4" format="2">
  <advance width="1555"/>
  <outline>
    <contour>
      <point x="1044" y="0" type="line"/>
      <point x="1409" y="0" type="line"/>
      <point x="1409" y="361" type="line"/>
      <point x="867" y="817" type="line"/>
      <point x="850" y="659" type="line"/>
      <point x="1409" y="1099" type="line"/>
      <point x="1409" y="1460" type="line"/>
      <point x="1074" y="1460" type="line"/>
      <point x="1074" y="1179" type="line"/>
      <point x="653" y="841" type="line"/>
      <point x="711" y="860" type="line"/>
      <point x="436" y="860" type="line"/>
      <point x="436" y="588" type="line"/>
      <point x="709" y="588" type="line"/>
      <point x="617" y="615" type="line"/>
      <point x="1044" y="250" type="line"/>
    </contour>
    <contour>
      <point x="154" y="0" type="line"/>
      <point x="491" y="0" type="line"/>
      <point x="491" y="1460" type="line"/>
      <point x="154" y="1460" type="line"/>
    </contour>
  </outline>
</glyph>
<glyph name="L.alt" format="2">
  <advance width="1555"/>
  <outline>
    <contour>
      <point x="256" y="0" type="line"/>
      <point x="585" y="0" type="line"/>
      <point x="585" y="1460" type="line"/>
      <point x="256" y="1460" type="line"/>
    </contour>
    <contour>
      <point x="416" y="0" type="line"/>
      <point x="1335" y="0" type="line"/>
      <point x="1365" y="271" type="line"/>
      <point x="416" y="271" type="line"/>
    </contour>
  </outline>
</glyph>
<glyph name="L.alt2" format="2">
  <advance width="1555"/>
  <outline>
    <contour>
      <point x="256" y="0" type="line"/>
      <point x="585" y="0" type="line"/>
      <point x="585" y="1460" type="line"/>
      <point x="256" y="1460" type="line"/>
    </contour>
    <contour>
      <point x="416" y="0" type="line"/>
      <point x="1335" y="0" type="line"/>
      <point x="1365" y="271" type="line"/>
      <point x="416" y="271" type="line"/>
    </contour>
  </outline>
</glyph>
<glyph name="L.alt5" format="2">
  <advance width="1555"/>
  <outline>
    <contour>
      <point x="256" y="0" type="line"/>
      <point x="585" y="0" type="line"/>
      <point x="585" y="1460" type="line"/>
      <point x="256" y="1460" type="line"/>
    </contour>
    <contour>
      <point x="416" y="0" type="line"/>
      <point x="1335" y="0" type="line"/>
      <point x="1365" y="271" type="line"/>
      <point x="416" y="271" type="line"/>
    </contour>
  </outline>
</glyph>
<glyph name="Lcommaaccent.alt1" format="2">
  <advance width="1555"/>
  <outline>
    <contour>
      <point x="256" y="0" type="line"/>
      <point x="585" y="0" type="line"/>
      <point x="585" y="1460" type="line"/>
      <point x="256" y="1460" type="line"/>
    </contour>
    <contour>
      <point x="416" y="0" type="line"/>
      <point x="1335" y="0" type="line"/>
      <point x="1365" y="271" type="line"/>
      <point x="416" y="271" type="line"/>
    </contour>
    <contour>
      <point x="662" y="-494" type="line"/>
      <point x="903" y="-494" type="line"/>
      <point x="903" y="-418" type="line"/>
      <point x="662" y="-721" type="line"/>
      <point x="787" y="-786" type="line"/>
      <point x="1005" y="-504" type="line"/>
      <point x="1005" y="-151" type="line"/>
      <point x="662" y="-151" type="line"/>
    </contour>
  </outline>
</glyph>
<glyph name="Ldot.alt1" format="2">
  <advance width="1555"/>
  <outline>
    <contour>
      <point x="274" y="0" type="line"/>
      <point x="603" y="0" type="line"/>
      <point x="603" y="1460" type="line"/>
      <point x="274" y="1460" type="line"/>
    </contour>
    <contour>
      <point x="434" y="0" type="line"/>
      <point x="1353" y="0" type="line"/>
      <point x="1383" y="271" type="line"/>
      <point x="434" y="271" type="line"/>
    </contour>
    <contour>
      <point x="1228" y="634" type="line"/>
      <point x="1446" y="844" type="line"/>
      <point x="1228" y="1053" type="line"/>
      <point x="1009" y="844" type="line"/>
    </contour>
  </outline>
</glyph>
<glyph name="Lslash.alt5" format="2">
  <advance width="1555"/>
  <outline>
    <contour>
      <point x="0" y="517" type="line"/>
      <point x="1017" y="974" type="line"/>
      <point x="1017" y="1246" type="line"/>
      <point x="0" y="791" type="line"/>
    </contour>
    <contour>
      <point x="200" y="0" type="line"/>
      <point x="529" y="0" type="line"/>
      <point x="529" y="1460" type="line"/>
      <point x="200" y="1460" type="line"/>
    </contour>
    <contour>
      <point x="360" y="0" type="line"/>
      <point x="1279" y="0" type="line"/>
      <point x="1309" y="271" type="line"/>
      <point x="360" y="271" type="line"/>
    </contour>
  </outline>
</glyph>
<glyph name="N.alt2" format="2">
  <advance width="1555"/>
  <outline>
    <contour>
      <point x="158" y="0" type="line"/>
      <point x="465" y="0" type="line"/>
      <point x="465" y="830" type="line"/>
      <point x="477" y="830" type="line"/>
      <point x="1194" y="0" type="line"/>
      <point x="1396" y="0" type="line"/>
      <point x="1396" y="1460" type="line"/>
      <point x="1089" y="1460" type="line"/>
      <point x="1089" y="591" type="line"/>
      <point x="1077" y="591" type="line"/>
      <point x="349" y="1460" type="line"/>
      <point x="158" y="1460" type="line"/>
    </contour>
  </outline>
</glyph>
<glyph name="Nhookleft.alt5" format="2">
  <advance width="1555"/>
  <outline>
    <contour>
      <point x="472" y="50" type="line"/>
      <point x="165" y="50" type="line"/>
      <point x="165" y="-57" type="line"/>
      <point x="125" y="-99" type="line"/>
      <point x="-55" y="-99" type="line"/>
      <point x="-25" y="-400" type="line"/>
      <point x="295" y="-400" type="line"/>
      <point x="472" y="-171" type="line"/>
    </contour>
    <contour>
      <point x="165" y="0" type="line"/>
      <point x="472" y="0" type="line"/>
      <point x="472" y="830" type="line"/>
      <point x="484" y="830" type="line"/>
      <point x="1201" y="0" type="line"/>
      <point x="1403" y="0" type="line"/>
      <point x="1403" y="1460" type="line"/>
      <point x="1096" y="1460" type="line"/>
      <point x="1096" y="591" type="line"/>
      <point x="1084" y="591" type="line"/>
      <point x="356" y="1460" type="line"/>
      <point x="165" y="1460" type="line"/>
    </contour>
  </outline>
</glyph>
<glyph name="Ntilde.alt5" format="2">
  <advance width="1555"/>
  <outline>
    <contour>
      <point x="158" y="0" type="line"/>
      <point x="465" y="0" type="line"/>
      <point x="465" y="830" type="line"/>
      <point x="477" y="830" type="line"/>
      <point x="1194" y="0" type="line"/>
      <point x="1396" y="0" type="line"/>
      <point x="1396" y="1460" type="line"/>
      <point x="1089" y="1460" type="line"/>
      <point x="1089" y="591" type="line"/>
      <point x="1077" y="591" type="line"/>
      <point x="349" y="1460" type="line"/>
      <point x="158" y="1460" type="line"/>
    </contour>
    <contour>
      <point x="762" y="1911" type="line"/>
      <point x="464" y="1911" type="line"/>
      <point x="311" y="1758" type="line"/>
      <point x="311" y="1615" type="line"/>
      <point x="514" y="1615" type="line"/>
      <point x="514" y="1686" type="line"/>
      <point x="574" y="1758" type="line"/>
      <point x="652" y="1758" type="line"/>
      <point x="792" y="1615" type="line"/>
      <point x="1090" y="1615" type="line"/>
      <point x="1243" y="1768" type="line"/>
      <point x="1243" y="1911" type="line"/>
      <point x="1040" y="1911" type="line"/>
      <point x="1040" y="1830" type="line"/>
      <point x="980" y="1768" type="line"/>
      <point x="902" y="1768" type="line"/>
    </contour>
  </outline>
</glyph>
<glyph name="O.alt2" format="2">
  <advance width="1555"/>
  <outline>
    <contour>
      <point x="576" y="0" type="line"/>
      <point x="981" y="0" type="line"/>
      <point x="1462" y="528" type="line"/>
      <point x="1462" y="932" type="line"/>
      <point x="964" y="1460" type="line"/>
      <point x="576" y="1460" type="line"/>
      <point x="93" y="932" type="line"/>
      <point x="93" y="528" type="line"/>
    </contour>
    <contour>
      <point x="729" y="311" type="line"/>
      <point x="418" y="653" type="line"/>
      <point x="418" y="807" type="line"/>
      <point x="729" y="1149" type="line"/>
      <point x="827" y="1149" type="line"/>
      <point x="1137" y="807" type="line"/>
      <point x="1137" y="653" type="line"/>
      <point x="827" y="311" type="line"/>
    </contour>
  </outline>
</glyph>
<glyph name="OE.alt5" format="2">
  <advance width="1555"/>
  <outline>
    <contour>
      <point x="732" y="0" type="line"/>
      <point x="1061" y="0" type="line"/>
      <point x="1061" y="1460" type="line"/>
      <point x="732" y="1460" type="line"/>
    </contour>
    <contour>
      <point x="936" y="0" type="line"/>
      <point x="1473" y="0" type="line"/>
      <point x="1503" y="271" type="line"/>
      <point x="936" y="271" type="line"/>
    </contour>
    <contour>
      <point x="936" y="609" type="line"/>
      <point x="1408" y="609" type="line"/>
      <point x="1408" y="866" type="line"/>
      <point x="936" y="866" type="line"/>
    </contour>
    <contour>
      <point x="936" y="1189" type="line"/>
      <point x="1483" y="1189" type="line"/>
      <point x="1453" y="1460" type="line"/>
      <point x="936" y="1460" type="line"/>
    </contour>
    <contour>
      <point x="854" y="0" type="line"/>
      <point x="854" y="271" type="line"/>
      <point x="642" y="271" type="line"/>
      <point x="390" y="642" type="line"/>
      <point x="390" y="841" type="line"/>
      <point x="642" y="1189" type="line"/>
      <point x="854" y="1189" type="line"/>
      <point x="854" y="1460" type="line"/>
      <point x="475" y="1460" type="line"/>
      <point x="85" y="943" type="line"/>
      <point x="85" y="539" type="line"/>
      <point x="475" y="0" type="line"/>
    </contour>
  </outline>
</glyph>
<glyph name="Obreve.alt5" format="2">
  <advance width="1555"/>
  <outline>
    <contour>
      <point x="576" y="0" type="line"/>
      <point x="981" y="0" type="line"/>
      <point x="1462" y="528" type="line"/>
      <point x="1462" y="932" type="line"/>
      <point x="964" y="1460" type="line"/>
      <point x="576" y="1460" type="line"/>
      <point x="93" y="932" type="line"/>
      <point x="93" y="528" type="line"/>
    </contour>
    <contour>
      <point x="729" y="311" type="line"/>
      <point x="418" y="653" type="line"/>
      <point x="418" y="807" type="line"/>
      <point x="729" y="1149" type="line"/>
      <point x="827" y="1149" type="line"/>
      <point x="1137" y="807" type="line"/>
      <point x="1137" y="653" type="line"/>
      <point x="827" y="311" type="line"/>
    </contour>
    <contour>
      <point x="581" y="1610" type="line"/>
      <point x="975" y="1610" type="line"/>
      <point x="1178" y="1773" type="line"/>
      <point x="1178" y="1908" type="line"/>
      <point x="980" y="1908" type="line"/>
      <point x="980" y="1840" type="line"/>
      <point x="895" y="1773" type="line"/>
      <point x="661" y="1773" type="line"/>
      <point x="576" y="1840" type="line"/>
      <point x="576" y="1908" type="line"/>
      <point x="378" y="1908" type="line"/>
      <point x="378" y="1772" type="line"/>
    </contour>
  </outline>
</glyph>
<glyph name="Odotbelow.alt1" format="2">
  <advance width="1555"/>
  <outline>
    <contour>
      <point x="576" y="0" type="line"/>
      <point x="981" y="0" type="line"/>
      <point x="1462" y="528" type="line"/>
      <point x="1462" y="932" type="line"/>
      <point x="964" y="1460" type="line"/>
      <point x="576" y="1460" type="line"/>
      <point x="93" y="932" type="line"/>
      <point x="93" y="528" type="line"/>
    </contour>
    <contour>
      <point x="729" y="311" type="line"/>
      <point x="418" y="653" type="line"/>
      <point x="418" y="807" type="line"/>
      <point x="729" y="1149" type="line"/>
      <point x="827" y="1149" type="line"/>
      <point x="1137" y="807" type="line"/>
      <point x="1137" y="653" type="line"/>
      <point x="827" y="311" type="line"/>
    </contour>
    <contour>
      <point x="778" y="-528" type="line"/>
      <point x="996" y="-318" type="line"/>
      <point x="778" y="-109" type="line"/>
      <point x="559" y="-318" type="line"/>
    </contour>
  </outline>
</glyph>
<glyph name="Ograve.alt5" format="2">
  <advance width="1555"/>
  <outline>
    <contour>
      <point x="576" y="0" type="line"/>
      <point x="981" y="0" type="line"/>
      <point x="1462" y="528" type="line"/>
      <point x="1462" y="932" type="line"/>
      <point x="964" y="1460" type="line"/>
      <point x="576" y="1460" type="line"/>
      <point x="93" y="932" type="line"/>
      <point x="93" y="528" type="line"/>
    </contour>
    <contour>
      <point x="729" y="311" type="line"/>
      <point x="418" y="653" type="line"/>
      <point x="418" y="807" type="line"/>
      <point x="729" y="1149" type="line"/>
      <point x="827" y="1149" type="line"/>
      <point x="1137" y="807" type="line"/>
      <point x="1137" y="653" type="line"/>
      <point x="827" y="311" type="line"/>
    </contour>
    <contour>
      <point x="634" y="1619.408" type="line"/>
      <point x="913" y="1619.408" type="line"/>
      <point x="696" y="1917.966" type="line"/>
      <point x="343" y="1917.966" type="line"/>
    </contour>
  </outline>
</glyph>
<glyph name="Omacron.alt5" format="2">
  <advance width="1555"/>
  <outline>
    <contour>
      <point x="576" y="0" type="line"/>
      <point x="981" y="0" type="line"/>
      <point x="1462" y="528" type="line"/>
      <point x="1462" y="932" type="line"/>
      <point x="964" y="1460" type="line"/>
      <point x="576" y="1460" type="line"/>
      <point x="93" y="932" type="line"/>
      <point x="93" y="528" type="line"/>
    </contour>
    <contour>
      <point x="729" y="311" type="line"/>
      <point x="418" y="653" type="line"/>
      <point x="418" y="807" type="line"/>
      <point x="729" y="1149" type="line"/>
      <point x="827" y="1149" type="line"/>
      <point x="1137" y="807" type="line"/>
      <point x="1137" y="653" type="line"/>
      <point x="827" y="311" type="line"/>
    </contour>
    <contour>
      <point x="347" y="1691" type="line"/>
      <point x="1208" y="1691" type="line"/>
      <point x="1208" y="1884" type="line"/>
      <point x="347" y="1884" type="line"/>
    </contour>
  </outline>
</glyph>
<glyph name="Omega.alt1" format="2">
  <advance width="1555"/>
  <outline>
    <contour>
      <point x="777" y="1203" type="curve" smooth="yes"/>
      <point x="997" y="1203"/>
      <point x="1126" y="1083"/>
      <point x="1126" y="861" type="curve" smooth="yes"/>
      <point x="1126" y="684"/>
      <point x="1044" y="573"/>
      <point x="900" y="474" type="curve"/>
      <point x="900" y="0" type="line"/>
      <point x="1424" y="0" type="line"/>
      <point x="1424" y="251" type="line"/>
      <point x="1068" y="251" type="line"/>
      <point x="1068" y="347" type="line"/>
      <point x="1364" y="484"/>
      <point x="1463" y="654"/>
      <point x="1463" y="893" type="curve" smooth="yes"/>
      <point x="1463" y="1276"/>
      <point x="1207" y="1484"/>
      <point x="777" y="1484" type="curve"/>
      <point x="348" y="1484"/>
      <point x="92" y="1276"/>
      <point x="92" y="893" type="curve" smooth="yes"/>
      <point x="92" y="654"/>
      <point x="191" y="484"/>
      <point x="486" y="346" type="curve"/>
      <point x="486" y="251" type="line"/>
      <point x="131" y="251" type="line"/>
      <point x="131" y="0" type="line"/>
      <point x="655" y="0" type="line"/>
      <point x="655" y="474" type="line"/>
      <point x="511" y="573"/>
      <point x="428" y="684"/>
      <point x="428" y="861" type="curve" smooth="yes"/>
      <point x="428" y="1083"/>
      <point x="557" y="1203"/>
    </contour>
  </outline>
</glyph>
<glyph name="Oogonek.alt1" format="2">
  <advance width="1555"/>
  <outline>
    <contour>
      <point x="576" y="0" type="line"/>
      <point x="981" y="0" type="line"/>
      <point x="1462" y="528" type="line"/>
      <point x="1462" y="932" type="line"/>
      <point x="964" y="1460" type="line"/>
      <point x="576" y="1460" type="line"/>
      <point x="93" y="932" type="line"/>
      <point x="93" y="528" type="line"/>
    </contour>
    <contour>
      <point x="729" y="311" type="line"/>
      <point x="418" y="653" type="line"/>
      <point x="418" y="807" type="line"/>
      <point x="729" y="1149" type="line"/>
      <point x="827" y="1149" type="line"/>
      <point x="1137" y="807" type="line"/>
      <point x="1137" y="653" type="line"/>
      <point x="827" y="311" type="line"/>
    </contour>
    <contour>
      <point x="540" y="-146" type="line"/>
      <point x="540" y="-320" type="line"/>
      <point x="748" y="-443" type="line"/>
      <point x="962" y="-443" type="line"/>
      <point x="962" y="-240" type="line"/>
      <point x="840" y="-240" type="line"/>
      <point x="788" y="-210" type="line"/>
      <point x="788" y="-173" type="line"/>
      <point x="981" y="0" type="line"/>
      <point x="864" y="44" type="line"/>
    </contour>
  </outline>
</glyph>
<glyph name="Oslashacute.alt5" format="2">
  <advance width="1555"/>
  <outline>
    <contour>
      <point x="488" y="275" type="line"/>
      <point x="1183" y="1066" type="line"/>
      <point x="1028" y="1181" type="line"/>
      <point x="325" y="391" type="line"/>
    </contour>
    <contour>
      <point x="227" y="-67" type="line"/>
      <point x="550" y="306" type="line"/>
      <point x="376" y="473" type="line"/>
      <point x="40" y="87" type="line"/>
    </contour>
    <contour>
      <point x="1145" y="991" type="line"/>
      <point x="1479" y="1376" type="line"/>
      <point x="1292" y="1530" type="line"/>
      <point x="970" y="1159" type="line"/>
    </contour>
    <contour>
      <point x="554" y="0" type="line"/>
      <point x="959" y="0" type="line"/>
      <point x="1440" y="528" type="line"/>
      <point x="1440" y="932" type="line"/>
      <point x="942" y="1460" type="line"/>
      <point x="554" y="1460" type="line"/>
      <point x="71" y="932" type="line"/>
      <point x="71" y="528" type="line"/>
    </contour>
    <contour>
      <point x="707" y="311" type="line"/>
      <point x="396" y="653" type="line"/>
      <point x="396" y="807" type="line"/>
      <point x="707" y="1149" type="line"/>
      <point x="805" y="1149" type="line"/>
      <point x="1115" y="807" type="line"/>
      <point x="1115" y="653" type="line"/>
      <point x="805" y="311" type="line"/>
    </contour>
    <contour>
      <point x="899" y="1619" type="line"/>
      <point x="620" y="1619" type="line"/>
      <point x="837" y="1918" type="line"/>
      <point x="1190" y="1918" type="line"/>
    </contour>
  </outline>
</glyph>
<glyph name="P.alt" format="2">
  <advance width="1555"/>
  <outline>
    <contour>
      <point x="263" y="482" type="line"/>
      <point x="1100" y="482" type="line"/>
      <point x="1480" y="787" type="line"/>
      <point x="1480" y="1138" type="line"/>
      <point x="1092" y="1460" type="line"/>
      <point x="263" y="1460" type="line"/>
      <point x="263" y="1159" type="line"/>
      <point x="952" y="1159" type="line"/>
      <point x="1155" y="1021" type="line"/>
      <point x="1155" y="905" type="line"/>
      <point x="952" y="723" type="line"/>
      <point x="263" y="723" type="line"/>
    </contour>
    <contour>
      <point x="132" y="0" type="line"/>
      <point x="469" y="0" type="line"/>
      <point x="469" y="1460" type="line"/>
      <point x="132" y="1460" type="line"/>
    </contour>
  </outline>
</glyph>
<glyph name="Q.alt" format="2">
  <advance width="1555"/>
  <outline>
    <contour>
      <point x="978" y="-462" type="line"/>
      <point x="1284" y="-297" type="line"/>
      <point x="418" y="653" type="line"/>
      <point x="418" y="807" type="line"/>
      <point x="729" y="1149" type="line"/>
      <point x="825" y="1149" type="line"/>
      <point x="1137" y="807" type="line"/>
      <point x="1137" y="653" type="line"/>
      <point x="825" y="311" type="line"/>
      <point x="572" y="311" type="line"/>
      <point x="604" y="0" type="line"/>
      <point x="983" y="0" type="line"/>
      <point x="1462" y="528" type="line"/>
      <point x="1462" y="932" type="line"/>
      <point x="988" y="1460" type="line"/>
      <point x="572" y="1460" type="line"/>
      <point x="93" y="932" type="line"/>
      <point x="93" y="528" type="line"/>
    </contour>
  </outline>
</glyph>
<glyph name="Q.alt3" format="2">
  <advance width="1555"/>
  <outline>
    <contour>
      <point x="978" y="-462" type="line"/>
      <point x="1284" y="-297" type="line"/>
      <point x="418" y="653" type="line"/>
      <point x="418" y="807" type="line"/>
      <point x="729" y="1149" type="line"/>
      <point x="825" y="1149" type="line"/>
      <point x="1137" y="807" type="line"/>
      <point x="1137" y="653" type="line"/>
      <point x="825" y="311" type="line"/>
      <point x="572" y="311" type="line"/>
      <point x="604" y="0" type="line"/>
      <point x="983" y="0" type="line"/>
      <point x="1462" y="528" type="line"/>
      <point x="1462" y="932" type="line"/>
      <point x="988" y="1460" type="line"/>
      <point x="572" y="1460" type="line"/>
      <point x="93" y="932" type="line"/>
      <point x="93" y="528" type="line"/>
    </contour>
  </outline>
</glyph>
<glyph name="Rcaron.alt5" format="2">
  <advance width="1555"/>
  <outline>
    <contour>
      <point x="298" y="552" type="line"/>
      <point x="1038" y="552" type="line"/>
      <point x="1443" y="849" type="line"/>
      <point x="1443" y="1163" type="line"/>
      <point x="1037" y="1460" type="line"/>
      <point x="298" y="1460" type="line"/>
      <point x="298" y="1159" type="line"/>
      <point x="907" y="1159" type="line"/>
      <point x="1118" y="1039" type="line"/>
      <point x="1118" y="933" type="line"/>
      <point x="907" y="763" type="line"/>
      <point x="298" y="763" type="line"/>
    </contour>
    <contour>
      <point x="167" y="0" type="line"/>
      <point x="504" y="0" type="line"/>
      <point x="504" y="1460" type="line"/>
      <point x="167" y="1460" type="line"/>
    </contour>
    <contour>
      <point x="1125" y="0" type="line"/>
      <point x="1460" y="0" type="line"/>
      <point x="1460" y="253" type="line"/>
      <point x="1116" y="661" type="line"/>
      <point x="786" y="661" type="line"/>
      <point x="1125" y="237" type="line"/>
    </contour>
    <contour>
      <point x="319" y="1908" type="line"/>
      <point x="633" y="1908" type="line"/>
      <point x="833" y="1662" type="line"/>
      <point x="765" y="1662" type="line"/>
      <point x="966" y="1908" type="line"/>
      <point x="1280" y="1908" type="line"/>
      <point x="992" y="1620" type="line"/>
      <point x="606" y="1620" type="line"/>
    </contour>
  </outline>
</glyph>
<glyph name="S.alt5" format="2">
  <advance width="1555"/>
  <outline>
    <contour>
      <point x="224" y="0" type="line"/>
      <point x="1065" y="0" type="line"/>
      <point x="1345" y="311" type="line"/>
      <point x="1345" y="541" type="line"/>
      <point x="577" y="1011" type="line"/>
      <point x="577" y="1075" type="line"/>
      <point x="652" y="1159" type="line"/>
      <point x="1335" y="1159" type="line"/>
      <point x="1305" y="1460" type="line"/>
      <point x="484" y="1460" type="line"/>
      <point x="204" y="1149" type="line"/>
      <point x="204" y="919" type="line"/>
      <point x="973" y="449" type="line"/>
      <point x="973" y="385" type="line"/>
      <point x="898" y="301" type="line"/>
      <point x="194" y="301" type="line"/>
    </contour>
  </outline>
</glyph>
<glyph name="Scedilla.alt1" format="2">
  <advance width="1555"/>
  <outline>
    <contour>
      <point x="224" y="0" type="line"/>
      <point x="1065" y="0" type="line"/>
      <point x="1345" y="311" type="line"/>
      <point x="1345" y="541" type="line"/>
      <point x="577" y="1011" type="line"/>
      <point x="577" y="1075" type="line"/>
      <point x="652" y="1159" type="line"/>
      <point x="1335" y="1159" type="line"/>
      <point x="1305" y="1460" type="line"/>
      <point x="484" y="1460" type="line"/>
      <point x="204" y="1149" type="line"/>
      <point x="204" y="919" type="line"/>
      <point x="973" y="449" type="line"/>
      <point x="973" y="385" type="line"/>
      <point x="898" y="301" type="line"/>
      <point x="194" y="301" type="line"/>
    </contour>
    <contour>
      <point x="643" y="-687" type="line"/>
      <point x="837" y="-687" type="line"/>
      <point x="1079" y="-534" type="line"/>
      <point x="1079" y="-270" type="line"/>
      <point x="837" y="-139" type="line"/>
      <point x="808" y="-139" type="line"/>
      <point x="863" y="-200" type="line"/>
      <point x="863" y="48" type="line"/>
      <point x="683" y="48" type="line"/>
      <point x="683" y="-305" type="line"/>
      <point x="769" y="-305" type="line"/>
      <point x="896" y="-370" type="line"/>
      <point x="896" y="-434" type="line"/>
      <point x="769" y="-499" type="line"/>
      <point x="643" y="-499" type="line"/>
    </contour>
  </outline>
</glyph>
<glyph name="Scommaaccent.alt1" format="2">
  <advance width="1555"/>
  <outline>
    <contour>
      <point x="224" y="0" type="line"/>
      <point x="1065" y="0" type="line"/>
      <point x="1345" y="311" type="line"/>
      <point x="1345" y="541" type="line"/>
      <point x="577" y="1011" type="line"/>
      <point x="577" y="1075" type="line"/>
      <point x="652" y="1159" type="line"/>
      <point x="1335" y="1159" type="line"/>
      <point x="1305" y="1460" type="line"/>
      <point x="484" y="1460" type="line"/>
      <point x="204" y="1149" type="line"/>
      <point x="204" y="919" type="line"/>
      <point x="973" y="449" type="line"/>
      <point x="973" y="385" type="line"/>
      <point x="898" y="301" type="line"/>
      <point x="194" y="301" type="line"/>
    </contour>
    <contour>
      <point x="604" y="-494" type="line"/>
      <point x="845" y="-494" type="line"/>
      <point x="845" y="-418" type="line"/>
      <point x="604" y="-721" type="line"/>
      <point x="729" y="-786" type="line"/>
      <point x="947" y="-504" type="line"/>
      <point x="947" y="-151" type="line"/>
      <point x="604" y="-151" type="line"/>
    </contour>
  </outline>
</glyph>
<glyph name="T.alt2" format="2">
  <advance width="1555"/>
  <outline>
    <contour>
      <point x="615" y="0" type="line"/>
      <point x="945" y="0" type="line"/>
      <point x="945" y="1460" type="line"/>
      <point x="615" y="1460" type="line"/>
    </contour>
    <contour>
      <point x="153" y="1189" type="line"/>
      <point x="1399" y="1189" type="line"/>
      <point x="1379" y="1460" type="line"/>
      <point x="173" y="1460" type="line"/>
    </contour>
  </outline>
</glyph>
<glyph name="Tcaron.alt1" format="2">
  <advance width="1555"/>
  <outline>
    <contour>
      <point x="615" y="0" type="line"/>
      <point x="945" y="0" type="line"/>
      <point x="945" y="1460" type="line"/>
      <point x="615" y="1460" type="line"/>
    </contour>
    <contour>
      <point x="153" y="1189" type="line"/>
      <point x="1399" y="1189" type="line"/>
      <point x="1379" y="1460" type="line"/>
      <point x="173" y="1460" type="line"/>
    </contour>
    <contour>
      <point x="297" y="1908" type="line"/>
      <point x="611" y="1908" type="line"/>
      <point x="811" y="1662" type="line"/>
      <point x="743" y="1662" type="line"/>
      <point x="944" y="1908" type="line"/>
      <point x="1258" y="1908" type="line"/>
      <point x="970" y="1620" type="line"/>
      <point x="584" y="1620" type="line"/>
    </contour>
  </outline>
</glyph>
<glyph name="Tcedilla.alt5" format="2">
  <advance width="1555"/>
  <outline>
    <contour>
      <point x="615" y="0" type="line"/>
      <point x="945" y="0" type="line"/>
      <point x="945" y="1460" type="line"/>
      <point x="615" y="1460" type="line"/>
    </contour>
    <contour>
      <point x="153" y="1189" type="line"/>
      <point x="1399" y="1189" type="line"/>
      <point x="1379" y="1460" type="line"/>
      <point x="173" y="1460" type="line"/>
    </contour>
    <contour>
      <point x="650" y="-687" type="line"/>
      <point x="844" y="-687" type="line"/>
      <point x="1086" y="-534" type="line"/>
      <point x="1086" y="-270" type="line"/>
      <point x="844" y="-139" type="line"/>
      <point x="815" y="-139" type="line"/>
      <point x="870" y="-200" type="line"/>
      <point x="870" y="48" type="line"/>
      <point x="690" y="48" type="line"/>
      <point x="690" y="-305" type="line"/>
      <point x="776" y="-305" type="line"/>
      <point x="903" y="-370" type="line"/>
      <point x="903" y="-434" type="line"/>
      <point x="776" y="-499" type="line"/>
      <point x="650" y="-499" type="line"/>
    </contour>
  </outline>
</glyph>
<glyph name="Tcommaaccent.alt1" format="2">
  <advance width="1555"/>
  <outline>
    <contour>
      <point x="615" y="0" type="line"/>
      <point x="945" y="0" type="line"/>
      <point x="945" y="1460" type="line"/>
      <point x="615" y="1460" type="line"/>
    </contour>
    <contour>
      <point x="153" y="1189" type="line"/>
      <point x="1399" y="1189" type="line"/>
      <point x="1379" y="1460" type="line"/>
      <point x="173" y="1460" type="line"/>
    </contour>
    <contour>
      <point x="611" y="-494" type="line"/>
      <point x="852" y="-494" type="line"/>
      <point x="852" y="-418" type="line"/>
      <point x="611" y="-721" type="line"/>
      <point x="736" y="-786" type="line"/>
      <point x="954" y="-504" type="line"/>
      <point x="954" y="-151" type="line"/>
      <point x="611" y="-151" type="line"/>
    </contour>
  </outline>
</glyph>
<glyph name="Thorn.alt1" format="2">
  <advance width="1555"/>
  <outline>
    <contour>
      <point x="162" y="0" type="line"/>
      <point x="491" y="0" type="line"/>
      <point x="491" y="1460" type="line"/>
      <point x="162" y="1460" type="line"/>
    </contour>
    <contour>
      <point x="311" y="276" type="line"/>
      <point x="1098" y="276" type="line"/>
      <point x="1478" y="581" type="line"/>
      <point x="1478" y="932" type="line"/>
      <point x="1090" y="1254" type="line"/>
      <point x="311" y="1254" type="line"/>
      <point x="311" y="1012" type="line"/>
      <point x="950" y="1012" type="line"/>
      <point x="1153" y="874" type="line"/>
      <point x="1153" y="699" type="line"/>
      <point x="950" y="517" type="line"/>
      <point x="311" y="517" type="line"/>
    </contour>
  </outline>
</glyph>
<glyph name="U.alt3" format="2">
  <advance width="1555"/>
  <outline>
    <contour>
      <point x="395" y="0" type="line"/>
      <point x="1159" y="0" type="line"/>
      <point x="1396" y="295" type="line"/>
      <point x="1396" y="1460" type="line"/>
      <point x="1061" y="1460" type="line"/>
      <point x="1061" y="396" type="line"/>
      <point x="961" y="271" type="line"/>
      <point x="593" y="271" type="line"/>
      <point x="493" y="396" type="line"/>
      <point x="493" y="1460" type="line"/>
      <point x="158" y="1460" type="line"/>
      <point x="158" y="295" type="line"/>
    </contour>
  </outline>
</glyph>
<glyph name="Ubreve.alt5" format="2">
  <advance width="1555"/>
  <outline>
    <contour>
      <point x="395" y="0" type="line"/>
      <point x="1159" y="0" type="line"/>
      <point x="1396" y="295" type="line"/>
      <point x="1396" y="1460" type="line"/>
      <point x="1061" y="1460" type="line"/>
      <point x="1061" y="396" type="line"/>
      <point x="961" y="271" type="line"/>
      <point x="593" y="271" type="line"/>
      <point x="493" y="396" type="line"/>
      <point x="493" y="1460" type="line"/>
      <point x="158" y="1460" type="line"/>
      <point x="158" y="295" type="line"/>
    </contour>
    <contour>
      <point x="580" y="1610" type="line"/>
      <point x="974" y="1610" type="line"/>
      <point x="1177" y="1773" type="line"/>
      <point x="1177" y="1908" type="line"/>
      <point x="979" y="1908" type="line"/>
      <point x="979" y="1840" type="line"/>
      <point x="894" y="1773" type="line"/>
      <point x="660" y="1773" type="line"/>
      <point x="575" y="1840" type="line"/>
      <point x="575" y="1908" type="line"/>
      <point x="377" y="1908" type="line"/>
      <point x="377" y="1772" type="line"/>
    </contour>
  </outline>
</glyph>
<glyph name="Uhungarumlaut.alt1" format="2">
  <advance width="1555"/>
  <outline>
    <contour>
      <point x="395" y="0" type="line"/>
      <point x="1159" y="0" type="line"/>
      <point x="1396" y="295" type="line"/>
      <point x="1396" y="1460" type="line"/>
      <point x="1061" y="1460" type="line"/>
      <point x="1061" y="396" type="line"/>
      <point x="961" y="271" type="line"/>
      <point x="593" y="271" type="line"/>
      <point x="493" y="396" type="line"/>
      <point x="493" y="1460" type="line"/>
      <point x="158" y="1460" type="line"/>
      <point x="158" y="295" type="line"/>
    </contour>
    <contour>
      <point x="381" y="1620" type="line"/>
      <point x="633" y="1620" type="line"/>
      <point x="841" y="1919" type="line"/>
      <point x="546" y="1919" type="line"/>
    </contour>
    <contour>
      <point x="906" y="1620" type="line"/>
      <point x="1156" y="1620" type="line"/>
      <point x="1365" y="1919" type="line"/>
      <point x="1070" y="1919" type="line"/>
    </contour>
  </outline>
</glyph>
<glyph name="Umacron.alt5" format="2">
  <advance width="1555"/>
  <outline>
    <contour>
      <point x="395" y="0" type="line"/>
      <point x="1159" y="0" type="line"/>
      <point x="1396" y="295" type="line"/>
      <point x="1396" y="1460" type="line"/>
      <point x="1061" y="1460" type="line"/>
      <point x="1061" y="396" type="line"/>
      <point x="961" y="271" type="line"/>
      <point x="593" y="271" type="line"/>
      <point x="493" y="396" type="line"/>
      <point x="493" y="1460" type="line"/>
      <point x="158" y="1460" type="line"/>
      <point x="158" y="295" type="line"/>
    </contour>
    <contour>
      <point x="346" y="1691" type="line"/>
      <point x="1207" y="1691" type="line"/>
      <point x="1207" y="1884" type="line"/>
      <point x="346" y="1884" type="line"/>
    </contour>
  </outline>
</glyph>
<glyph name="Uogonek.alt5" format="2">
  <advance width="1555"/>
  <outline>
    <contour>
      <point x="395" y="0" type="line"/>
      <point x="1159" y="0" type="line"/>
      <point x="1396" y="295" type="line"/>
      <point x="1396" y="1460" type="line"/>
      <point x="1061" y="1460" type="line"/>
      <point x="1061" y="396" type="line"/>
      <point x="961" y="271" type="line"/>
      <point x="593" y="271" type="line"/>
      <point x="493" y="396" type="line"/>
      <point x="493" y="1460" type="line"/>
      <point x="158" y="1460" type="line"/>
      <point x="158" y="295" type="line"/>
    </contour>
    <contour>
      <point x="544" y="-146" type="line"/>
      <point x="544" y="-320" type="line"/>
      <point x="752" y="-443" type="line"/>
      <point x="966" y="-443" type="line"/>
      <point x="966" y="-240" type="line"/>
      <point x="844" y="-240" type="line"/>
      <point x="792" y="-210" type="line"/>
      <point x="792" y="-173" type="line"/>
      <point x="985" y="0" type="line"/>
      <point x="868" y="44" type="line"/>
    </contour>
  </outline>
</glyph>
<glyph name="Utilde.alt5" format="2">
  <advance width="1555"/>
  <outline>
    <contour>
      <point x="395" y="0" type="line"/>
      <point x="1159" y="0" type="line"/>
      <point x="1396" y="295" type="line"/>
      <point x="1396" y="1460" type="line"/>
      <point x="1061" y="1460" type="line"/>
      <point x="1061" y="396" type="line"/>
      <point x="961" y="271" type="line"/>
      <point x="593" y="271" type="line"/>
      <point x="493" y="396" type="line"/>
      <point x="493" y="1460" type="line"/>
      <point x="158" y="1460" type="line"/>
      <point x="158" y="295" type="line"/>
    </contour>
    <contour>
      <point x="762" y="1911" type="line"/>
      <point x="464" y="1911" type="line"/>
      <point x="311" y="1758" type="line"/>
      <point x="311" y="1615" type="line"/>
      <point x="514" y="1615" type="line"/>
      <point x="514" y="1686" type="line"/>
      <point x="574" y="1758" type="line"/>
      <point x="652" y="1758" type="line"/>
      <point x="792" y="1615" type="line"/>
      <point x="1090" y="1615" type="line"/>
      <point x="1243" y="1768" type="line"/>
      <point x="1243" y="1911" type="line"/>
      <point x="1040" y="1911" type="line"/>
      <point x="1040" y="1830" type="line"/>
      <point x="980" y="1768" type="line"/>
      <point x="902" y="1768" type="line"/>
    </contour>
  </outline>
</glyph>
<glyph name="X.alt4" format="2">
  <advance width="1555"/>
  <outline>
    <contour>
      <point x="1069" y="0" type="line"/>
      <point x="1404" y="0" type="line"/>
      <point x="1404" y="378" type="line"/>
      <point x="486" y="1185" type="line"/>
      <point x="486" y="1460" type="line"/>
      <point x="151" y="1460" type="line"/>
      <point x="151" y="1082" type="line"/>
      <point x="1069" y="276" type="line"/>
    </contour>
    <contour>
      <point x="151" y="0" type="line"/>
      <point x="456" y="0" type="line"/>
      <point x="456" y="276" type="line"/>
      <point x="822" y="624" type="line"/>
      <point x="652" y="860" type="line"/>
      <point x="151" y="368" type="line"/>
    </contour>
    <contour>
      <point x="913" y="609" type="line"/>
      <point x="1404" y="1092" type="line"/>
      <point x="1404" y="1460" type="line"/>
      <point x="1099" y="1460" type="line"/>
      <point x="1099" y="1185" type="line"/>
      <point x="743" y="845" type="line"/>
    </contour>
  </outline>
</glyph>
<glyph name="Yacute.alt5" format="2">
  <advance width="1555"/>
  <outline>
    <contour>
      <point x="615" y="507" type="line"/>
      <point x="941" y="507" type="line"/>
      <point x="1406" y="1044" type="line"/>
      <point x="1406" y="1460" type="line"/>
      <point x="1081" y="1460" type="line"/>
      <point x="1081" y="1146" type="line"/>
      <point x="747" y="756" type="line"/>
      <point x="819" y="756" type="line"/>
      <point x="484" y="1146" type="line"/>
      <point x="484" y="1460" type="line"/>
      <point x="149" y="1460" type="line"/>
      <point x="149" y="1044" type="line"/>
    </contour>
    <contour>
      <point x="613" y="0" type="line"/>
      <point x="942" y="0" type="line"/>
      <point x="942" y="651" type="line"/>
      <point x="613" y="651" type="line"/>
    </contour>
    <contour>
      <point x="921" y="1619.408" type="line"/>
      <point x="642" y="1619.408" type="line"/>
      <point x="859" y="1917.966" type="line"/>
      <point x="1212" y="1917.966" type="line"/>
    </contour>
  </outline>
</glyph>
<glyph name="Ycircumflex.alt1" format="2">
  <advance width="1555"/>
  <outline>
    <contour>
      <point x="615" y="507" type="line"/>
      <point x="941" y="507" type="line"/>
      <point x="1406" y="1044" type="line"/>
      <point x="1406" y="1460" type="line"/>
      <point x="1081" y="1460" type="line"/>
      <point x="1081" y="1146" type="line"/>
      <point x="747" y="756" type="line"/>
      <point x="819" y="756" type="line"/>
      <point x="484" y="1146" type="line"/>
      <point x="484" y="1460" type="line"/>
      <point x="149" y="1460" type="line"/>
      <point x="149" y="1044" type="line"/>
    </contour>
    <contour>
      <point x="613" y="0" type="line"/>
      <point x="942" y="0" type="line"/>
      <point x="942" y="651" type="line"/>
      <point x="613" y="651" type="line"/>
    </contour>
    <contour>
      <point x="297" y="1620" type="line"/>
      <point x="611" y="1620" type="line"/>
      <point x="811" y="1866" type="line"/>
      <point x="743" y="1866" type="line"/>
      <point x="944" y="1620" type="line"/>
      <point x="1258" y="1620" type="line"/>
      <point x="970" y="1908" type="line"/>
      <point x="584" y="1908" type="line"/>
    </contour>
  </outline>
</glyph>
<glyph name="Ydieresis.alt5" format="2">
  <advance width="1555"/>
  <outline>
    <contour>
      <point x="615" y="507" type="line"/>
      <point x="941" y="507" type="line"/>
      <point x="1406" y="1044" type="line"/>
      <point x="1406" y="1460" type="line"/>
      <point x="1081" y="1460" type="line"/>
      <point x="1081" y="1146" type="line"/>
      <point x="747" y="756" type="line"/>
      <point x="819" y="756" type="line"/>
      <point x="484" y="1146" type="line"/>
      <point x="484" y="1460" type="line"/>
      <point x="149" y="1460" type="line"/>
      <point x="149" y="1044" type="line"/>
    </contour>
    <contour>
      <point x="613" y="0" type="line"/>
      <point x="942" y="0" type="line"/>
      <point x="942" y="651" type="line"/>
      <point x="613" y="651" type="line"/>
    </contour>
    <contour>
      <point x="445.852" y="1628.8" type="line"/>
      <point x="616.764" y="1796.8" type="line"/>
      <point x="445.852" y="1964" type="line"/>
      <point x="274.156" y="1796.8" type="line"/>
    </contour>
    <contour>
      <point x="1118.852" y="1628.8" type="line"/>
      <point x="1289.764" y="1796.8" type="line"/>
      <point x="1118.852" y="1964" type="line"/>
      <point x="947.156" y="1796.8" type="line"/>
    </contour>
  </outline>
</glyph>
<glyph name="Ytilde.alt5" format="2">
  <advance width="1555"/>
  <outline>
    <contour>
      <point x="615" y="507" type="line"/>
      <point x="941" y="507" type="line"/>
      <point x="1406" y="1044" type="line"/>
      <point x="1406" y="1460" type="line"/>
      <point x="1081" y="1460" type="line"/>
      <point x="1081" y="1146" type="line"/>
      <point x="747" y="756" type="line"/>
      <point x="819" y="756" type="line"/>
      <point x="484" y="1146" type="line"/>
      <point x="484" y="1460" type="line"/>
      <point x="149" y="1460" type="line"/>
      <point x="149" y="1044" type="line"/>
    </contour>
    <contour>
      <point x="613" y="0" type="line"/>
      <point x="942" y="0" type="line"/>
      <point x="942" y="651" type="line"/>
      <point x="613" y="651" type="line"/>
    </contour>
    <contour>
      <point x="763" y="1911" type="line"/>
      <point x="465" y="1911" type="line"/>
      <point x="312" y="1758" type="line"/>
      <point x="312" y="1615" type="line"/>
      <point x="515" y="1615" type="line"/>
      <point x="515" y="1686" type="line"/>
      <point x="575" y="1758" type="line"/>
      <point x="653" y="1758" type="line"/>
      <point x="793" y="1615" type="line"/>
      <point x="1091" y="1615" type="line"/>
      <point x="1244" y="1768" type="line"/>
      <point x="1244" y="1911" type="line"/>
      <point x="1041" y="1911" type="line"/>
      <point x="1041" y="1830" type="line"/>
      <point x="981" y="1768" type="line"/>
      <point x="903" y="1768" type="line"/>
    </contour>
  </outline>
</glyph>
<glyph name="Zdotaccent.alt1" format="2">
  <advance width="1555"/>
  <outline>
    <contour>
      <point x="215" y="0" type="line"/>
      <point x="1362" y="0" type="line"/>
      <point x="1422" y="266" type="line"/>
      <point x="428" y="266" type="line"/>
      <point x="487" y="160" type="line"/>
      <point x="1366" y="1245" type="line"/>
      <point x="1305" y="1460" type="line"/>
      <point x="220" y="1460" type="line"/>
      <point x="160" y="1196" type="line"/>
      <point x="1120" y="1196" type="line"/>
      <point x="1027" y="1291" type="line"/>
      <point x="155" y="226" type="line"/>
    </contour>
    <contour>
      <point x="808" y="1629" type="line"/>
      <point x="983" y="1797" type="line"/>
      <point x="808" y="1964" type="line"/>
      <point x="633" y="1797" type="line"/>
    </contour>
  </outline>
</glyph>
<glyph name="acutecomb.alt1" format="2">
  <outline>
    <contour>
      <point x="945" y="1275" type="line"/>
      <point x="666" y="1275" type="line"/>
      <point x="883" y="1643" type="line"/>
      <point x="1236" y="1643" type="line"/>
    </contour>
  </outline>
</glyph>
<glyph name="acutecomb.alt5" format="2">
  <outline>
    <contour>
      <point x="945" y="1275" type="line"/>
      <point x="666" y="1275" type="line"/>
      <point x="883" y="1643" type="line"/>
      <point x="1236" y="1643" type="line"/>
    </contour>
  </outline>
</glyph>
<glyph name="acutecomb.case" format="2">
  <outline>
    <contour>
      <point x="945" y="1619" type="line"/>
      <point x="666" y="1619" type="line"/>
      <point x="883" y="1918" type="line"/>
      <point x="1236" y="1918" type="line"/>
    </contour>
  </outline>
</glyph>
<glyph name="anticlockwiseOpenCircleArrow.alt5" format="2">
  <advance width="1555"/>
  <outline>
    <contour>
      <point x="666" y="1376" type="line"/>
      <point x="666" y="742" type="line"/>
      <point x="897" y="742" type="line"/>
      <point x="896" y="1219" type="line"/>
      <point x="824" y="1147" type="line"/>
      <point x="1301" y="1146" type="line"/>
      <point x="1301" y="1377" type="line"/>
    </contour>
    <contour>
      <point x="1097" y="1210" type="line"/>
      <point x="805" y="1210" type="line"/>
      <point x="805" y="918" type="line"/>
      <point x="1015" y="993" type="line"/>
    </contour>
    <contour>
      <point x="806" y="998" type="line"/>
      <point x="964" y="967"/>
      <point x="1073" y="833"/>
      <point x="1073" y="662" type="curve" smooth="yes"/>
      <point x="1073" y="489"/>
      <point x="959" y="360"/>
      <point x="777" y="360" type="curve" smooth="yes"/>
      <point x="596" y="360"/>
      <point x="481" y="489"/>
      <point x="481" y="660" type="curve" smooth="yes"/>
      <point x="481" y="741"/>
      <point x="507" y="800"/>
      <point x="533" y="845" type="curve"/>
      <point x="319" y="967" type="line"/>
      <point x="264" y="880"/>
      <point x="232" y="781"/>
      <point x="232" y="660" type="curve" smooth="yes"/>
      <point x="232" y="333"/>
      <point x="468" y="127"/>
      <point x="779" y="127" type="curve" smooth="yes"/>
      <point x="1091" y="127"/>
      <point x="1322" y="337"/>
      <point x="1322" y="657" type="curve" smooth="yes"/>
      <point x="1322" y="945"/>
      <point x="1135" y="1138"/>
      <point x="865" y="1233" type="curve"/>
    </contour>
  </outline>
</glyph>
